STARTFONT 2.1
COMMENT
COMMENT Converted from OpenType font "ibmplex_regular.ttf" by "otf2bdf 3.0".
COMMENT
FONT -FreeType-IBM Plex Sans Thin-Medium-R-Normal--50-360-100-100-P-221-ISO10646-1
SIZE 36 100 100
FONTBOUNDINGBOX 66 66 -8 -11
STARTPROPERTIES 19
FOUNDRY "FreeType"
FAMILY_NAME "IBM Plex Sans Thin"
WEIGHT_NAME "Medium"
SLANT "R"
SETWIDTH_NAME "Normal"
ADD_STYLE_NAME ""
PIXEL_SIZE 50
POINT_SIZE 360
RESOLUTION_X 100
RESOLUTION_Y 100
SPACING "P"
AVERAGE_WIDTH 221
CHARSET_REGISTRY "ISO10646"
CHARSET_ENCODING "1"
FONT_ASCENT 51
FONT_DESCENT 13
COPYRIGHT "Copyright 2018 IBM Corp. All rights reserved."
_OTF_FONTFILE "ibmplex_regular.ttf"
_OTF_PSNAME "IBMPlexSans-Thin"
ENDPROPERTIES
CHARS 826
STARTCHAR 0000
ENCODING 0
SWIDTH 0 0
DWIDTH 0 0
BBX 0 0 0 0
BITMAP
ENDCHAR
STARTCHAR 000D
ENCODING 13
SWIDTH 220 0
DWIDTH 11 0
BBX 0 0 0 0
BITMAP
ENDCHAR
STARTCHAR 0020
ENCODING 32
SWIDTH 220 0
DWIDTH 11 0
BBX 0 0 0 0
BITMAP
ENDCHAR
STARTCHAR 0021
ENCODING 33
SWIDTH 240 0
DWIDTH 12 0
BBX 3 35 5 0
BITMAP
40
40
40
40
40
40
40
40
40
40
40
40
40
40
40
40
40
40
40
40
40
40
40
40
40
40
00
00
00
00
00
00
40
E0
E0
ENDCHAR
STARTCHAR 0022
ENCODING 34
SWIDTH 360 0
DWIDTH 18 0
BBX 9 13 5 24
BITMAP
8080
8080
8080
8080
8080
8080
8080
8080
8080
8080
8080
8080
8080
ENDCHAR
STARTCHAR 0023
ENCODING 35
SWIDTH 700 0
DWIDTH 35 0
BBX 29 35 3 0
BITMAP
00080200
00080200
00080200
00080200
00100200
00100200
00100400
00100400
00100400
00300400
00200400
3FFFFFF8
00200800
00200800
00200800
00600800
00400800
00401000
00401000
00401000
00401000
00801000
00801000
FFFFFFE0
00802000
00802000
00802000
01002000
01002000
01004000
01004000
01004000
01004000
02004000
02004000
ENDCHAR
STARTCHAR 0024
ENCODING 36
SWIDTH 540 0
DWIDTH 27 0
BBX 22 43 2 -4
BITMAP
001000
001000
001000
001000
00FE00
0711C0
181030
301018
20100C
401000
401000
401000
401000
401000
401000
601000
201000
301000
181000
071000
01F000
001F00
0010E0
001030
001018
00100C
001004
001004
001004
001004
001004
001004
001004
C01004
601008
301018
181030
0710C0
00FF00
001000
001000
001000
001000
ENDCHAR
STARTCHAR 0025
ENCODING 37
SWIDTH 880 0
DWIDTH 44 0
BBX 36 36 4 0
BITMAP
1FC0000400
2030000400
4010000800
4008001000
8008003000
8004002000
8004004000
800400C000
8004008000
8004010000
8004030000
8004020000
8004040000
8008080000
4008080000
4018100000
2010200C00
1860607380
070040C040
0000808020
0001810020
0001010010
0002030010
0004020010
0004020010
0008020010
0010020010
0010020010
0020020010
0040020010
00C0010010
0080010020
0100008020
030000C040
0200007380
0000000C00
ENDCHAR
STARTCHAR 0026
ENCODING 38
SWIDTH 660 0
DWIDTH 33 0
BBX 29 37 3 -1
BITMAP
00080000
00F78000
0300C000
06002000
04001000
0C001000
08001000
08001000
08001000
08001000
08001000
04002000
04006000
0200C000
03010000
01860000
00980000
00600000
01B001F8
06180100
080C0100
10060100
20030100
60018100
4000C100
40006100
40003200
C0001A00
40000E00
40000600
40000700
40000980
200010C0
10002060
0C00C030
079F0018
00600000
ENDCHAR
STARTCHAR 0027
ENCODING 39
SWIDTH 220 0
DWIDTH 11 0
BBX 1 13 5 24
BITMAP
80
80
80
80
80
80
80
80
80
80
80
80
80
ENDCHAR
STARTCHAR 0028
ENCODING 40
SWIDTH 320 0
DWIDTH 16 0
BBX 10 45 5 -7
BITMAP
0040
0080
0100
0200
0200
0400
0800
0800
1000
1000
2000
2000
2000
4000
4000
4000
4000
4000
8000
8000
8000
8000
8000
8000
8000
8000
8000
4000
4000
4000
4000
4000
2000
2000
1000
1000
1000
0800
0C00
0400
0200
0300
0100
0080
0040
ENDCHAR
STARTCHAR 0029
ENCODING 41
SWIDTH 320 0
DWIDTH 16 0
BBX 10 45 1 -7
BITMAP
C000
6000
2000
1000
0800
0400
0400
0200
0200
0100
0100
0100
0080
0080
0080
0040
0040
0040
0040
0040
0040
0040
0040
0040
0040
0040
0040
0040
0040
0040
0080
0080
0080
0100
0100
0100
0200
0200
0400
0C00
0800
1000
2000
6000
C000
ENDCHAR
STARTCHAR 002A
ENCODING 42
SWIDTH 360 0
DWIDTH 18 0
BBX 16 15 1 22
BITMAP
0080
0080
0080
0080
0100
C103
391C
07E0
0180
0340
0240
0420
0810
1818
1008
ENDCHAR
STARTCHAR 002B
ENCODING 43
SWIDTH 600 0
DWIDTH 30 0
BBX 24 24 3 3
BITMAP
001800
001800
001800
001800
001800
001800
001800
001800
001800
001800
001800
FFFFFF
001800
001800
001800
001800
001800
001800
001800
001800
001800
001800
001800
001800
ENDCHAR
STARTCHAR 002C
ENCODING 44
SWIDTH 240 0
DWIDTH 12 0
BBX 4 9 3 -6
BITMAP
30
30
10
10
10
20
20
40
80
ENDCHAR
STARTCHAR 002D
ENCODING 45
SWIDTH 380 0
DWIDTH 19 0
BBX 12 1 4 15
BITMAP
FFF0
ENDCHAR
STARTCHAR 002E
ENCODING 46
SWIDTH 240 0
DWIDTH 12 0
BBX 2 3 5 0
BITMAP
C0
C0
C0
ENDCHAR
STARTCHAR 002F
ENCODING 47
SWIDTH 300 0
DWIDTH 15 0
BBX 12 45 1 -8
BITMAP
0010
0010
0010
0010
0020
0020
0020
0020
0040
0040
0040
0080
0080
0080
0080
0100
0100
0100
0100
0200
0200
0200
0200
0400
0400
0400
0800
0800
0800
0800
1000
1000
1000
1000
2000
2000
2000
2000
4000
4000
4000
8000
8000
8000
8000
ENDCHAR
STARTCHAR 0030
ENCODING 48
SWIDTH 600 0
DWIDTH 30 0
BBX 22 36 4 0
BITMAP
03FF00
060180
180040
100020
200010
200010
400008
400008
C00008
800004
800004
800004
800004
800004
800004
800004
800004
800004
800004
800004
800004
800004
800004
800004
800004
800004
C00008
400008
400008
600010
200010
100020
180060
0C00C0
03CF00
003000
ENDCHAR
STARTCHAR 0031
ENCODING 49
SWIDTH 600 0
DWIDTH 30 0
BBX 23 35 4 0
BITMAP
003800
006800
00C800
010800
020800
0C0800
180800
300800
400800
800800
000800
000800
000800
000800
000800
000800
000800
000800
000800
000800
000800
000800
000800
000800
000800
000800
000800
000800
000800
000800
000800
000800
000800
000800
7FFFFE
ENDCHAR
STARTCHAR 0032
ENCODING 50
SWIDTH 600 0
DWIDTH 30 0
BBX 22 35 4 1
BITMAP
03FF00
0C0180
100040
200020
600020
400010
400010
000010
000010
000010
000010
000010
000010
000030
000020
000020
000040
0000C0
000180
000100
000200
000400
000800
001000
002000
004000
008000
010000
020000
040000
080000
100000
200000
400000
FFFFFC
ENDCHAR
STARTCHAR 0033
ENCODING 51
SWIDTH 600 0
DWIDTH 30 0
BBX 20 37 4 -1
BITMAP
002000
07FE00
080180
3000C0
200060
400020
000020
000030
000010
000010
000010
000030
000020
000020
000040
000080
000300
07FC00
000700
000080
000040
000020
000030
000010
000010
000010
000010
000010
000010
000010
000010
800030
C00020
600040
180180
0F9E00
006000
ENDCHAR
STARTCHAR 0034
ENCODING 52
SWIDTH 600 0
DWIDTH 30 0
BBX 26 35 2 0
BITMAP
00003000
00007000
00005000
00009000
00011000
00011000
00021000
00041000
000C1000
00081000
00101000
00301000
00201000
00401000
00801000
00801000
01001000
02001000
02001000
04001000
08001000
18001000
10001000
20001000
60001000
40001000
FFFFFFC0
00001000
00001000
00001000
00001000
00001000
00001000
00001000
00001000
ENDCHAR
STARTCHAR 0035
ENCODING 53
SWIDTH 600 0
DWIDTH 30 0
BBX 21 36 4 -1
BITMAP
1FFFF0
100000
100000
100000
100000
100000
100000
200000
200000
200000
200000
200000
200000
200000
207800
238700
2C00C0
300060
200030
000010
000018
000008
000008
000008
000008
000008
000008
000008
000008
000010
C00010
400020
300060
1800C0
07CF00
003800
ENDCHAR
STARTCHAR 0036
ENCODING 54
SWIDTH 600 0
DWIDTH 30 0
BBX 22 36 4 -1
BITMAP
000600
000C00
001000
006000
00C000
018000
030000
020000
040000
080000
080000
100000
100000
200000
20FC00
670380
4C00C0
500020
600030
600010
C00008
C00008
C00008
C00008
C0000C
C0000C
400008
400008
400008
400008
200010
300030
180060
0C00C0
03CF00
003000
ENDCHAR
STARTCHAR 0037
ENCODING 55
SWIDTH 600 0
DWIDTH 30 0
BBX 22 35 4 0
BITMAP
FFFFFC
800008
800008
800018
800010
800030
800020
800020
800040
000040
000080
000080
000180
000100
000300
000200
000200
000400
000400
000800
000800
001800
001000
003000
002000
002000
004000
004000
008000
008000
018000
010000
030000
020000
020000
ENDCHAR
STARTCHAR 0038
ENCODING 56
SWIDTH 600 0
DWIDTH 30 0
BBX 22 36 4 0
BITMAP
03FF00
0C00C0
100020
200010
200010
400008
400008
400008
400008
400008
400008
400008
200010
300030
180060
0E01C0
01FE00
070380
180060
300030
600018
400008
800004
800004
800004
800004
800004
800004
800004
800004
400008
600018
300030
1C00E0
07CF80
007000
ENDCHAR
STARTCHAR 0039
ENCODING 57
SWIDTH 600 0
DWIDTH 30 0
BBX 21 35 5 1
BITMAP
07FE00
0C0180
3000C0
200060
400020
C00010
800010
800010
800008
800008
800008
800008
800018
800018
800018
400018
600030
200050
180090
0E0710
01F820
000020
000060
000040
0000C0
000080
000100
000300
000600
000400
000800
003000
006000
008000
030000
ENDCHAR
STARTCHAR 003A
ENCODING 58
SWIDTH 260 0
DWIDTH 13 0
BBX 3 26 5 0
BITMAP
40
E0
E0
00
00
00
00
00
00
00
00
00
00
00
00
00
00
00
00
00
00
00
00
40
E0
E0
ENDCHAR
STARTCHAR 003B
ENCODING 59
SWIDTH 260 0
DWIDTH 13 0
BBX 4 33 4 -7
BITMAP
20
70
70
00
00
00
00
00
00
00
00
00
00
00
00
00
00
00
00
00
00
00
00
20
70
70
10
30
20
20
40
40
80
ENDCHAR
STARTCHAR 003C
ENCODING 60
SWIDTH 600 0
DWIDTH 30 0
BBX 22 26 4 3
BITMAP
00000C
000030
000040
000180
000600
000800
003000
00C000
010000
060000
180000
200000
C00000
600000
300000
0C0000
030000
018000
006000
001800
000C00
000300
0000C0
000060
000018
000004
ENDCHAR
STARTCHAR 003D
ENCODING 61
SWIDTH 600 0
DWIDTH 30 0
BBX 24 10 3 10
BITMAP
FFFFFF
000000
000000
000000
000000
000000
000000
000000
000000
FFFFFF
ENDCHAR
STARTCHAR 003E
ENCODING 62
SWIDTH 600 0
DWIDTH 30 0
BBX 22 26 4 3
BITMAP
C00000
300000
080000
060000
018000
004000
003000
000C00
000200
000180
000060
000010
00000C
000018
000030
0000C0
000300
000600
001800
006000
00C000
030000
0C0000
180000
600000
800000
ENDCHAR
STARTCHAR 003F
ENCODING 63
SWIDTH 440 0
DWIDTH 22 0
BBX 19 35 2 1
BITMAP
07FE00
180300
300080
600040
400040
800020
800020
000020
000020
000020
000020
000020
000040
000040
000080
000100
000600
007800
008000
008000
008000
008000
008000
008000
008000
008000
000000
000000
000000
000000
000000
000000
008000
01C000
01C000
ENDCHAR
STARTCHAR 0040
ENCODING 64
SWIDTH 880 0
DWIDTH 44 0
BBX 38 42 3 -6
BITMAP
0000100000
0007EF8000
0018007000
0060000C00
0180000600
0300000100
0600000080
0400000040
0800000060
1000000020
1000000010
2001FE2010
2006012010
200C00A008
4008006008
4010006008
4010002008
4010002008
4020002008
402000200C
C020002008
C020002008
4020002008
4020002008
4020002008
4010002008
4010002008
4010006010
4008006010
200800A020
2006013060
10038E1CC0
1000600700
0800000000
0800000000
0400000000
0200000000
0100000000
00C0000000
0060000000
001C000000
0003FFFE00
ENDCHAR
STARTCHAR 0041
ENCODING 65
SWIDTH 600 0
DWIDTH 30 0
BBX 26 35 2 0
BITMAP
000C0000
000C0000
00120000
00120000
00120000
00210000
00210000
00210000
00408000
00408000
00C0C000
00804000
00804000
01806000
01002000
01002000
02001000
02001000
02001000
04000800
04000800
0C000C00
0FFFFC00
08000400
18000600
10000200
10000200
20000100
20000100
20000100
40000080
40000080
C0000080
80000040
80000040
ENDCHAR
STARTCHAR 0042
ENCODING 66
SWIDTH 600 0
DWIDTH 30 0
BBX 22 35 5 0
BITMAP
FFFF00
C000C0
C00060
C00030
C00010
C00018
C00008
C00008
C00008
C00008
C00008
C00018
C00010
C00010
C00020
C000C0
FFFF00
C000E0
C00030
C00008
C00008
C00004
C00004
C00004
C00004
C00004
C00004
C00004
C00004
C00004
C0000C
C00008
C00010
C00060
FFFF80
ENDCHAR
STARTCHAR 0043
ENCODING 67
SWIDTH 600 0
DWIDTH 30 0
BBX 24 37 3 -1
BITMAP
000400
00FFC0
038030
060008
0C0004
180002
100003
300001
200000
200000
400000
400000
400000
400000
400000
400000
400000
C00000
C00000
C00000
400000
400000
400000
400000
400000
400000
400000
200000
200000
200001
100001
180002
0C0004
06000C
030030
00F3E0
001E00
ENDCHAR
STARTCHAR 0044
ENCODING 68
SWIDTH 640 0
DWIDTH 32 0
BBX 24 35 5 0
BITMAP
FFFE00
C00380
C00060
C00030
C00008
C0000C
C00004
C00002
C00002
C00002
C00001
C00001
C00001
C00001
C00001
C00001
C00001
C00001
C00001
C00001
C00001
C00001
C00001
C00001
C00001
C00002
C00002
C00002
C00004
C0000C
C00008
C00010
C00060
C001C0
FFFE00
ENDCHAR
STARTCHAR 0045
ENCODING 69
SWIDTH 560 0
DWIDTH 28 0
BBX 19 35 5 0
BITMAP
FFFFE0
C00000
C00000
C00000
C00000
C00000
C00000
C00000
C00000
C00000
C00000
C00000
C00000
C00000
C00000
C00000
C00000
FFFFE0
C00000
C00000
C00000
C00000
C00000
C00000
C00000
C00000
C00000
C00000
C00000
C00000
C00000
C00000
C00000
C00000
FFFFE0
ENDCHAR
STARTCHAR 0046
ENCODING 70
SWIDTH 520 0
DWIDTH 26 0
BBX 19 35 5 0
BITMAP
FFFFE0
C00000
C00000
C00000
C00000
C00000
C00000
C00000
C00000
C00000
C00000
C00000
C00000
C00000
C00000
C00000
C00000
FFFFC0
C00000
C00000
C00000
C00000
C00000
C00000
C00000
C00000
C00000
C00000
C00000
C00000
C00000
C00000
C00000
C00000
C00000
ENDCHAR
STARTCHAR 0047
ENCODING 71
SWIDTH 660 0
DWIDTH 33 0
BBX 26 36 3 0
BITMAP
007FE000
01801800
06000400
0C000200
08000100
10000080
30000080
20000000
20000000
60000000
40000000
40000000
40000000
40000000
40000000
40000000
C0000000
C0000000
C000FFC0
40000040
40000040
40000040
40000040
40000040
40000040
60000040
20000040
20000040
30000040
100000C0
08000140
0C000140
06000640
03800C40
00F9F040
00060000
ENDCHAR
STARTCHAR 0048
ENCODING 72
SWIDTH 680 0
DWIDTH 34 0
BBX 24 35 5 0
BITMAP
C00001
C00001
C00001
C00001
C00001
C00001
C00001
C00001
C00001
C00001
C00001
C00001
C00001
C00001
C00001
C00001
C00001
FFFFFF
C00001
C00001
C00001
C00001
C00001
C00001
C00001
C00001
C00001
C00001
C00001
C00001
C00001
C00001
C00001
C00001
C00001
ENDCHAR
STARTCHAR 0049
ENCODING 73
SWIDTH 360 0
DWIDTH 18 0
BBX 12 35 3 0
BITMAP
FFF0
0200
0200
0200
0200
0200
0200
0200
0200
0200
0200
0200
0200
0200
0200
0200
0200
0200
0200
0200
0200
0200
0200
0200
0200
0200
0200
0200
0200
0200
0200
0200
0200
0200
FFF0
ENDCHAR
STARTCHAR 004A
ENCODING 74
SWIDTH 460 0
DWIDTH 23 0
BBX 17 36 1 -1
BITMAP
0FFF80
000080
000080
000080
000080
000080
000080
000080
000080
000080
000080
000080
000080
000080
000080
000080
000080
000080
000080
000080
000080
000080
000080
000080
000080
000080
000080
000080
000080
800080
C00180
400100
200200
100600
0F3800
00C000
ENDCHAR
STARTCHAR 004B
ENCODING 75
SWIDTH 560 0
DWIDTH 28 0
BBX 22 35 5 0
BITMAP
C00004
C00008
C00010
C00020
C00040
C000C0
C00180
C00300
C00600
C00C00
C00800
C01000
C02000
C04000
C08000
C18000
C24000
C66000
CC2000
D81000
F00800
E00C00
C00400
C00200
C00300
C00100
C00080
C000C0
C00040
C00020
C00030
C00010
C00008
C0000C
C00004
ENDCHAR
STARTCHAR 004C
ENCODING 76
SWIDTH 460 0
DWIDTH 23 0
BBX 18 35 5 0
BITMAP
C00000
C00000
C00000
C00000
C00000
C00000
C00000
C00000
C00000
C00000
C00000
C00000
C00000
C00000
C00000
C00000
C00000
C00000
C00000
C00000
C00000
C00000
C00000
C00000
C00000
C00000
C00000
C00000
C00000
C00000
C00000
C00000
C00000
C00000
FFFFC0
ENDCHAR
STARTCHAR 004D
ENCODING 77
SWIDTH 780 0
DWIDTH 39 0
BBX 29 35 5 0
BITMAP
C0000018
A0000018
B0000038
90000028
88000048
880000C8
84000088
86000108
82000108
81000208
81000608
80800408
80C00808
80400808
80201008
80203008
80102008
80184008
80084008
80048008
80058008
80030008
80020008
80000008
80000008
80000008
80000008
80000008
80000008
80000008
80000008
80000008
80000008
80000008
80000008
ENDCHAR
STARTCHAR 004E
ENCODING 78
SWIDTH 680 0
DWIDTH 34 0
BBX 24 35 5 0
BITMAP
C00001
A00001
B00001
900001
980001
880001
840001
860001
820001
810001
818001
808001
804001
804001
802001
803001
801001
800801
800C01
800401
800201
800201
800101
800181
800081
800041
800061
800021
800011
800011
800009
80000D
800005
800003
800003
ENDCHAR
STARTCHAR 004F
ENCODING 79
SWIDTH 680 0
DWIDTH 34 0
BBX 27 36 3 0
BITMAP
007FE000
01801800
06000600
0C000300
08000100
10000080
300000C0
20000040
20000040
60000060
40000020
40000020
40000020
40000020
40000020
40000020
C0000020
C0000020
C0000020
40000020
40000020
40000020
40000020
40000020
40000020
60000060
20000040
20000040
300000C0
10000080
08000100
0C000300
06000600
03801C00
00F9F000
00060000
ENDCHAR
STARTCHAR 0050
ENCODING 80
SWIDTH 580 0
DWIDTH 29 0
BBX 23 35 5 0
BITMAP
FFFF80
C000E0
C00030
C00008
C00008
C00004
C00004
C00004
C00004
C00006
C00004
C00004
C00004
C00004
C00008
C00008
C00030
C000E0
FFFF80
C00000
C00000
C00000
C00000
C00000
C00000
C00000
C00000
C00000
C00000
C00000
C00000
C00000
C00000
C00000
C00000
ENDCHAR
STARTCHAR 0051
ENCODING 81
SWIDTH 680 0
DWIDTH 34 0
BBX 27 42 3 -6
BITMAP
007FE000
01801800
06000600
0C000300
08000100
10000080
300000C0
20000040
20000040
60000060
40000020
40000020
40000020
40000020
40000020
40000020
C0000020
C0000020
C0000020
40000020
40000020
40000020
40000020
40000020
40000020
60000060
20000040
20000040
300000C0
10000080
08000100
0C000300
06000600
03801C00
00F9F000
00060000
00060000
00060000
00060000
00060000
00060000
0003F000
ENDCHAR
STARTCHAR 0052
ENCODING 82
SWIDTH 620 0
DWIDTH 31 0
BBX 23 35 5 0
BITMAP
FFFF80
C000E0
C00030
C00008
C00008
C00004
C00004
C00004
C00004
C00006
C00004
C00004
C00004
C00004
C00008
C00008
C00030
C000E0
FFFF80
C00400
C00600
C00200
C00100
C00100
C00080
C000C0
C00040
C00020
C00020
C00010
C00018
C00008
C00004
C00004
C00002
ENDCHAR
STARTCHAR 0053
ENCODING 83
SWIDTH 540 0
DWIDTH 27 0
BBX 21 36 3 0
BITMAP
07FF00
1800C0
200020
400010
400008
800000
800000
800000
800000
800000
800000
C00000
400000
600000
300000
0C0000
03C000
003E00
000380
000060
000030
000010
000008
000008
000008
000008
000008
000008
000008
000008
800018
C00010
600020
1800C0
07CF00
003000
ENDCHAR
STARTCHAR 0054
ENCODING 84
SWIDTH 560 0
DWIDTH 28 0
BBX 26 35 1 0
BITMAP
FFFFFFC0
000C0000
000C0000
000C0000
000C0000
000C0000
000C0000
000C0000
000C0000
000C0000
000C0000
000C0000
000C0000
000C0000
000C0000
000C0000
000C0000
000C0000
000C0000
000C0000
000C0000
000C0000
000C0000
000C0000
000C0000
000C0000
000C0000
000C0000
000C0000
000C0000
000C0000
000C0000
000C0000
000C0000
000C0000
ENDCHAR
STARTCHAR 0055
ENCODING 85
SWIDTH 640 0
DWIDTH 32 0
BBX 23 36 5 -1
BITMAP
800006
800006
800006
800006
800006
800006
800006
800006
800006
800006
800006
800006
800006
800006
800006
800006
800006
800006
800006
800006
800006
800006
800006
800006
800004
800004
800004
C00004
400004
40000C
600008
200018
100010
0C0060
07C780
003C00
ENDCHAR
STARTCHAR 0056
ENCODING 86
SWIDTH 560 0
DWIDTH 28 0
BBX 25 35 2 0
BITMAP
80000080
80000180
C0000100
40000100
40000200
60000200
20000200
20000400
30000400
10000400
10000800
18000800
08000800
08001000
0C001000
04001000
04002000
06002000
02002000
02004000
01004000
01004000
01008000
00808000
00818000
00810000
00410000
00430000
00420000
00220000
00260000
00240000
00140000
001C0000
00180000
ENDCHAR
STARTCHAR 0057
ENCODING 87
SWIDTH 860 0
DWIDTH 43 0
BBX 40 35 2 0
BITMAP
8000180001
8000180001
8000280002
C0002C0002
4000240002
4000640006
4000440004
6000420004
2000420004
200082000C
2000830008
1000810008
1000810008
1001010018
1801008010
0801008010
0802008010
0802008020
0C02004020
0402004020
0404004020
0404002040
0604002040
020C002040
02080020C0
0208001080
0108001080
0110001080
0110001980
0110000900
00B0000900
00A0000900
00A0000600
00E0000600
0040000600
ENDCHAR
STARTCHAR 0058
ENCODING 88
SWIDTH 540 0
DWIDTH 27 0
BBX 24 35 2 0
BITMAP
800003
400002
600004
20000C
100008
180010
080030
040020
060040
0200C0
010080
018100
008300
004200
006400
002C00
001800
001800
003C00
002400
004200
00C300
008100
010080
0300C0
020040
040020
0C0030
080010
100008
30000C
200004
400002
C00003
800001
ENDCHAR
STARTCHAR 0059
ENCODING 89
SWIDTH 540 0
DWIDTH 27 0
BBX 25 35 1 0
BITMAP
C0000080
40000100
60000100
20000200
10000600
18000400
08000800
0C000800
04001000
02003000
03002000
01004000
01804000
00808000
00418000
00610000
00220000
00320000
00140000
000C0000
00080000
00080000
00080000
00080000
00080000
00080000
00080000
00080000
00080000
00080000
00080000
00080000
00080000
00080000
00080000
ENDCHAR
STARTCHAR 005A
ENCODING 90
SWIDTH 540 0
DWIDTH 27 0
BBX 24 35 2 0
BITMAP
7FFFFE
000002
000004
00000C
000008
000010
000030
000020
000040
0000C0
000080
000100
000300
000200
000400
000C00
000800
001000
003000
002000
004000
00C000
008000
010000
030000
020000
040000
0C0000
080000
100000
300000
200000
400000
C00000
FFFFFF
ENDCHAR
STARTCHAR 005B
ENCODING 91
SWIDTH 300 0
DWIDTH 15 0
BBX 7 45 5 -7
BITMAP
FE
80
80
80
80
80
80
80
80
80
80
80
80
80
80
80
80
80
80
80
80
80
80
80
80
80
80
80
80
80
80
80
80
80
80
80
80
80
80
80
80
80
80
80
FE
ENDCHAR
STARTCHAR 005C
ENCODING 92
SWIDTH 300 0
DWIDTH 15 0
BBX 13 45 2 -8
BITMAP
8000
8000
4000
4000
4000
4000
2000
2000
2000
1000
1000
1000
1000
0800
0800
0800
0800
0400
0400
0400
0400
0200
0200
0200
0200
0100
0100
0100
0100
0080
0080
0080
0040
0040
0040
0040
0020
0020
0020
0020
0010
0010
0010
0010
0008
ENDCHAR
STARTCHAR 005D
ENCODING 93
SWIDTH 300 0
DWIDTH 15 0
BBX 7 45 3 -7
BITMAP
FE
02
02
02
02
02
02
02
02
02
02
02
02
02
02
02
02
02
02
02
02
02
02
02
02
02
02
02
02
02
02
02
02
02
02
02
02
02
02
02
02
02
02
02
FE
ENDCHAR
STARTCHAR 005E
ENCODING 94
SWIDTH 600 0
DWIDTH 30 0
BBX 22 19 4 16
BITMAP
003000
003000
004800
00CC00
008400
010200
010200
020100
060180
040080
080040
080040
100020
300030
200010
400008
400008
800004
800004
ENDCHAR
STARTCHAR 005F
ENCODING 95
SWIDTH 560 0
DWIDTH 28 0
BBX 26 1 1 -7
BITMAP
FFFFFFC0
ENDCHAR
STARTCHAR 0060
ENCODING 96
SWIDTH 600 0
DWIDTH 30 0
BBX 6 7 10 30
BITMAP
C0
60
20
10
18
08
04
ENDCHAR
STARTCHAR 0061
ENCODING 97
SWIDTH 500 0
DWIDTH 25 0
BBX 22 27 3 -1
BITMAP
03F800
0C0600
100300
200180
400080
400080
0000C0
000040
000040
000040
000040
000040
03FFC0
1C0040
200040
400040
400040
800040
800040
800040
8000C0
8000C0
400140
400140
200640
1E787C
018000
ENDCHAR
STARTCHAR 0062
ENCODING 98
SWIDTH 560 0
DWIDTH 28 0
BBX 20 38 5 -1
BITMAP
800000
800000
800000
800000
800000
800000
800000
800000
800000
800000
800000
81F800
8E0600
980180
A000C0
C00040
C00020
800020
800030
800010
800010
800010
800010
800010
800010
800010
800010
800010
800010
800010
800020
C00020
C00060
A00040
B00080
980100
870E00
007000
ENDCHAR
STARTCHAR 0063
ENCODING 99
SWIDTH 480 0
DWIDTH 24 0
BBX 19 27 3 -1
BITMAP
01F800
060700
080180
1000C0
200040
600000
400000
400000
C00000
800000
800000
800000
800000
800000
800000
800000
800000
800000
400000
400000
400000
200020
200020
100040
0C0180
038E00
006000
ENDCHAR
STARTCHAR 0064
ENCODING 100
SWIDTH 560 0
DWIDTH 28 0
BBX 20 38 3 -1
BITMAP
000010
000010
000010
000010
000010
000010
000010
000010
000010
000010
000010
01FC10
060310
080090
100050
200030
600030
400010
400010
C00010
800010
800010
800010
800010
800010
800010
800010
800010
800010
400010
400010
400010
200030
200030
100050
0C0190
038E10
006000
ENDCHAR
STARTCHAR 0065
ENCODING 101
SWIDTH 520 0
DWIDTH 26 0
BBX 21 27 3 -1
BITMAP
01F800
060700
080180
1000C0
200060
600020
400030
400010
C00010
800010
800018
800018
FFFFF8
800000
800000
800000
800000
800000
400000
400000
400010
200020
200020
100040
0C0180
038F00
006000
ENDCHAR
STARTCHAR 0066
ENCODING 102
SWIDTH 280 0
DWIDTH 14 0
BBX 12 37 1 0
BITMAP
07F0
0400
0400
0400
0400
0400
0400
0400
0400
0400
0400
0400
FFF0
0400
0400
0400
0400
0400
0400
0400
0400
0400
0400
0400
0400
0400
0400
0400
0400
0400
0400
0400
0400
0400
0400
0400
0400
ENDCHAR
STARTCHAR 0067
ENCODING 103
SWIDTH 520 0
DWIDTH 26 0
BBX 22 39 3 -11
BITMAP
0000FC
000080
01F880
060680
080180
100080
200040
200040
200020
200020
600020
200020
200020
200040
200040
100080
080180
060200
07FC00
080000
300000
200000
200000
200000
300000
1FFE00
1801E0
200018
400008
800004
800004
800004
800004
800004
800008
400018
200020
1E0780
016000
ENDCHAR
STARTCHAR 0068
ENCODING 104
SWIDTH 540 0
DWIDTH 27 0
BBX 18 37 5 0
BITMAP
800000
800000
800000
800000
800000
800000
800000
800000
800000
800000
800000
83F000
8C0E00
900300
A00180
C00080
C00080
800040
800040
800040
800040
800040
800040
800040
800040
800040
800040
800040
800040
800040
800040
800040
800040
800040
800040
800040
800040
ENDCHAR
STARTCHAR 0069
ENCODING 105
SWIDTH 220 0
DWIDTH 11 0
BBX 2 36 5 0
BITMAP
C0
C0
00
00
00
00
00
00
00
00
00
80
80
80
80
80
80
80
80
80
80
80
80
80
80
80
80
80
80
80
80
80
80
80
80
80
ENDCHAR
STARTCHAR 006A
ENCODING 106
SWIDTH 220 0
DWIDTH 11 0
BBX 6 46 1 -10
BITMAP
0C
0C
00
00
00
00
00
00
00
00
00
08
08
08
08
08
08
08
08
08
08
08
08
08
08
08
08
08
08
08
08
08
08
08
08
08
08
08
08
08
08
08
08
08
08
F8
ENDCHAR
STARTCHAR 006B
ENCODING 107
SWIDTH 480 0
DWIDTH 24 0
BBX 18 37 5 0
BITMAP
800000
800000
800000
800000
800000
800000
800000
800000
800000
800000
800000
800000
800180
800200
800400
800800
801000
802000
804000
808000
810000
820000
860000
8A0000
910000
A08000
C0C000
806000
803000
801000
800800
800400
800600
800300
800100
800080
800040
ENDCHAR
STARTCHAR 006C
ENCODING 108
SWIDTH 240 0
DWIDTH 12 0
BBX 6 37 5 0
BITMAP
80
80
80
80
80
80
80
80
80
80
80
80
80
80
80
80
80
80
80
80
80
80
80
80
80
80
80
80
80
80
80
80
80
80
80
80
7C
ENDCHAR
STARTCHAR 006D
ENCODING 109
SWIDTH 860 0
DWIDTH 43 0
BBX 34 26 5 0
BITMAP
03F003F800
8C0C0C0E00
9002100300
A001200180
C000A00080
C000C00040
8000C00040
8000400040
8000400040
8000400040
8000400040
8000400040
8000400040
8000400040
8000400040
8000400040
8000400040
8000400040
8000400040
8000400040
8000400040
8000400040
8000400040
8000400040
8000400040
8000400040
ENDCHAR
STARTCHAR 006E
ENCODING 110
SWIDTH 540 0
DWIDTH 27 0
BBX 18 26 5 0
BITMAP
03F000
8C0E00
900300
A00180
C00080
C00080
800040
800040
800040
800040
800040
800040
800040
800040
800040
800040
800040
800040
800040
800040
800040
800040
800040
800040
800040
800040
ENDCHAR
STARTCHAR 006F
ENCODING 111
SWIDTH 540 0
DWIDTH 27 0
BBX 21 27 3 -1
BITMAP
01FC00
060300
080080
100040
200020
600030
400010
400010
C00018
800008
800008
800008
800008
800008
800008
800008
800008
800008
400010
400010
400010
200020
200020
100040
0C0180
038E00
007000
ENDCHAR
STARTCHAR 0070
ENCODING 112
SWIDTH 560 0
DWIDTH 28 0
BBX 20 36 5 -10
BITMAP
01F800
8E0600
980180
A000C0
C00040
C00020
800020
800030
800010
800010
800010
800010
800010
800010
800010
800010
800010
800010
800010
800020
C00020
C00060
A00040
B00080
980100
870E00
807000
800000
800000
800000
800000
800000
800000
800000
800000
800000
ENDCHAR
STARTCHAR 0071
ENCODING 113
SWIDTH 560 0
DWIDTH 28 0
BBX 20 36 3 -10
BITMAP
01FC00
060310
080090
100050
200030
600030
400010
400010
C00010
800010
800010
800010
800010
800010
800010
800010
800010
800010
400010
400010
400010
200030
200030
100050
0C0190
038E10
006010
000010
000010
000010
000010
000010
000010
000010
000010
000010
ENDCHAR
STARTCHAR 0072
ENCODING 114
SWIDTH 340 0
DWIDTH 17 0
BBX 11 25 5 0
BITMAP
87E0
9800
B000
A000
C000
C000
8000
8000
8000
8000
8000
8000
8000
8000
8000
8000
8000
8000
8000
8000
8000
8000
8000
8000
8000
ENDCHAR
STARTCHAR 0073
ENCODING 115
SWIDTH 460 0
DWIDTH 23 0
BBX 17 27 3 -1
BITMAP
07F000
180C00
200200
400100
400000
800000
800000
800000
C00000
400000
600000
300000
0F0000
00F800
000600
000300
000100
000080
000080
000080
000080
000080
800080
400100
300200
1E3C00
00E000
ENDCHAR
STARTCHAR 0074
ENCODING 116
SWIDTH 300 0
DWIDTH 15 0
BBX 12 33 1 0
BITMAP
0400
0400
0400
0400
0400
0400
0400
0400
FFF0
0400
0400
0400
0400
0400
0400
0400
0400
0400
0400
0400
0400
0400
0400
0400
0400
0400
0400
0400
0400
0400
0400
0400
03F0
ENDCHAR
STARTCHAR 0075
ENCODING 117
SWIDTH 540 0
DWIDTH 27 0
BBX 18 26 5 -1
BITMAP
8000C0
8000C0
8000C0
8000C0
8000C0
8000C0
8000C0
8000C0
8000C0
8000C0
8000C0
8000C0
8000C0
8000C0
8000C0
8000C0
8000C0
8000C0
8000C0
8000C0
C000C0
4001C0
6001C0
3006C0
0E38C0
018000
ENDCHAR
STARTCHAR 0076
ENCODING 118
SWIDTH 440 0
DWIDTH 22 0
BBX 19 25 2 0
BITMAP
800020
800020
800040
400040
400040
400080
200080
200100
100100
100100
100200
080200
080200
080400
040400
040800
060800
020800
021000
011000
011000
012000
00A000
00A000
00C000
ENDCHAR
STARTCHAR 0077
ENCODING 119
SWIDTH 720 0
DWIDTH 36 0
BBX 32 25 2 0
BITMAP
80018001
80018001
40014001
40024002
40024002
20024002
20042004
20042004
20042004
1004100C
10081008
10081008
08080808
08100810
08100810
04100410
04200420
04200420
04200620
02400240
02400240
02400240
01400140
01800180
01800180
ENDCHAR
STARTCHAR 0078
ENCODING 120
SWIDTH 460 0
DWIDTH 23 0
BBX 19 25 2 0
BITMAP
C00020
400040
2000C0
100080
180100
080200
040600
020400
030800
011000
00B000
006000
006000
00A000
019000
010800
020C00
040400
0C0200
080100
100100
300080
200040
400060
800020
ENDCHAR
STARTCHAR 0079
ENCODING 121
SWIDTH 440 0
DWIDTH 22 0
BBX 19 35 2 -10
BITMAP
800020
800020
800040
400040
400040
400080
200080
200100
100100
100100
100200
080200
080200
080400
040400
040800
060800
020800
021000
011000
011000
012000
00A000
00A000
00C000
004000
008000
008000
008000
010000
010000
030000
020000
020000
7C0000
ENDCHAR
STARTCHAR 007A
ENCODING 122
SWIDTH 400 0
DWIDTH 20 0
BBX 19 25 1 0
BITMAP
7FFFC0
000040
000080
000100
000300
000200
000400
000800
000800
001000
002000
006000
004000
008000
010000
030000
020000
040000
080000
080000
100000
200000
600000
400000
FFFFE0
ENDCHAR
STARTCHAR 007B
ENCODING 123
SWIDTH 300 0
DWIDTH 15 0
BBX 11 45 1 -7
BITMAP
07E0
0400
0400
0400
0400
0400
0400
0400
0400
0400
0400
0400
0400
0400
0400
0400
0400
0400
0400
0C00
1800
F000
8000
F000
1800
0C00
0400
0400
0400
0400
0400
0400
0400
0400
0400
0400
0400
0400
0400
0400
0400
0400
0400
0400
07E0
ENDCHAR
STARTCHAR 007C
ENCODING 124
SWIDTH 220 0
DWIDTH 11 0
BBX 1 45 5 -7
BITMAP
80
80
80
80
80
80
80
80
80
80
80
80
80
80
80
80
80
80
80
80
80
80
80
80
80
80
80
80
80
80
80
80
80
80
80
80
80
80
80
80
80
80
80
80
80
ENDCHAR
STARTCHAR 007D
ENCODING 125
SWIDTH 300 0
DWIDTH 15 0
BBX 12 45 3 -7
BITMAP
FC00
0200
0200
0200
0200
0200
0200
0200
0200
0200
0200
0200
0200
0200
0200
0200
0200
0200
0200
0200
0100
00F0
0010
00F0
0100
0200
0200
0200
0200
0200
0200
0200
0200
0200
0200
0200
0200
0200
0200
0200
0200
0200
0200
0200
FC00
ENDCHAR
STARTCHAR 007E
ENCODING 126
SWIDTH 600 0
DWIDTH 30 0
BBX 22 5 4 13
BITMAP
0C0000
738000
807000
001C0C
0003F0
ENDCHAR
STARTCHAR 00A0
ENCODING 160
SWIDTH 220 0
DWIDTH 11 0
BBX 0 0 0 0
BITMAP
ENDCHAR
STARTCHAR 00A1
ENCODING 161
SWIDTH 240 0
DWIDTH 12 0
BBX 3 35 5 -9
BITMAP
E0
E0
00
00
00
00
00
00
40
40
40
40
40
40
40
40
40
40
40
40
40
40
40
40
40
40
40
40
40
40
40
40
40
40
40
ENDCHAR
STARTCHAR 00A2
ENCODING 162
SWIDTH 480 0
DWIDTH 24 0
BBX 19 37 3 -6
BITMAP
002000
002000
002000
002000
002000
01F800
062700
082180
1020C0
202040
602000
402000
402000
C02000
802000
802000
802000
802000
802000
802000
802000
802000
802000
402000
402000
402000
202020
202020
102040
0C2180
07AF00
006000
002000
002000
002000
002000
002000
ENDCHAR
STARTCHAR 00A3
ENCODING 163
SWIDTH 560 0
DWIDTH 28 0
BBX 23 35 3 1
BITMAP
00FFC0
030070
060018
0C000C
080004
100002
100000
100000
100000
100000
100000
100000
100000
100000
180000
080000
080000
040000
FFFF80
040000
020000
020000
020000
020000
020000
020000
020000
060000
040000
040000
080000
180000
100000
600000
7FFFFE
ENDCHAR
STARTCHAR 00A4
ENCODING 164
SWIDTH 580 0
DWIDTH 29 0
BBX 27 27 1 4
BITMAP
80000020
40000040
20000080
107FC100
09803200
07000E00
02000C00
04000400
04000200
08000200
08000200
08000200
08000200
08000200
08000200
08000200
08000200
08000200
04000200
04000400
02000C00
07000C00
09803200
1079E100
200C0080
40000040
80000020
ENDCHAR
STARTCHAR 00A5
ENCODING 165
SWIDTH 580 0
DWIDTH 29 0
BBX 23 35 3 0
BITMAP
800002
C00002
400004
60000C
200008
100010
180030
080020
040040
040040
020080
030180
010100
008200
00C600
004400
002800
002800
7FFFFC
001000
001000
001000
001000
001000
001000
001000
7FFFFC
001000
001000
001000
001000
001000
001000
001000
001000
ENDCHAR
STARTCHAR 00A6
ENCODING 166
SWIDTH 220 0
DWIDTH 11 0
BBX 1 45 5 -7
BITMAP
80
80
80
80
80
80
80
80
80
80
80
80
80
80
80
80
80
80
00
00
00
00
00
00
00
00
00
80
80
80
80
80
80
80
80
80
80
80
80
80
80
80
80
80
80
ENDCHAR
STARTCHAR 00A7
ENCODING 167
SWIDTH 560 0
DWIDTH 28 0
BBX 20 43 4 -7
BITMAP
03FF00
0C00C0
180040
100000
200000
200000
200000
200000
200000
100000
180000
0C0000
030000
0CE000
101C00
200300
4000C0
400060
800020
800030
800010
800010
400010
400010
600030
300020
0C0060
0380C0
00F100
001E00
000300
000180
000080
000040
000040
000040
000040
000040
0000C0
200080
300100
0E0E00
01E000
ENDCHAR
STARTCHAR 00A8
ENCODING 168
SWIDTH 600 0
DWIDTH 30 0
BBX 12 3 9 32
BITMAP
4020
E070
4030
ENDCHAR
STARTCHAR 00A9
ENCODING 169
SWIDTH 700 0
DWIDTH 35 0
BBX 32 36 2 0
BITMAP
003FFC00
00C00700
03000180
04000040
08000020
10000010
10000008
20000008
400FE004
40101004
40200802
80400402
80400002
80400002
80800001
80800001
80800001
80800001
80800001
80800001
80800003
80800002
80400002
80400402
40200802
40101804
400C6004
20038008
30000008
10000010
08000020
04000060
03000080
00C00300
003C3C00
0001C000
ENDCHAR
STARTCHAR 00AA
ENCODING 170
SWIDTH 340 0
DWIDTH 17 0
BBX 14 17 2 18
BITMAP
1FC0
2060
4030
0010
0010
0010
0010
0010
1FF0
6010
8010
8010
8010
8010
C030
6050
3F9C
ENDCHAR
STARTCHAR 00AB
ENCODING 171
SWIDTH 460 0
DWIDTH 23 0
BBX 19 19 2 5
BITMAP
004020
008040
010080
020100
0C0600
180C00
301800
603000
C06000
804000
C06000
201000
100800
080400
040200
020100
0180C0
00C060
004020
ENDCHAR
STARTCHAR 00AC
ENCODING 172
SWIDTH 600 0
DWIDTH 30 0
BBX 23 11 3 5
BITMAP
FFFFFE
000002
000002
000002
000002
000002
000002
000002
000002
000002
000002
ENDCHAR
STARTCHAR 00AD
ENCODING 173
SWIDTH 380 0
DWIDTH 19 0
BBX 12 1 4 15
BITMAP
FFF0
ENDCHAR
STARTCHAR 00AE
ENCODING 174
SWIDTH 460 0
DWIDTH 23 0
BBX 20 20 2 16
BITMAP
07FC00
180300
300080
200040
400040
83F820
820820
820420
820420
820810
83E010
821020
821020
820820
420420
400040
200080
100100
0C0600
03F800
ENDCHAR
STARTCHAR 00AF
ENCODING 175
SWIDTH 600 0
DWIDTH 30 0
BBX 12 1 9 33
BITMAP
FFF0
ENDCHAR
STARTCHAR 00B0
ENCODING 176
SWIDTH 460 0
DWIDTH 23 0
BBX 16 16 4 20
BITMAP
0FF0
3018
6004
4006
8002
8002
8001
8001
8001
8001
8002
8002
4004
600C
1018
0FE0
ENDCHAR
STARTCHAR 00B1
ENCODING 177
SWIDTH 600 0
DWIDTH 30 0
BBX 24 30 3 0
BITMAP
001800
001800
001800
001800
001800
001800
001800
001800
001800
001800
001800
001800
FFFFFF
001800
001800
001800
001800
001800
001800
001800
001800
001800
001800
001800
000000
000000
000000
000000
000000
FFFFFF
ENDCHAR
STARTCHAR 00B2
ENCODING 178
SWIDTH 340 0
DWIDTH 17 0
BBX 13 19 2 16
BITMAP
1FC0
2020
4010
8010
0010
0010
0010
0010
0020
0020
0040
0180
0300
0400
0800
1000
6000
8000
FFF8
ENDCHAR
STARTCHAR 00B3
ENCODING 179
SWIDTH 340 0
DWIDTH 17 0
BBX 12 19 2 16
BITMAP
1FC0
6020
4010
0010
0010
0010
0010
0020
0380
0DC0
0020
0010
0010
0010
0010
0010
C030
2060
1F80
ENDCHAR
STARTCHAR 00B4
ENCODING 180
SWIDTH 600 0
DWIDTH 30 0
BBX 6 7 14 30
BITMAP
0C
18
10
20
40
40
80
ENDCHAR
STARTCHAR 00B5
ENCODING 181
SWIDTH 560 0
DWIDTH 28 0
BBX 18 35 5 -10
BITMAP
800040
800040
800040
800040
800040
800040
800040
800040
800040
800040
800040
800040
800040
800040
800040
800040
800040
800040
C00040
C00040
C000C0
E000C0
A00140
900240
8E3C40
80C000
800000
800000
800000
800000
800000
800000
800000
800000
800000
ENDCHAR
STARTCHAR 00B6
ENCODING 182
SWIDTH 580 0
DWIDTH 29 0
BBX 22 42 3 -7
BITMAP
03FFFC
0FE040
1FE040
3FE040
7FE040
FFE040
FFE040
FFE040
FFE040
FFE040
FFE040
FFE040
FFE040
FFE040
7FE040
3FE040
1FE040
07E040
006040
006040
006040
006040
006040
006040
006040
006040
006040
006040
006040
006040
006040
006040
006040
006040
006040
006040
006040
006040
006040
006040
006040
006040
ENDCHAR
STARTCHAR 00B7
ENCODING 183
SWIDTH 280 0
DWIDTH 14 0
BBX 3 3 6 14
BITMAP
40
E0
E0
ENDCHAR
STARTCHAR 00B8
ENCODING 184
SWIDTH 600 0
DWIDTH 30 0
BBX 9 10 11 -10
BITMAP
1000
1000
1000
1000
0F00
0100
0180
0100
C100
3E00
ENDCHAR
STARTCHAR 00B9
ENCODING 185
SWIDTH 360 0
DWIDTH 18 0
BBX 14 19 2 16
BITMAP
0300
0500
0900
1100
2100
C100
0100
0100
0100
0100
0100
0100
0100
0100
0100
0100
0100
0100
7FFC
ENDCHAR
STARTCHAR 00BA
ENCODING 186
SWIDTH 360 0
DWIDTH 18 0
BBX 14 17 2 18
BITMAP
0FC0
1030
2010
4008
4008
4004
8004
8004
8004
8004
8004
4004
4008
4008
2010
1030
0FC0
ENDCHAR
STARTCHAR 00BB
ENCODING 187
SWIDTH 460 0
DWIDTH 23 0
BBX 19 18 3 5
BITMAP
804000
C06000
603000
100800
080400
040200
020100
010080
00C060
004020
0180C0
030180
060300
0C0600
180C00
301800
402000
804000
ENDCHAR
STARTCHAR 00BC
ENCODING 188
SWIDTH 840 0
DWIDTH 42 0
BBX 39 35 2 0
BITMAP
0300000180
0500000100
0900000200
1100000200
2100000400
C100000800
0100000800
0100001000
0100002000
0100002000
0100004000
010000C000
0100008000
0100010000
0100010000
0100020000
0100040000
0100040030
7FFC080050
0000100090
0000100110
0000200110
0000600210
0000400410
0000800810
0001801810
0001001010
0002002010
0002004010
0004008010
000800FFFE
0008000010
0010000010
0020000010
0020000010
ENDCHAR
STARTCHAR 00BD
ENCODING 189
SWIDTH 880 0
DWIDTH 44 0
BBX 40 35 2 0
BITMAP
0300000180
0500000100
0900000200
1100000200
2100000400
C100000800
0100000800
0100001000
0100002000
0100002000
0100004000
010000C000
0100008000
0100010000
0100010000
0100020000
01000400E0
010004070C
7FFC080804
0000100802
0000101002
0000200002
0000600002
0000400002
0000800002
0001800004
0001000008
0002000010
0002000020
0004000040
0008000180
0008000200
0010000400
0020000800
0020001FFF
ENDCHAR
STARTCHAR 00BE
ENCODING 190
SWIDTH 800 0
DWIDTH 40 0
BBX 37 35 2 0
BITMAP
1FC0000200
6020000400
4010000C00
0010000800
0010001000
0010003000
0010002000
0020004000
0380004000
0DC0008000
0020010000
0010010000
0010020000
0010040000
0010040000
0010080000
C030180000
20601000C0
1F80200140
0000600240
0000400240
0000800440
0000800840
0001001040
0002003040
0002002040
0004004040
000C008040
0008010040
0010010040
003003FFF8
0020000040
0040000040
0040000040
0080000040
ENDCHAR
STARTCHAR 00BF
ENCODING 191
SWIDTH 440 0
DWIDTH 22 0
BBX 19 35 2 -9
BITMAP
007000
007000
000000
000000
000000
000000
000000
000000
002000
002000
002000
002000
002000
002000
002000
002000
00E000
070000
180000
300000
600000
400000
800000
800000
800000
800000
800000
800000
800020
800040
400040
400080
200100
180600
07F800
ENDCHAR
STARTCHAR 00C0
ENCODING 192
SWIDTH 600 0
DWIDTH 30 0
BBX 26 46 2 1
BITMAP
00C00000
00600000
00200000
00100000
00180000
00080000
00040000
00000000
00000000
00000000
00000000
000C0000
000C0000
00120000
00120000
00120000
00210000
00210000
00210000
00408000
00408000
00C0C000
00804000
00804000
01806000
01002000
01002000
02001000
02001000
02001000
04000800
04000800
0C000C00
0FFFFC00
08000400
18000600
10000200
10000200
20000100
20000100
20000100
40000080
40000080
C0000080
80000040
80000040
ENDCHAR
STARTCHAR 00C1
ENCODING 193
SWIDTH 600 0
DWIDTH 30 0
BBX 26 46 2 1
BITMAP
0000C000
00018000
00010000
00020000
00040000
00040000
00080000
00000000
00000000
00000000
00000000
000C0000
000C0000
00120000
00120000
00120000
00210000
00210000
00210000
00408000
00408000
00C0C000
00804000
00804000
01806000
01002000
01002000
02001000
02001000
02001000
04000800
04000800
0C000C00
0FFFFC00
08000400
18000600
10000200
10000200
20000100
20000100
20000100
40000080
40000080
C0000080
80000040
80000040
ENDCHAR
STARTCHAR 00C2
ENCODING 194
SWIDTH 600 0
DWIDTH 30 0
BBX 26 46 2 0
BITMAP
000C0000
00120000
00210000
00408000
00804000
01002000
02001000
00000000
00000000
00000000
00000000
000C0000
000C0000
00120000
00120000
00120000
00210000
00210000
00210000
00408000
00408000
00C0C000
00804000
00804000
01806000
01002000
01002000
02001000
02001000
02001000
04000800
04000800
0C000C00
0FFFFC00
08000400
18000600
10000200
10000200
20000100
20000100
20000100
40000080
40000080
C0000080
80000040
80000040
ENDCHAR
STARTCHAR 00C3
ENCODING 195
SWIDTH 600 0
DWIDTH 30 0
BBX 26 44 2 0
BITMAP
01F00000
02081000
00077000
0000C000
00000000
00000000
00000000
00000000
00000000
000C0000
000C0000
00120000
00120000
00120000
00210000
00210000
00210000
00408000
00408000
00C0C000
00804000
00804000
01806000
01002000
01002000
02001000
02001000
02001000
04000800
04000800
0C000C00
0FFFFC00
08000400
18000600
10000200
10000200
20000100
20000100
20000100
40000080
40000080
C0000080
80000040
80000040
ENDCHAR
STARTCHAR 00C4
ENCODING 196
SWIDTH 600 0
DWIDTH 30 0
BBX 26 43 2 0
BITMAP
01C0E000
01806000
00000000
00000000
00000000
00000000
00000000
00000000
000C0000
000C0000
00120000
00120000
00120000
00210000
00210000
00210000
00408000
00408000
00C0C000
00804000
00804000
01806000
01002000
01002000
02001000
02001000
02001000
04000800
04000800
0C000C00
0FFFFC00
08000400
18000600
10000200
10000200
20000100
20000100
20000100
40000080
40000080
C0000080
80000040
80000040
ENDCHAR
STARTCHAR 00C5
ENCODING 197
SWIDTH 600 0
DWIDTH 30 0
BBX 26 47 2 1
BITMAP
00330000
00408000
00408000
00408000
00408000
00408000
00408000
00330000
00000000
00000000
00000000
00000000
000C0000
000C0000
00120000
00120000
00120000
00210000
00210000
00210000
00408000
00408000
00C0C000
00804000
00804000
01806000
01002000
01002000
02001000
02001000
02001000
04000800
04000800
0C000C00
0FFFFC00
08000400
18000600
10000200
10000200
20000100
20000100
20000100
40000080
40000080
C0000080
80000040
80000040
ENDCHAR
STARTCHAR 00C6
ENCODING 198
SWIDTH 860 0
DWIDTH 43 0
BBX 39 35 0 0
BITMAP
00001FFFFE
00003C0000
00002C0000
00006C0000
00004C0000
00008C0000
00008C0000
00010C0000
00010C0000
00020C0000
00020C0000
00040C0000
000C0C0000
00080C0000
00180C0000
00100C0000
00200C0000
00200FFFFE
00400C0000
00400C0000
00800C0000
01800C0000
01FFFC0000
03000C0000
02000C0000
06000C0000
04000C0000
08000C0000
08000C0000
10000C0000
10000C0000
20000C0000
60000C0000
40000C0000
C0000FFFFE
ENDCHAR
STARTCHAR 00C7
ENCODING 199
SWIDTH 600 0
DWIDTH 30 0
BBX 24 46 3 -10
BITMAP
000400
00FFC0
038030
060008
0C0004
180002
100003
300001
200000
200000
400000
400000
400000
400000
400000
400000
400000
C00000
C00000
C00000
400000
400000
400000
400000
400000
400000
400000
200000
200000
200001
100001
180002
0C0004
060008
030030
00F3E0
000E00
000400
000400
000800
000780
000040
000040
000040
0020C0
001F00
ENDCHAR
STARTCHAR 00C8
ENCODING 200
SWIDTH 560 0
DWIDTH 28 0
BBX 19 46 5 1
BITMAP
060000
030000
010000
008000
00C000
004000
002000
000000
000000
000000
000000
FFFFE0
C00000
C00000
C00000
C00000
C00000
C00000
C00000
C00000
C00000
C00000
C00000
C00000
C00000
C00000
C00000
C00000
FFFFE0
C00000
C00000
C00000
C00000
C00000
C00000
C00000
C00000
C00000
C00000
C00000
C00000
C00000
C00000
C00000
C00000
FFFFE0
ENDCHAR
STARTCHAR 00C9
ENCODING 201
SWIDTH 560 0
DWIDTH 28 0
BBX 19 46 5 1
BITMAP
000600
000C00
000800
001000
002000
002000
004000
000000
000000
000000
000000
FFFFE0
C00000
C00000
C00000
C00000
C00000
C00000
C00000
C00000
C00000
C00000
C00000
C00000
C00000
C00000
C00000
C00000
FFFFE0
C00000
C00000
C00000
C00000
C00000
C00000
C00000
C00000
C00000
C00000
C00000
C00000
C00000
C00000
C00000
C00000
FFFFE0
ENDCHAR
STARTCHAR 00CA
ENCODING 202
SWIDTH 560 0
DWIDTH 28 0
BBX 19 46 5 0
BITMAP
006000
009000
010800
020400
040200
080100
100080
000000
000000
000000
000000
FFFFE0
C00000
C00000
C00000
C00000
C00000
C00000
C00000
C00000
C00000
C00000
C00000
C00000
C00000
C00000
C00000
C00000
FFFFE0
C00000
C00000
C00000
C00000
C00000
C00000
C00000
C00000
C00000
C00000
C00000
C00000
C00000
C00000
C00000
C00000
FFFFE0
ENDCHAR
STARTCHAR 00CB
ENCODING 203
SWIDTH 560 0
DWIDTH 28 0
BBX 19 43 5 0
BITMAP
0E0700
0C0300
000000
000000
000000
000000
000000
000000
FFFFE0
C00000
C00000
C00000
C00000
C00000
C00000
C00000
C00000
C00000
C00000
C00000
C00000
C00000
C00000
C00000
C00000
FFFFE0
C00000
C00000
C00000
C00000
C00000
C00000
C00000
C00000
C00000
C00000
C00000
C00000
C00000
C00000
C00000
C00000
FFFFE0
ENDCHAR
STARTCHAR 00CC
ENCODING 204
SWIDTH 360 0
DWIDTH 18 0
BBX 12 46 3 1
BITMAP
2000
3000
1800
0800
0400
0600
0200
0000
0000
0000
0000
FFF0
0200
0200
0200
0200
0200
0200
0200
0200
0200
0200
0200
0200
0200
0200
0200
0200
0200
0200
0200
0200
0200
0200
0200
0200
0200
0200
0200
0200
0200
0200
0200
0200
0200
FFF0
ENDCHAR
STARTCHAR 00CD
ENCODING 205
SWIDTH 360 0
DWIDTH 18 0
BBX 12 46 3 1
BITMAP
0060
0040
0080
0180
0100
0200
0400
0400
0000
0000
0000
FFF0
0200
0200
0200
0200
0200
0200
0200
0200
0200
0200
0200
0200
0200
0200
0200
0200
0200
0200
0200
0200
0200
0200
0200
0200
0200
0200
0200
0200
0200
0200
0200
0200
0200
FFF0
ENDCHAR
STARTCHAR 00CE
ENCODING 206
SWIDTH 360 0
DWIDTH 18 0
BBX 14 46 2 0
BITMAP
0380
0680
0C40
1820
3010
6008
C004
0000
0000
0000
0000
7FF8
0100
0100
0100
0100
0100
0100
0100
0100
0100
0100
0100
0100
0100
0100
0100
0100
0100
0100
0100
0100
0100
0100
0100
0100
0100
0100
0100
0100
0100
0100
0100
0100
0100
7FF8
ENDCHAR
STARTCHAR 00CF
ENCODING 207
SWIDTH 360 0
DWIDTH 18 0
BBX 12 43 3 0
BITMAP
6030
6030
0000
0000
0000
0000
0000
0000
FFF0
0200
0200
0200
0200
0200
0200
0200
0200
0200
0200
0200
0200
0200
0200
0200
0200
0200
0200
0200
0200
0200
0200
0200
0200
0200
0200
0200
0200
0200
0200
0200
0200
0200
FFF0
ENDCHAR
STARTCHAR 00D0
ENCODING 208
SWIDTH 660 0
DWIDTH 33 0
BBX 29 35 1 0
BITMAP
07FFE000
04003C00
04000600
04000100
04000080
04000040
04000040
04000020
04000020
04000030
04000010
04000010
04000010
04000010
04000010
04000010
FFFC0018
04000018
04000018
04000010
04000010
04000010
04000010
04000010
04000010
04000030
04000020
04000020
04000040
04000040
04000080
04000100
04000600
04001C00
07FFE000
ENDCHAR
STARTCHAR 00D1
ENCODING 209
SWIDTH 680 0
DWIDTH 34 0
BBX 24 44 5 0
BITMAP
03E000
061810
000660
000100
000000
000000
000000
000000
000000
C00001
A00001
B00001
900001
980001
880001
840001
860001
820001
810001
818001
808001
804001
804001
802001
803001
801001
800801
800C01
800401
800201
800201
800101
800181
800081
800041
800061
800021
800011
800011
800009
80000D
800005
800003
800003
ENDCHAR
STARTCHAR 00D2
ENCODING 210
SWIDTH 680 0
DWIDTH 34 0
BBX 27 47 3 0
BITMAP
00600000
00300000
00100000
00080000
000C0000
00040000
00020000
00000000
00000000
00000000
00000000
007FE000
01801800
06000600
0C000300
08000100
10000080
300000C0
20000040
20000040
60000060
40000020
40000020
40000020
40000020
40000020
40000020
C0000020
C0000020
C0000020
40000020
40000020
40000020
40000020
40000020
40000020
60000060
20000040
20000040
300000C0
10000080
08000100
0C000300
06000600
03801C00
00F9F000
00060000
ENDCHAR
STARTCHAR 00D3
ENCODING 211
SWIDTH 680 0
DWIDTH 34 0
BBX 27 47 3 0
BITMAP
00006000
0000C000
00008000
00010000
00020000
00020000
00040000
00000000
00000000
00000000
00000000
007FE000
01801800
06000600
0C000300
08000100
10000080
300000C0
20000040
20000040
60000060
40000020
40000020
40000020
40000020
40000020
40000020
C0000020
C0000020
C0000020
40000020
40000020
40000020
40000020
40000020
40000020
60000060
20000040
20000040
300000C0
10000080
08000100
0C000300
06000600
03801C00
00F9F000
00060000
ENDCHAR
STARTCHAR 00D4
ENCODING 212
SWIDTH 680 0
DWIDTH 34 0
BBX 27 47 3 -1
BITMAP
00060000
00090000
00108000
00204000
00402000
00801000
01000800
00000000
00000000
00000000
00000000
007FE000
01801800
06000600
0C000300
08000100
10000080
300000C0
20000040
20000040
60000060
40000020
40000020
40000020
40000020
40000020
40000020
C0000020
C0000020
C0000020
40000020
40000020
40000020
40000020
40000020
40000020
60000060
20000040
20000040
300000C0
10000080
08000100
0C000300
06000600
03801C00
00F9F000
00060000
ENDCHAR
STARTCHAR 00D5
ENCODING 213
SWIDTH 680 0
DWIDTH 34 0
BBX 27 45 3 -1
BITMAP
00F80000
01040800
0003B800
00006000
00000000
00000000
00000000
00000000
00000000
007FE000
01801800
06000600
0C000300
08000100
10000080
300000C0
20000040
20000040
60000060
40000020
40000020
40000020
40000020
40000020
40000020
C0000020
C0000020
C0000020
40000020
40000020
40000020
40000020
40000020
40000020
60000060
20000040
20000040
300000C0
10000080
08000100
0C000300
06000600
03801C00
00F9F000
00060000
ENDCHAR
STARTCHAR 00D6
ENCODING 214
SWIDTH 680 0
DWIDTH 34 0
BBX 27 44 3 -1
BITMAP
00E07000
00C03000
00000000
00000000
00000000
00000000
00000000
00000000
007FE000
01801800
06000600
0C000300
08000100
10000080
300000C0
20000040
20000040
60000060
40000020
40000020
40000020
40000020
40000020
40000020
C0000020
C0000020
C0000020
40000020
40000020
40000020
40000020
40000020
40000020
60000060
20000040
20000040
300000C0
10000080
08000100
0C000300
06000600
03801C00
00F9F000
00060000
ENDCHAR
STARTCHAR 00D7
ENCODING 215
SWIDTH 600 0
DWIDTH 30 0
BBX 20 19 5 5
BITMAP
800010
400020
200040
100080
080100
040200
020400
010800
009000
006000
006000
009000
010800
020400
040200
080100
100080
200040
400020
ENDCHAR
STARTCHAR 00D8
ENCODING 216
SWIDTH 680 0
DWIDTH 34 0
BBX 27 37 3 -1
BITMAP
00000020
007FE040
01801840
06000680
0C000300
08000300
10000280
30000480
20000C40
20000840
60001060
40003020
40002020
40004020
40008020
40018020
40010020
C0020020
C0060020
C0040020
40080020
40180020
40100020
40200020
40400020
40C00020
60800060
21000040
23000040
320000C0
14000080
0C000100
0C000300
16000600
31801C00
20F9F000
40060000
ENDCHAR
STARTCHAR 00D9
ENCODING 217
SWIDTH 640 0
DWIDTH 32 0
BBX 23 47 5 0
BITMAP
010000
018000
00C000
004000
002000
003000
001000
000000
000000
000000
000000
800006
800006
800006
800006
800006
800006
800006
800006
800006
800006
800006
800006
800006
800006
800006
800006
800006
800006
800006
800006
800006
800006
800006
800006
800004
800004
800004
C00004
400004
40000C
600008
200018
100010
0C0060
07C780
003C00
ENDCHAR
STARTCHAR 00DA
ENCODING 218
SWIDTH 640 0
DWIDTH 32 0
BBX 23 47 5 0
BITMAP
000300
000200
000400
000800
001800
001000
002000
000000
000000
000000
000000
800006
800006
800006
800006
800006
800006
800006
800006
800006
800006
800006
800006
800006
800006
800006
800006
800006
800006
800006
800006
800006
800006
800006
800006
800004
800004
800004
C00004
400004
40000C
600008
200018
100010
0C0060
07C780
003C00
ENDCHAR
STARTCHAR 00DB
ENCODING 219
SWIDTH 640 0
DWIDTH 32 0
BBX 23 47 5 -1
BITMAP
003000
004800
008400
010200
020100
040080
0C0040
000000
000000
000000
000000
800006
800006
800006
800006
800006
800006
800006
800006
800006
800006
800006
800006
800006
800006
800006
800006
800006
800006
800006
800006
800006
800006
800006
800006
800004
800004
800004
C00004
400004
40000C
600008
200018
100010
0C0060
07C780
003C00
ENDCHAR
STARTCHAR 00DC
ENCODING 220
SWIDTH 640 0
DWIDTH 32 0
BBX 23 44 5 -1
BITMAP
030180
030180
000000
000000
000000
000000
000000
000000
800006
800006
800006
800006
800006
800006
800006
800006
800006
800006
800006
800006
800006
800006
800006
800006
800006
800006
800006
800006
800006
800006
800006
800006
800004
800004
800004
C00004
400004
40000C
600008
200018
100010
0C0060
07C780
003C00
ENDCHAR
STARTCHAR 00DD
ENCODING 221
SWIDTH 540 0
DWIDTH 27 0
BBX 25 46 1 1
BITMAP
00008000
00010000
00030000
00020000
00040000
00080000
00180000
00000000
00000000
00000000
00000000
C0000080
40000100
60000100
20000200
10000600
18000400
08000800
0C000800
04001000
02003000
03002000
01004000
01804000
00808000
00418000
00610000
00220000
00320000
00140000
000C0000
00080000
00080000
00080000
00080000
00080000
00080000
00080000
00080000
00080000
00080000
00080000
00080000
00080000
00080000
00080000
ENDCHAR
STARTCHAR 00DE
ENCODING 222
SWIDTH 580 0
DWIDTH 29 0
BBX 23 35 5 0
BITMAP
C00000
C00000
C00000
C00000
C00000
C00000
C00000
C00000
FFFF80
C00060
C00010
C00008
C0000C
C00004
C00004
C00004
C00004
C00006
C00004
C00004
C00004
C00004
C00008
C00018
C00030
C000E0
FFFF00
C00000
C00000
C00000
C00000
C00000
C00000
C00000
C00000
ENDCHAR
STARTCHAR 00DF
ENCODING 223
SWIDTH 640 0
DWIDTH 32 0
BBX 28 39 2 -1
BITMAP
00060000
0038E000
00C01800
01800C00
03000400
02000200
02000200
04000100
04000100
04000100
04000100
04000100
04000100
FC007F00
0401C000
04030000
04020000
04040000
04040000
04040000
04040000
04040000
04020000
04018000
0400F000
04000E00
04000180
04000040
04000020
04000020
04000010
04000010
04000010
04000010
04300020
04180020
040C00C0
0403C780
00001000
ENDCHAR
STARTCHAR 00E0
ENCODING 224
SWIDTH 500 0
DWIDTH 25 0
BBX 22 39 3 -1
BITMAP
040000
040000
020000
030000
010000
008000
004000
006000
002000
000000
000000
000000
03F800
0C0600
100300
200180
400080
400080
0000C0
000040
000040
000040
000040
000040
03FFC0
1C0040
200040
400040
400040
800040
800040
800040
8000C0
8000C0
400140
400140
200640
1E787C
018000
ENDCHAR
STARTCHAR 00E1
ENCODING 225
SWIDTH 500 0
DWIDTH 25 0
BBX 22 38 3 0
BITMAP
000400
000800
001800
003000
002000
004000
008000
008000
000000
000000
000000
03F800
0C0600
100300
200180
400080
400080
0000C0
000040
000040
000040
000040
000040
03FFC0
1C0040
200040
400040
400040
800040
800040
800040
8000C0
8000C0
400140
400140
200640
1E787C
018000
ENDCHAR
STARTCHAR 00E2
ENCODING 226
SWIDTH 500 0
DWIDTH 25 0
BBX 22 38 3 -1
BITMAP
00E000
01B000
031800
060C00
0C0600
180300
300180
000000
000000
000000
000000
03F800
0C0600
100300
200180
400080
400080
0000C0
000040
000040
000040
000040
000040
03FFC0
1C0040
200040
400040
400040
800040
800040
800040
8000C0
8000C0
400140
400140
200640
1E787C
018000
ENDCHAR
STARTCHAR 00E3
ENCODING 227
SWIDTH 500 0
DWIDTH 25 0
BBX 22 36 3 -1
BITMAP
0F0000
30C080
003300
000000
000000
000000
000000
000000
000000
03F800
0C0600
100300
200180
400080
400080
0000C0
000040
000040
000040
000040
000040
03FFC0
1C0040
200040
400040
400040
800040
800040
800040
8000C0
8000C0
400140
400140
200640
1E787C
018000
ENDCHAR
STARTCHAR 00E4
ENCODING 228
SWIDTH 500 0
DWIDTH 25 0
BBX 22 35 3 0
BITMAP
0C0600
0C0600
000000
000000
000000
000000
000000
000000
03F800
0C0600
100300
200180
400080
400080
0000C0
000040
000040
000040
000040
000040
03FFC0
1C0040
200040
400040
400040
800040
800040
800040
8000C0
8000C0
400140
400140
200640
1E787C
018000
ENDCHAR
STARTCHAR 00E5
ENCODING 229
SWIDTH 500 0
DWIDTH 25 0
BBX 22 40 3 -1
BITMAP
004000
03B800
020800
040400
040400
040400
040400
020800
039800
006000
000000
000000
000000
03F800
0C0600
100300
200180
400080
400080
0000C0
000040
000040
000040
000040
000040
03FFC0
1C0040
200040
400040
400040
800040
800040
800040
8000C0
8000C0
400140
400140
200640
1E787C
018000
ENDCHAR
STARTCHAR 00E6
ENCODING 230
SWIDTH 860 0
DWIDTH 43 0
BBX 37 27 3 -1
BITMAP
03F000FC00
0C0C070300
30030C0080
2001100040
4000900020
4000A00020
0000A00010
0000C00010
0000C00008
0000C00008
0000C00008
0000C00008
03FFFFFFF8
1C00C00000
2000C00000
4000C00000
8000C00000
8000C00000
8000C00000
8000C00000
8000A00010
8000A00010
8001100020
4003180060
20060C0080
1E78038F00
0180003000
ENDCHAR
STARTCHAR 00E7
ENCODING 231
SWIDTH 480 0
DWIDTH 24 0
BBX 19 36 3 -10
BITMAP
01F800
060700
080180
1000C0
200040
600000
400000
400000
C00000
800000
800000
800000
800000
800000
800000
800000
800000
800000
400000
400000
400000
200020
200020
100040
0C0180
078F00
007000
002000
004000
004000
003C00
000200
000200
000200
010400
00F800
ENDCHAR
STARTCHAR 00E8
ENCODING 232
SWIDTH 520 0
DWIDTH 26 0
BBX 21 39 3 -1
BITMAP
020000
020000
010000
018000
008000
004000
002000
003000
001000
000000
000000
000000
01F800
060700
080180
1000C0
200060
600020
400030
400010
C00010
800010
800018
800018
FFFFF8
800000
800000
800000
800000
800000
400000
400000
400010
200020
200020
100040
0C0180
038F00
006000
ENDCHAR
STARTCHAR 00E9
ENCODING 233
SWIDTH 520 0
DWIDTH 26 0
BBX 21 38 3 0
BITMAP
000200
000400
000800
001800
001000
002000
004000
004000
000000
000000
000000
01F800
060700
080180
1000C0
200060
600020
400030
400010
C00010
800010
800018
800018
FFFFF8
800000
800000
800000
800000
800000
400000
400000
400010
200020
200020
100040
0C0180
038F00
006000
ENDCHAR
STARTCHAR 00EA
ENCODING 234
SWIDTH 520 0
DWIDTH 26 0
BBX 21 38 3 -1
BITMAP
007000
00D800
018C00
030600
060300
0C0180
180080
000000
000000
000000
000000
01F800
060700
080180
1000C0
200060
600020
400030
400010
C00010
800010
800018
800018
FFFFF8
800000
800000
800000
800000
800000
400000
400000
400010
200020
200020
100040
0C0180
038F00
006000
ENDCHAR
STARTCHAR 00EB
ENCODING 235
SWIDTH 520 0
DWIDTH 26 0
BBX 21 35 3 0
BITMAP
060300
060300
000000
000000
000000
000000
000000
000000
01F800
060700
080180
1000C0
200060
600020
400030
400010
C00010
800010
800018
800018
FFFFF8
800000
800000
800000
800000
800000
400000
400000
400010
200020
200020
100040
0C0180
038F00
006000
ENDCHAR
STARTCHAR 00EC
ENCODING 236
SWIDTH 220 0
DWIDTH 11 0
BBX 6 37 1 1
BITMAP
C0
40
20
30
10
08
04
00
00
00
00
00
08
08
08
08
08
08
08
08
08
08
08
08
08
08
08
08
08
08
08
08
08
08
08
08
08
ENDCHAR
STARTCHAR 00ED
ENCODING 237
SWIDTH 220 0
DWIDTH 11 0
BBX 5 37 5 1
BITMAP
08
18
30
20
40
C0
80
00
00
00
00
00
80
80
80
80
80
80
80
80
80
80
80
80
80
80
80
80
80
80
80
80
80
80
80
80
80
ENDCHAR
STARTCHAR 00EE
ENCODING 238
SWIDTH 220 0
DWIDTH 11 0
BBX 14 37 -1 0
BITMAP
0300
0480
0840
1020
2010
4008
8004
0000
0000
0000
0000
0000
0200
0200
0200
0200
0200
0200
0200
0200
0200
0200
0200
0200
0200
0200
0200
0200
0200
0200
0200
0200
0200
0200
0200
0200
0200
ENDCHAR
STARTCHAR 00EF
ENCODING 239
SWIDTH 220 0
DWIDTH 11 0
BBX 12 34 0 1
BITMAP
C070
C060
0000
0000
0000
0000
0000
0000
0000
0400
0400
0400
0400
0400
0400
0400
0400
0400
0400
0400
0400
0400
0400
0400
0400
0400
0400
0400
0400
0400
0400
0400
0400
0400
ENDCHAR
STARTCHAR 00F0
ENCODING 240
SWIDTH 540 0
DWIDTH 27 0
BBX 21 38 3 0
BITMAP
020180
018200
004C00
003800
003000
00C800
010400
060200
000100
000100
000080
000040
01FC40
060340
0800A0
100060
200030
600030
400010
400010
800008
800008
800008
800008
800008
800008
800008
800008
800008
400010
400010
400010
200020
200060
100040
0C0180
038E00
002000
ENDCHAR
STARTCHAR 00F1
ENCODING 241
SWIDTH 540 0
DWIDTH 27 0
BBX 18 35 5 0
BITMAP
1F0000
20C080
003300
000800
000000
000000
000000
000000
000000
03F000
8C0E00
900300
A00180
C00080
C00080
800040
800040
800040
800040
800040
800040
800040
800040
800040
800040
800040
800040
800040
800040
800040
800040
800040
800040
800040
800040
ENDCHAR
STARTCHAR 00F2
ENCODING 242
SWIDTH 540 0
DWIDTH 27 0
BBX 21 38 3 0
BITMAP
020000
010000
018000
00C000
004000
002000
001000
001000
000000
000000
000000
01FC00
060300
080080
100040
200020
600030
400010
400010
C00018
800008
800008
800008
800008
800008
800008
800008
800008
800008
400010
400010
400010
200020
200020
100040
0C0180
038E00
007000
ENDCHAR
STARTCHAR 00F3
ENCODING 243
SWIDTH 540 0
DWIDTH 27 0
BBX 21 39 3 -1
BITMAP
000200
000200
000400
000C00
000800
001000
002000
006000
004000
000000
000000
000000
01FC00
060300
080080
100040
200020
600030
400010
400010
C00018
800008
800008
800008
800008
800008
800008
800008
800008
800008
400010
400010
400010
200020
200020
100040
0C0180
038E00
007000
ENDCHAR
STARTCHAR 00F4
ENCODING 244
SWIDTH 540 0
DWIDTH 27 0
BBX 21 38 3 -1
BITMAP
007000
00D800
018C00
030600
060300
0C0180
0800C0
000000
000000
000000
000000
01FC00
060300
080080
100040
200020
600030
400010
400010
C00018
800008
800008
800008
800008
800008
800008
800008
800008
800008
400010
400010
400010
200020
200020
100040
0C0180
038E00
007000
ENDCHAR
STARTCHAR 00F5
ENCODING 245
SWIDTH 540 0
DWIDTH 27 0
BBX 21 36 3 -1
BITMAP
078000
186040
001980
000200
000000
000000
000000
000000
000000
01FC00
060300
080080
100040
200020
600030
400010
400010
C00018
800008
800008
800008
800008
800008
800008
800008
800008
800008
400010
400010
400010
200020
200020
100040
0C0180
038E00
007000
ENDCHAR
STARTCHAR 00F6
ENCODING 246
SWIDTH 540 0
DWIDTH 27 0
BBX 21 36 3 -1
BITMAP
000100
060300
060300
000000
000000
000000
000000
000000
000000
01FC00
060300
080080
100040
200020
600030
400010
400010
C00018
800008
800008
800008
800008
800008
800008
800008
800008
800008
400010
400010
400010
200020
200020
100040
0C0180
038E00
007000
ENDCHAR
STARTCHAR 00F7
ENCODING 247
SWIDTH 600 0
DWIDTH 30 0
BBX 24 22 3 5
BITMAP
003C00
003C00
000000
000000
000000
000000
000000
000000
000000
000000
FFFFFF
000000
000000
000000
000000
000000
000000
000000
000000
003C00
003C00
001800
ENDCHAR
STARTCHAR 00F8
ENCODING 248
SWIDTH 540 0
DWIDTH 27 0
BBX 23 28 2 -1
BITMAP
000002
007E04
03818C
040068
080030
100030
100048
2000C8
200088
200104
400204
400404
400C04
400804
401004
402004
404004
408004
618004
210004
220008
240008
180018
180010
1C0020
2600C0
41C380
801C00
ENDCHAR
STARTCHAR 00F9
ENCODING 249
SWIDTH 540 0
DWIDTH 27 0
BBX 18 38 5 0
BITMAP
0C0000
040000
020000
030000
010000
008000
004000
004000
000000
000000
000000
000000
8000C0
8000C0
8000C0
8000C0
8000C0
8000C0
8000C0
8000C0
8000C0
8000C0
8000C0
8000C0
8000C0
8000C0
8000C0
8000C0
8000C0
8000C0
8000C0
8000C0
C000C0
4001C0
6001C0
3006C0
0E38C0
018000
ENDCHAR
STARTCHAR 00FA
ENCODING 250
SWIDTH 540 0
DWIDTH 27 0
BBX 18 38 5 0
BITMAP
000800
001000
003000
002000
004000
008000
008000
000000
000000
000000
000000
000000
8000C0
8000C0
8000C0
8000C0
8000C0
8000C0
8000C0
8000C0
8000C0
8000C0
8000C0
8000C0
8000C0
8000C0
8000C0
8000C0
8000C0
8000C0
8000C0
8000C0
C000C0
4001C0
6001C0
3006C0
0E38C0
018000
ENDCHAR
STARTCHAR 00FB
ENCODING 251
SWIDTH 540 0
DWIDTH 27 0
BBX 18 38 5 -1
BITMAP
01C000
036000
023000
041800
080C00
100600
200300
000000
000000
000000
000000
000000
8000C0
8000C0
8000C0
8000C0
8000C0
8000C0
8000C0
8000C0
8000C0
8000C0
8000C0
8000C0
8000C0
8000C0
8000C0
8000C0
8000C0
8000C0
8000C0
8000C0
C000C0
4001C0
6001C0
3006C0
0E38C0
018000
ENDCHAR
STARTCHAR 00FC
ENCODING 252
SWIDTH 540 0
DWIDTH 27 0
BBX 18 36 5 -1
BITMAP
080000
180C00
180C00
000000
000000
000000
000000
000000
000000
000000
8000C0
8000C0
8000C0
8000C0
8000C0
8000C0
8000C0
8000C0
8000C0
8000C0
8000C0
8000C0
8000C0
8000C0
8000C0
8000C0
8000C0
8000C0
8000C0
8000C0
C000C0
4001C0
6001C0
3006C0
0E38C0
018000
ENDCHAR
STARTCHAR 00FD
ENCODING 253
SWIDTH 440 0
DWIDTH 22 0
BBX 19 47 2 -9
BITMAP
000400
000800
001000
003000
002000
004000
008000
008000
000000
000000
000000
000000
800020
800020
800040
400040
400040
400080
200080
200100
100100
100100
100200
080200
080200
080400
040400
040800
060800
020800
021000
011000
011000
012000
00A000
00A000
00C000
004000
008000
008000
008000
010000
010000
030000
020000
020000
7C0000
ENDCHAR
STARTCHAR 00FE
ENCODING 254
SWIDTH 560 0
DWIDTH 28 0
BBX 20 47 5 -10
BITMAP
800000
800000
800000
800000
800000
800000
800000
800000
800000
800000
800000
81F800
8E0600
980180
A000C0
C00040
C00020
800020
800030
800010
800010
800010
800010
800010
800010
800010
800010
800010
800010
800010
800020
C00020
C00060
A00040
B00080
980100
870E00
807000
800000
800000
800000
800000
800000
800000
800000
800000
800000
ENDCHAR
STARTCHAR 00FF
ENCODING 255
SWIDTH 440 0
DWIDTH 22 0
BBX 19 44 2 -9
BITMAP
0C0600
0C0600
000000
000000
000000
000000
000000
000000
000000
800020
800020
800040
400040
400040
400080
200080
200100
100100
100100
100200
080200
080200
080400
040400
040800
060800
020800
021000
011000
011000
012000
00A000
00A000
00C000
004000
008000
008000
008000
010000
010000
030000
020000
020000
7C0000
ENDCHAR
STARTCHAR 0100
ENCODING 256
SWIDTH 600 0
DWIDTH 30 0
BBX 26 43 2 0
BITMAP
01FFE000
00000000
00000000
00000000
00000000
00000000
00000000
00000000
000C0000
000C0000
00120000
00120000
00120000
00210000
00210000
00210000
00408000
00408000
00C0C000
00804000
00804000
01806000
01002000
01002000
02001000
02001000
02001000
04000800
04000800
0C000C00
0FFFFC00
08000400
18000600
10000200
10000200
20000100
20000100
20000100
40000080
40000080
C0000080
80000040
80000040
ENDCHAR
STARTCHAR 0101
ENCODING 257
SWIDTH 500 0
DWIDTH 25 0
BBX 22 35 3 -1
BITMAP
1FFF00
000000
000000
000000
000000
000000
000000
000000
03F800
0C0600
100300
200180
400080
400080
0000C0
000040
000040
000040
000040
000040
03FFC0
1C0040
200040
400040
400040
800040
800040
800040
8000C0
8000C0
400140
400140
200640
1E787C
018000
ENDCHAR
STARTCHAR 0102
ENCODING 258
SWIDTH 600 0
DWIDTH 30 0
BBX 26 45 2 1
BITMAP
01002000
01002000
00804000
00408000
00618000
000C0000
00000000
00000000
00000000
00000000
000C0000
000C0000
00120000
00120000
00120000
00210000
00210000
00210000
00408000
00408000
00C0C000
00804000
00804000
01806000
01002000
01002000
02001000
02001000
02001000
04000800
04000800
0C000C00
0FFFFC00
08000400
18000600
10000200
10000200
20000100
20000100
20000100
40000080
40000080
C0000080
80000040
80000040
ENDCHAR
STARTCHAR 0103
ENCODING 259
SWIDTH 500 0
DWIDTH 25 0
BBX 22 37 3 0
BITMAP
100100
080200
080200
040400
031800
00E000
000000
000000
000000
000000
03F800
0C0600
100300
200180
400080
400080
0000C0
000040
000040
000040
000040
000040
03FFC0
1C0040
200040
400040
400040
800040
800040
800040
8000C0
8000C0
400140
400140
200640
1E787C
018000
ENDCHAR
STARTCHAR 0104
ENCODING 260
SWIDTH 600 0
DWIDTH 30 0
BBX 28 45 2 -10
BITMAP
000C0000
000C0000
00160000
00120000
00120000
00210000
00210000
00210000
00408000
00408000
00C0C000
00804000
00804000
01806000
01002000
01002000
02001000
02001000
02001000
04000800
04000800
0C000C00
0FFFFC00
08000400
18000600
10000200
10000200
20000100
20000100
20000100
40000080
40000080
C0000080
80000040
80000040
000000C0
00000100
00000200
00000400
00000800
00000800
00000800
00000800
00000C30
000007C0
ENDCHAR
STARTCHAR 0105
ENCODING 261
SWIDTH 500 0
DWIDTH 25 0
BBX 23 36 3 -10
BITMAP
03F000
0C0E00
100300
200180
400080
400080
0000C0
000040
000040
000040
000040
000040
03FFC0
1C0040
200040
400040
400040
800040
800040
800040
8000C0
8000C0
400140
400140
200640
1E787C
018008
000030
000040
000080
000080
000100
000100
000100
000186
0000F8
ENDCHAR
STARTCHAR 0106
ENCODING 262
SWIDTH 600 0
DWIDTH 30 0
BBX 24 47 3 0
BITMAP
000040
000080
000100
000300
000200
000400
000800
000800
000000
000000
000400
00FFC0
038030
060008
0C0004
180002
100003
300001
200000
200000
400000
400000
400000
400000
400000
400000
400000
C00000
C00000
C00000
400000
400000
400000
400000
400000
400000
400000
200000
200000
200001
100001
180002
0C0004
06000C
030030
00F3E0
001E00
ENDCHAR
STARTCHAR 0107
ENCODING 263
SWIDTH 480 0
DWIDTH 24 0
BBX 19 39 3 -1
BITMAP
000200
000200
000400
000C00
000800
001000
002000
006000
004000
000000
000000
000000
01F800
060700
080180
1000C0
200040
600000
400000
400000
C00000
800000
800000
800000
800000
800000
800000
800000
800000
800000
400000
400000
400000
200020
200020
100040
0C0180
038E00
006000
ENDCHAR
STARTCHAR 0108
ENCODING 264
SWIDTH 600 0
DWIDTH 30 0
BBX 24 47 3 -1
BITMAP
000E00
001B00
003180
0060C0
00C060
018030
030010
000000
000000
000000
000400
00FFC0
038030
060008
0C0004
180002
100003
300001
200000
200000
400000
400000
400000
400000
400000
400000
400000
C00000
C00000
C00000
400000
400000
400000
400000
400000
400000
400000
200000
200000
200001
100001
180002
0C0004
06000C
030030
00F3E0
001E00
ENDCHAR
STARTCHAR 0109
ENCODING 265
SWIDTH 480 0
DWIDTH 24 0
BBX 19 38 3 -1
BITMAP
007000
00D800
018C00
030600
060300
0C0180
0800C0
000000
000000
000000
000000
01F800
060700
080180
1000C0
200040
600000
400000
400000
C00000
800000
800000
800000
800000
800000
800000
800000
800000
800000
400000
400000
400000
200020
200020
100040
0C0180
038E00
006000
ENDCHAR
STARTCHAR 010A
ENCODING 266
SWIDTH 600 0
DWIDTH 30 0
BBX 24 45 3 -1
BITMAP
000400
000E00
000400
000000
000000
000000
000000
000000
000400
00FFC0
038030
060008
0C0004
180002
100003
300001
200000
200000
400000
400000
400000
400000
400000
400000
400000
C00000
C00000
C00000
400000
400000
400000
400000
400000
400000
400000
200000
200000
200001
100001
180002
0C0004
06000C
030030
00F3E0
001E00
ENDCHAR
STARTCHAR 010B
ENCODING 267
SWIDTH 480 0
DWIDTH 24 0
BBX 19 36 3 -1
BITMAP
002000
007000
003000
000000
000000
000000
000000
000000
000000
01F800
060700
080180
1000C0
200040
600000
400000
400000
C00000
800000
800000
800000
800000
800000
800000
800000
800000
800000
400000
400000
400000
200020
200020
100040
0C0180
038E00
006000
ENDCHAR
STARTCHAR 010C
ENCODING 268
SWIDTH 600 0
DWIDTH 30 0
BBX 24 47 3 -1
BITMAP
010010
008020
004040
002080
001100
000A00
000400
000000
000000
000000
000400
00FFC0
038030
060008
0C0004
180002
100003
300001
200000
200000
400000
400000
400000
400000
400000
400000
400000
C00000
C00000
C00000
400000
400000
400000
400000
400000
400000
400000
200000
200000
200001
100001
180002
0C0004
06000C
030030
00F3E0
001E00
ENDCHAR
STARTCHAR 010D
ENCODING 269
SWIDTH 480 0
DWIDTH 24 0
BBX 19 38 3 -1
BITMAP
080080
040100
020200
010400
008800
005000
002000
000000
000000
000000
000000
01F800
060700
080180
1000C0
200040
600000
400000
400000
C00000
800000
800000
800000
800000
800000
800000
800000
800000
800000
400000
400000
400000
200020
200020
100040
0C0180
038E00
006000
ENDCHAR
STARTCHAR 010E
ENCODING 270
SWIDTH 640 0
DWIDTH 32 0
BBX 24 46 5 0
BITMAP
180180
0C0300
060600
030C00
019800
00F000
006000
000000
000000
000000
000000
FFFE00
C00380
C00060
C00030
C00008
C0000C
C00004
C00002
C00002
C00002
C00001
C00001
C00001
C00001
C00001
C00001
C00001
C00001
C00001
C00001
C00001
C00001
C00001
C00001
C00001
C00002
C00002
C00002
C00004
C0000C
C00008
C00010
C00060
C001C0
FFFE00
ENDCHAR
STARTCHAR 010F
ENCODING 271
SWIDTH 560 0
DWIDTH 28 0
BBX 26 38 3 -1
BITMAP
00001040
00001040
00001040
00001040
00001040
00001040
00001040
00001080
00001080
00001000
00001000
01FC1000
06031000
08009000
10005000
20003000
60003000
40001000
40001000
C0001000
80001000
80001000
80001000
80001000
80001000
80001000
80001000
80001000
80001000
40001000
40001000
40001000
20003000
20003000
10005000
0C019000
038E1000
00600000
ENDCHAR
STARTCHAR 0110
ENCODING 272
SWIDTH 660 0
DWIDTH 33 0
BBX 29 35 1 0
BITMAP
07FFE000
04003C00
04000600
04000100
04000080
04000040
04000040
04000020
04000020
04000030
04000010
04000010
04000010
04000010
04000010
04000010
FFFC0018
04000018
04000018
04000010
04000010
04000010
04000010
04000010
04000010
04000030
04000020
04000020
04000040
04000040
04000080
04000100
04000600
04001C00
07FFE000
ENDCHAR
STARTCHAR 0111
ENCODING 273
SWIDTH 560 0
DWIDTH 28 0
BBX 23 38 3 -1
BITMAP
000010
000010
000010
000010
000010
001FFE
000010
000010
000010
000010
000010
01FC10
060310
080090
100050
200030
600030
400010
400010
C00010
800010
800010
800010
800010
800010
800010
800010
800010
800010
400010
400010
400010
200030
200030
100050
0C0190
038E10
006000
ENDCHAR
STARTCHAR 0112
ENCODING 274
SWIDTH 560 0
DWIDTH 28 0
BBX 19 43 5 0
BITMAP
0FFF00
000000
000000
000000
000000
000000
000000
000000
FFFFE0
C00000
C00000
C00000
C00000
C00000
C00000
C00000
C00000
C00000
C00000
C00000
C00000
C00000
C00000
C00000
C00000
FFFFE0
C00000
C00000
C00000
C00000
C00000
C00000
C00000
C00000
C00000
C00000
C00000
C00000
C00000
C00000
C00000
C00000
FFFFE0
ENDCHAR
STARTCHAR 0113
ENCODING 275
SWIDTH 520 0
DWIDTH 26 0
BBX 21 35 3 -1
BITMAP
0FFF80
000000
000000
000000
000000
000000
000000
000000
01F800
060700
080180
1000C0
200060
600020
400030
400010
C00010
800010
800018
800018
FFFFF8
800000
800000
800000
800000
800000
400000
400000
400010
200020
200020
100040
0C0180
038F00
006000
ENDCHAR
STARTCHAR 0114
ENCODING 276
SWIDTH 560 0
DWIDTH 28 0
BBX 19 45 5 1
BITMAP
080100
080100
040200
020400
030C00
006000
000000
000000
000000
000000
FFFFE0
C00000
C00000
C00000
C00000
C00000
C00000
C00000
C00000
C00000
C00000
C00000
C00000
C00000
C00000
C00000
C00000
FFFFE0
C00000
C00000
C00000
C00000
C00000
C00000
C00000
C00000
C00000
C00000
C00000
C00000
C00000
C00000
C00000
C00000
FFFFE0
ENDCHAR
STARTCHAR 0115
ENCODING 277
SWIDTH 520 0
DWIDTH 26 0
BBX 21 37 3 0
BITMAP
080080
040100
040300
020200
018C00
007000
000000
000000
000000
000000
01F800
060700
080180
1000C0
200060
600020
400030
400010
C00010
800010
800018
800018
FFFFF8
800000
800000
800000
800000
800000
400000
400000
400010
200020
200020
100040
0C0180
038F00
006000
ENDCHAR
STARTCHAR 0116
ENCODING 278
SWIDTH 560 0
DWIDTH 28 0
BBX 19 43 5 1
BITMAP
006000
006000
000000
000000
000000
000000
000000
000000
FFFFE0
C00000
C00000
C00000
C00000
C00000
C00000
C00000
C00000
C00000
C00000
C00000
C00000
C00000
C00000
C00000
C00000
FFFFE0
C00000
C00000
C00000
C00000
C00000
C00000
C00000
C00000
C00000
C00000
C00000
C00000
C00000
C00000
C00000
C00000
FFFFE0
ENDCHAR
STARTCHAR 0117
ENCODING 279
SWIDTH 520 0
DWIDTH 26 0
BBX 21 36 3 -1
BITMAP
002000
007000
002000
000000
000000
000000
000000
000000
000000
01F800
060700
080180
1000C0
200060
600020
400030
400010
C00010
800010
800018
800018
FFFFF8
800000
800000
800000
800000
800000
400000
400000
400010
200020
200020
100040
0C0180
038F00
006000
ENDCHAR
STARTCHAR 0118
ENCODING 280
SWIDTH 560 0
DWIDTH 28 0
BBX 20 45 5 -10
BITMAP
FFFFE0
C00000
C00000
C00000
C00000
C00000
C00000
C00000
C00000
C00000
C00000
C00000
C00000
C00000
C00000
C00000
C00000
FFFFE0
C00000
C00000
C00000
C00000
C00000
C00000
C00000
C00000
C00000
C00000
C00000
C00000
C00000
C00000
C00000
C00000
FFFFE0
000060
000080
000100
000200
000400
000400
000C00
000400
000410
0003E0
ENDCHAR
STARTCHAR 0119
ENCODING 281
SWIDTH 520 0
DWIDTH 26 0
BBX 21 36 3 -10
BITMAP
01F800
060700
080180
1000C0
200060
600020
400030
400010
C00010
800010
800018
800018
FFFFF8
800000
800000
800000
800000
800000
400000
400000
400010
200020
200020
100040
0C0180
038F00
006400
000800
003000
002000
004000
004000
004000
004000
006100
003E00
ENDCHAR
STARTCHAR 011A
ENCODING 282
SWIDTH 560 0
DWIDTH 28 0
BBX 19 46 5 0
BITMAP
180180
0C0300
060600
030C00
019800
00F000
006000
000000
000000
000000
000000
FFFFE0
C00000
C00000
C00000
C00000
C00000
C00000
C00000
C00000
C00000
C00000
C00000
C00000
C00000
C00000
C00000
C00000
FFFFE0
C00000
C00000
C00000
C00000
C00000
C00000
C00000
C00000
C00000
C00000
C00000
C00000
C00000
C00000
C00000
C00000
FFFFE0
ENDCHAR
STARTCHAR 011B
ENCODING 283
SWIDTH 520 0
DWIDTH 26 0
BBX 21 38 3 -1
BITMAP
080080
040100
020200
010400
008800
005000
002000
000000
000000
000000
000000
01F800
060700
080180
1000C0
200060
600020
400030
400010
C00010
800010
800018
800018
FFFFF8
800000
800000
800000
800000
800000
400000
400000
400010
200020
200020
100040
0C0180
038F00
006000
ENDCHAR
STARTCHAR 011C
ENCODING 284
SWIDTH 660 0
DWIDTH 33 0
BBX 26 47 3 -1
BITMAP
00060000
00090000
00108000
00204000
00402000
00801000
01000800
00000000
00000000
00000000
00000000
007FE000
01801800
06000400
0C000200
08000100
10000080
30000080
20000000
20000000
60000000
40000000
40000000
40000000
40000000
40000000
40000000
C0000000
C0000000
C000FFC0
40000040
40000040
40000040
40000040
40000040
40000040
60000040
20000040
20000040
30000040
100000C0
08000140
0C000140
06000640
03800C40
00F9F040
00060000
ENDCHAR
STARTCHAR 011D
ENCODING 285
SWIDTH 520 0
DWIDTH 26 0
BBX 22 48 3 -11
BITMAP
006000
009000
010800
020400
040200
080100
180080
000000
000000
000000
000000
01F800
0607FC
080180
100080
200040
200040
200020
200020
600020
200020
200020
200040
200040
100080
080180
060200
07FC00
080000
300000
200000
200000
200000
300000
1FFE00
1801E0
200018
400008
800004
800004
800004
800004
800004
800008
400018
200020
1E0780
016000
ENDCHAR
STARTCHAR 011E
ENCODING 286
SWIDTH 660 0
DWIDTH 33 0
BBX 26 46 3 0
BITMAP
00801000
00801000
00402000
00204000
0030C000
00060000
00000000
00000000
00000000
00000000
007FE000
01801800
06000400
0C000200
08000100
10000080
30000080
20000000
20000000
60000000
40000000
40000000
40000000
40000000
40000000
40000000
C0000000
C0000000
C000FFC0
40000040
40000040
40000040
40000040
40000040
40000040
60000040
20000040
20000040
30000040
100000C0
08000140
0C000140
06000640
03800C40
00F9F040
00060000
ENDCHAR
STARTCHAR 011F
ENCODING 287
SWIDTH 520 0
DWIDTH 26 0
BBX 22 47 3 -10
BITMAP
080180
040100
040200
020600
018C00
00E000
000000
000000
000000
000000
01F800
0607FC
080180
100080
200040
200040
200020
200020
600020
200020
200020
200040
200040
100080
080180
060200
07FC00
080000
300000
200000
200000
200000
300000
1FFE00
1801E0
200018
400008
800004
800004
800004
800004
800004
800008
400018
200020
1E0780
016000
ENDCHAR
STARTCHAR 0120
ENCODING 288
SWIDTH 660 0
DWIDTH 33 0
BBX 26 44 3 0
BITMAP
00060000
00060000
00000000
00000000
00000000
00000000
00000000
00000000
007FE000
01801800
06000400
0C000200
08000100
10000080
30000080
20000000
20000000
60000000
40000000
40000000
40000000
40000000
40000000
40000000
C0000000
C0000000
C000FFC0
40000040
40000040
40000040
40000040
40000040
40000040
60000040
20000040
20000040
30000040
100000C0
08000140
0C000140
06000640
03800C40
00F9F040
00060000
ENDCHAR
STARTCHAR 0121
ENCODING 289
SWIDTH 520 0
DWIDTH 26 0
BBX 22 45 3 -10
BITMAP
006000
006000
000000
000000
000000
000000
000000
000000
01F800
0607FC
080180
100080
200040
200040
200020
200020
600020
200020
200020
200040
200040
100080
080180
060200
07FC00
080000
300000
200000
200000
200000
300000
1FFE00
1801E0
200018
400008
800004
800004
800004
800004
800004
800008
400018
200020
1E0780
016000
ENDCHAR
STARTCHAR 0122
ENCODING 290
SWIDTH 660 0
DWIDTH 33 0
BBX 26 46 3 -10
BITMAP
007FE000
01801800
06000400
0C000200
08000100
10000080
30000080
20000000
20000000
60000000
40000000
40000000
40000000
40000000
40000000
40000000
C0000000
C0000000
C000FFC0
40000040
40000040
40000040
40000040
40000040
40000040
60000040
20000040
20000040
30000040
100000C0
08000140
0C000140
06000640
03800C40
00F9F040
00060000
00000000
00000000
00060000
00060000
00060000
00020000
00020000
00040000
00040000
00080000
ENDCHAR
STARTCHAR 0123
ENCODING 291
SWIDTH 520 0
DWIDTH 26 0
BBX 22 48 3 -11
BITMAP
001000
002000
002000
004000
004000
006000
006000
000000
000000
000000
000000
01F800
0607FC
080180
100080
200040
200040
200020
200020
600020
200020
200020
200040
200040
100080
080180
060200
07FC00
080000
300000
200000
200000
200000
300000
1FFE00
1801E0
200018
400008
800004
800004
800004
800004
800004
800008
400018
200020
1E0780
016000
ENDCHAR
STARTCHAR 0124
ENCODING 292
SWIDTH 680 0
DWIDTH 34 0
BBX 24 46 5 0
BITMAP
001C00
003400
006200
00C100
018080
030040
060020
000000
000000
000000
000000
C00001
C00001
C00001
C00001
C00001
C00001
C00001
C00001
C00001
C00001
C00001
C00001
C00001
C00001
C00001
C00001
C00001
FFFFFF
C00001
C00001
C00001
C00001
C00001
C00001
C00001
C00001
C00001
C00001
C00001
C00001
C00001
C00001
C00001
C00001
C00001
ENDCHAR
STARTCHAR 0125
ENCODING 293
SWIDTH 540 0
DWIDTH 27 0
BBX 24 45 -1 0
BITMAP
030000
058000
08C000
106000
203000
401800
800C00
000000
020000
020000
020000
020000
020000
020000
020000
020000
020000
020000
020000
020FC0
023038
02400C
028006
030002
030002
020001
020001
020001
020001
020001
020001
020001
020001
020001
020001
020001
020001
020001
020001
020001
020001
020001
020001
020001
020001
ENDCHAR
STARTCHAR 0126
ENCODING 294
SWIDTH 680 0
DWIDTH 34 0
BBX 33 35 1 0
BITMAP
0400001000
0400001000
0400001000
0400001000
0400001000
0400001000
0400001000
FFFFFFFF80
0400001000
0400001000
0400001000
0400001000
0400001000
0400001000
0400001000
0400001000
0400001000
07FFFFF000
0400001000
0400001000
0400001000
0400001000
0400001000
0400001000
0400001000
0400001000
0400001000
0400001000
0400001000
0400001000
0400001000
0400001000
0400001000
0400001000
0400001000
ENDCHAR
STARTCHAR 0127
ENCODING 295
SWIDTH 540 0
DWIDTH 27 0
BBX 21 37 2 0
BITMAP
100000
100000
100000
100000
100000
FFF800
100000
100000
100000
100000
100000
107E00
1181C0
120060
140030
180010
180018
180008
100008
100008
100008
100008
100008
100008
100008
100008
100008
100008
100008
100008
100008
100008
100008
100008
100008
100008
100008
ENDCHAR
STARTCHAR 0128
ENCODING 296
SWIDTH 360 0
DWIDTH 18 0
BBX 15 44 2 0
BITMAP
7C00
C302
00CC
0020
0000
0000
0000
0000
0000
7FF8
0100
0100
0100
0100
0100
0100
0100
0100
0100
0100
0100
0100
0100
0100
0100
0100
0100
0100
0100
0100
0100
0100
0100
0100
0100
0100
0100
0100
0100
0100
0100
0100
0100
7FF8
ENDCHAR
STARTCHAR 0129
ENCODING 297
SWIDTH 220 0
DWIDTH 11 0
BBX 14 35 -1 0
BITMAP
7C00
8604
0198
0020
0000
0000
0000
0000
0000
0000
0200
0200
0200
0200
0200
0200
0200
0200
0200
0200
0200
0200
0200
0200
0200
0200
0200
0200
0200
0200
0200
0200
0200
0200
0200
ENDCHAR
STARTCHAR 012A
ENCODING 298
SWIDTH 360 0
DWIDTH 18 0
BBX 13 43 3 0
BITMAP
FFF8
0000
0000
0000
0000
0000
0000
0000
FFF0
0200
0200
0200
0200
0200
0200
0200
0200
0200
0200
0200
0200
0200
0200
0200
0200
0200
0200
0200
0200
0200
0200
0200
0200
0200
0200
0200
0200
0200
0200
0200
0200
0200
FFF0
ENDCHAR
STARTCHAR 012B
ENCODING 299
SWIDTH 220 0
DWIDTH 11 0
BBX 13 34 -1 0
BITMAP
FFF8
0000
0000
0000
0000
0000
0000
0000
0000
0200
0200
0200
0200
0200
0200
0200
0200
0200
0200
0200
0200
0200
0200
0200
0200
0200
0200
0200
0200
0200
0200
0200
0200
0200
ENDCHAR
STARTCHAR 012C
ENCODING 300
SWIDTH 360 0
DWIDTH 18 0
BBX 13 46 3 0
BITMAP
8000
8008
4010
4020
2060
18C0
0600
0000
0000
0000
0000
FFF0
0200
0200
0200
0200
0200
0200
0200
0200
0200
0200
0200
0200
0200
0200
0200
0200
0200
0200
0200
0200
0200
0200
0200
0200
0200
0200
0200
0200
0200
0200
0200
0200
0200
FFF0
ENDCHAR
STARTCHAR 012D
ENCODING 301
SWIDTH 220 0
DWIDTH 11 0
BBX 12 36 0 1
BITMAP
8010
8030
4020
6040
3180
0700
0000
0000
0000
0000
0000
0400
0400
0400
0400
0400
0400
0400
0400
0400
0400
0400
0400
0400
0400
0400
0400
0400
0400
0400
0400
0400
0400
0400
0400
0400
ENDCHAR
STARTCHAR 012E
ENCODING 302
SWIDTH 360 0
DWIDTH 18 0
BBX 13 45 3 -10
BITMAP
FFF0
0200
0200
0200
0200
0200
0200
0200
0200
0200
0200
0200
0200
0200
0200
0200
0200
0200
0200
0200
0200
0200
0200
0200
0200
0200
0200
0200
0200
0200
0200
0200
0200
0200
FFF0
0020
0040
0180
0100
0200
0400
0400
0400
0208
01F0
ENDCHAR
STARTCHAR 012F
ENCODING 303
SWIDTH 220 0
DWIDTH 11 0
BBX 8 46 1 -10
BITMAP
0C
0C
00
00
00
00
00
00
00
00
00
08
08
08
08
08
08
08
08
08
08
08
08
08
08
08
08
08
08
08
08
08
08
08
08
08
08
10
20
40
80
80
80
80
C3
7C
ENDCHAR
STARTCHAR 0130
ENCODING 304
SWIDTH 360 0
DWIDTH 18 0
BBX 12 43 3 1
BITMAP
0600
0600
0000
0000
0000
0000
0000
0000
FFF0
0200
0200
0200
0200
0200
0200
0200
0200
0200
0200
0200
0200
0200
0200
0200
0200
0200
0200
0200
0200
0200
0200
0200
0200
0200
0200
0200
0200
0200
0200
0200
0200
0200
FFF0
ENDCHAR
STARTCHAR 0131
ENCODING 305
SWIDTH 220 0
DWIDTH 11 0
BBX 1 25 5 0
BITMAP
80
80
80
80
80
80
80
80
80
80
80
80
80
80
80
80
80
80
80
80
80
80
80
80
80
ENDCHAR
STARTCHAR 0132
ENCODING 306
SWIDTH 620 0
DWIDTH 31 0
BBX 22 36 5 -1
BITMAP
801FFC
80000C
80000C
80000C
80000C
80000C
80000C
80000C
80000C
80000C
80000C
80000C
80000C
80000C
80000C
80000C
80000C
80000C
80000C
80000C
80000C
00000C
00000C
00000C
00000C
00000C
000008
000008
800008
800008
400010
600030
200060
1800C0
07CF00
003800
ENDCHAR
STARTCHAR 0133
ENCODING 307
SWIDTH 460 0
DWIDTH 23 0
BBX 13 46 5 -10
BITMAP
C018
C018
0000
0000
0000
0000
0000
0000
0000
0000
0000
8008
8008
8008
8008
8008
8008
8008
8008
8008
8008
8008
8008
8008
8008
8008
8008
8008
8008
8008
8008
8008
8008
8008
8008
8008
0008
0008
0008
0008
0008
0008
0008
0008
0008
00F8
ENDCHAR
STARTCHAR 0134
ENCODING 308
SWIDTH 460 0
DWIDTH 23 0
BBX 18 47 1 -1
BITMAP
007000
00D800
018C00
010600
020300
040180
0800C0
000000
000000
000000
000000
0FFF80
000080
000080
000080
000080
000080
000080
000080
000080
000080
000080
000080
000080
000080
000080
000080
000080
000080
000080
000080
000080
000080
000080
000080
000080
000080
000080
000080
000080
800080
C00180
400100
200200
100600
0F3800
00C000
ENDCHAR
STARTCHAR 0135
ENCODING 309
SWIDTH 220 0
DWIDTH 11 0
BBX 14 47 -1 -10
BITMAP
0300
0480
0840
1020
2010
4008
8004
0000
0000
0000
0000
0000
0200
0200
0200
0200
0200
0200
0200
0200
0200
0200
0200
0200
0200
0200
0200
0200
0200
0200
0200
0200
0200
0200
0200
0200
0200
0200
0200
0200
0200
0200
0200
0200
0200
0200
3E00
ENDCHAR
STARTCHAR 0136
ENCODING 310
SWIDTH 560 0
DWIDTH 28 0
BBX 22 46 5 -11
BITMAP
C00004
C00008
C00010
C00020
C00040
C000C0
C00180
C00300
C00600
C00C00
C00800
C01000
C02000
C04000
C08000
C18000
C24000
C66000
CC2000
D81000
F00800
E00C00
C00400
C00200
C00300
C00100
C00080
C000C0
C00040
C00020
C00030
C00010
C00008
C0000C
C00004
000000
000000
000000
002000
003000
003000
001000
002000
002000
004000
004000
ENDCHAR
STARTCHAR 0137
ENCODING 311
SWIDTH 480 0
DWIDTH 24 0
BBX 18 47 5 -11
BITMAP
800000
800000
800000
800000
800000
800000
800000
800000
800000
800000
800000
800000
800180
800200
800400
800800
801000
802000
804000
808000
810000
820000
860000
8A0000
910000
A08000
C0C000
806000
803000
801000
800800
800400
800600
800300
800100
800080
800040
000000
000000
000000
008000
01C000
00C000
008000
008000
008000
010000
ENDCHAR
STARTCHAR 0138
ENCODING 312
SWIDTH 480 0
DWIDTH 24 0
BBX 18 25 5 0
BITMAP
800080
800100
800200
800400
800800
801000
802000
804000
808000
810000
820000
860000
8B0000
B18000
E0C000
C04000
802000
801000
800800
800400
800600
800300
800100
800080
800040
ENDCHAR
STARTCHAR 0139
ENCODING 313
SWIDTH 460 0
DWIDTH 23 0
BBX 18 46 5 1
BITMAP
0C0000
180000
100000
200000
400000
400000
800000
000000
000000
000000
000000
C00000
C00000
C00000
C00000
C00000
C00000
C00000
C00000
C00000
C00000
C00000
C00000
C00000
C00000
C00000
C00000
C00000
C00000
C00000
C00000
C00000
C00000
C00000
C00000
C00000
C00000
C00000
C00000
C00000
C00000
C00000
C00000
C00000
C00000
FFFFC0
ENDCHAR
STARTCHAR 013A
ENCODING 314
SWIDTH 240 0
DWIDTH 12 0
BBX 6 47 5 1
BITMAP
08
18
30
20
40
C0
80
00
00
00
80
80
80
80
80
80
80
80
80
80
80
80
80
80
80
80
80
80
80
80
80
80
80
80
80
80
80
80
80
80
80
80
80
80
80
80
7C
ENDCHAR
STARTCHAR 013B
ENCODING 315
SWIDTH 460 0
DWIDTH 23 0
BBX 18 46 5 -11
BITMAP
C00000
C00000
C00000
C00000
C00000
C00000
C00000
C00000
C00000
C00000
C00000
C00000
C00000
C00000
C00000
C00000
C00000
C00000
C00000
C00000
C00000
C00000
C00000
C00000
C00000
C00000
C00000
C00000
C00000
C00000
C00000
C00000
C00000
C00000
FFFFC0
000000
000000
000000
004000
00E000
006000
002000
004000
004000
008000
008000
ENDCHAR
STARTCHAR 013C
ENCODING 316
SWIDTH 240 0
DWIDTH 12 0
BBX 6 48 5 -11
BITMAP
80
80
80
80
80
80
80
80
80
80
80
80
80
80
80
80
80
80
80
80
80
80
80
80
80
80
80
80
80
80
80
80
80
80
80
80
7C
00
00
00
10
30
30
10
10
20
20
40
ENDCHAR
STARTCHAR 013D
ENCODING 317
SWIDTH 460 0
DWIDTH 23 0
BBX 18 37 5 0
BITMAP
018000
010000
C10000
C10000
C10000
C10000
C10000
C10000
C00000
C00000
C00000
C00000
C00000
C00000
C00000
C00000
C00000
C00000
C00000
C00000
C00000
C00000
C00000
C00000
C00000
C00000
C00000
C00000
C00000
C00000
C00000
C00000
C00000
C00000
C00000
C00000
FFFFC0
ENDCHAR
STARTCHAR 013E
ENCODING 318
SWIDTH 240 0
DWIDTH 12 0
BBX 8 37 5 0
BITMAP
81
81
81
81
83
82
82
82
82
80
80
80
80
80
80
80
80
80
80
80
80
80
80
80
80
80
80
80
80
80
80
80
80
80
80
80
7C
ENDCHAR
STARTCHAR 013F
ENCODING 319
SWIDTH 460 0
DWIDTH 23 0
BBX 18 35 5 0
BITMAP
C00000
C00000
C00000
C00000
C00000
C00000
C00000
C00000
C00000
C00000
C00000
C00000
C00000
C00000
C00000
C00000
C00000
C00000
C00000
C00C00
C00C00
C00000
C00000
C00000
C00000
C00000
C00000
C00000
C00000
C00000
C00000
C00000
C00000
C00000
FFFFC0
ENDCHAR
STARTCHAR 0140
ENCODING 320
SWIDTH 260 0
DWIDTH 13 0
BBX 9 37 5 0
BITMAP
8000
8000
8000
8000
8000
8000
8000
8000
8000
8000
8000
8000
8000
8000
8000
8000
8000
8000
8000
8000
8000
8000
8000
8380
8180
8000
8000
8000
8000
8000
8000
8000
8000
8000
8000
8000
7C00
ENDCHAR
STARTCHAR 0141
ENCODING 321
SWIDTH 460 0
DWIDTH 23 0
BBX 22 35 1 0
BITMAP
040000
040000
040000
040000
040000
040000
040000
040000
040000
040000
040000
040000
040000
040000
040000
040100
040E00
047000
078000
1C0000
E40000
040000
040000
040000
040000
040000
040000
040000
040000
040000
040000
040000
040000
040000
07FFFC
ENDCHAR
STARTCHAR 0142
ENCODING 322
SWIDTH 240 0
DWIDTH 12 0
BBX 9 37 2 0
BITMAP
1000
1000
1000
1000
1000
1000
1000
1000
1000
1000
1000
1000
1000
1000
1000
1000
1000
1380
1C00
F000
1000
1000
1000
1000
1000
1000
1000
1000
1000
1000
1000
1000
1000
1000
1000
1000
0F80
ENDCHAR
STARTCHAR 0143
ENCODING 323
SWIDTH 680 0
DWIDTH 34 0
BBX 24 46 5 1
BITMAP
000180
000100
000200
000600
000400
000800
001000
001000
000000
000000
000000
C00001
A00001
B00001
900001
980001
880001
840001
860001
820001
810001
818001
808001
804001
804001
802001
803001
801001
800801
800C01
800401
800201
800201
800101
800181
800081
800041
800061
800021
800011
800011
800009
80000D
800005
800003
800003
ENDCHAR
STARTCHAR 0144
ENCODING 324
SWIDTH 540 0
DWIDTH 27 0
BBX 18 37 5 1
BITMAP
000C00
000800
001000
002000
006000
004000
008000
000000
000000
000000
000000
03F000
8C0E00
900300
A00180
C00080
C00080
800040
800040
800040
800040
800040
800040
800040
800040
800040
800040
800040
800040
800040
800040
800040
800040
800040
800040
800040
800040
ENDCHAR
STARTCHAR 0145
ENCODING 325
SWIDTH 680 0
DWIDTH 34 0
BBX 24 46 5 -11
BITMAP
C00001
A00001
B00001
900001
980001
880001
840001
860001
820001
810001
818001
808001
804001
804001
802001
803001
801001
800801
800C01
800401
800201
800201
800101
800181
800081
800041
800061
800021
800011
800011
800009
80000D
800005
800003
800003
000000
000000
000000
000800
001800
001800
000800
000800
000800
001000
002000
ENDCHAR
STARTCHAR 0146
ENCODING 326
SWIDTH 540 0
DWIDTH 27 0
BBX 18 37 5 -11
BITMAP
03F000
8C0E00
900300
A00180
C00080
C00080
800040
800040
800040
800040
800040
800040
800040
800040
800040
800040
800040
800040
800040
800040
800040
800040
800040
800040
800040
800040
000000
000000
000000
004000
00C000
00C000
004000
004000
008000
008000
010000
ENDCHAR
STARTCHAR 0147
ENCODING 327
SWIDTH 680 0
DWIDTH 34 0
BBX 24 46 5 0
BITMAP
020020
010040
018080
00C100
006200
003400
001800
000000
000000
000000
000000
C00001
A00001
B00001
900001
980001
880001
840001
860001
820001
810001
818001
808001
804001
804001
802001
803001
801001
800801
800C01
800401
800201
800201
800101
800181
800081
800041
800061
800021
800011
800011
800009
80000D
800005
800003
800003
ENDCHAR
STARTCHAR 0148
ENCODING 328
SWIDTH 540 0
DWIDTH 27 0
BBX 18 37 5 0
BITMAP
100100
080200
0C0400
060800
031000
01A000
00C000
000000
000000
000000
000000
03F000
8C0E00
900300
A00180
C00080
C00080
800040
800040
800040
800040
800040
800040
800040
800040
800040
800040
800040
800040
800040
800040
800040
800040
800040
800040
800040
800040
ENDCHAR
STARTCHAR 0149
ENCODING 329
SWIDTH 760 0
DWIDTH 38 0
BBX 30 38 3 0
BITMAP
10000000
38000000
38000000
08000000
10000000
10000000
10000000
20000000
20000000
40000000
80000000
00000000
00003F80
000CC060
000D0030
000E0008
000C0008
000C0004
000C0004
000C0004
000C0004
000C0004
000C0004
000C0004
000C0004
000C0004
000C0004
000C0004
000C0004
000C0004
000C0004
000C0004
000C0004
000C0004
000C0004
000C0004
000C0004
000C0004
ENDCHAR
STARTCHAR 014A
ENCODING 330
SWIDTH 680 0
DWIDTH 34 0
BBX 24 45 5 -10
BITMAP
C00001
A00001
B00001
900001
980001
880001
840001
860001
820001
810001
818001
808001
804001
804001
802001
803001
801001
800801
800C01
800401
800201
800201
800101
800181
800081
800041
800061
800021
800011
800011
800009
80000D
800005
800003
800003
000001
000001
000001
000001
000001
000001
000001
000001
000001
00001F
ENDCHAR
STARTCHAR 014B
ENCODING 331
SWIDTH 540 0
DWIDTH 27 0
BBX 18 36 5 -10
BITMAP
03F000
8C0E00
900300
A00180
C00080
C00080
800040
800040
800040
800040
800040
800040
800040
800040
800040
800040
800040
800040
800040
800040
800040
800040
800040
800040
800040
800040
000040
000040
000040
000040
000040
000040
000040
000040
000040
0007C0
ENDCHAR
STARTCHAR 014C
ENCODING 332
SWIDTH 680 0
DWIDTH 34 0
BBX 27 44 3 -1
BITMAP
00FFF000
00000000
00000000
00000000
00000000
00000000
00000000
00000000
007FE000
01801800
06000600
0C000300
08000100
10000080
300000C0
20000040
20000040
60000060
40000020
40000020
40000020
40000020
40000020
40000020
C0000020
C0000020
C0000020
40000020
40000020
40000020
40000020
40000020
40000020
60000060
20000040
20000040
300000C0
10000080
08000100
0C000300
06000600
03801C00
00F9F000
00060000
ENDCHAR
STARTCHAR 014D
ENCODING 333
SWIDTH 540 0
DWIDTH 27 0
BBX 21 35 3 -1
BITMAP
0FFF80
000000
000000
000000
000000
000000
000000
000000
01FC00
060300
080080
100040
200020
600030
400010
400010
C00018
800008
800008
800008
800008
800008
800008
800008
800008
800008
400010
400010
400010
200020
200020
100040
0C0180
038E00
007000
ENDCHAR
STARTCHAR 014E
ENCODING 334
SWIDTH 680 0
DWIDTH 34 0
BBX 27 46 3 0
BITMAP
00801000
00801000
00402000
00204000
0030C000
00060000
00000000
00000000
00000000
00000000
007FE000
01801800
06000600
0C000300
08000100
10000080
300000C0
20000040
20000040
60000060
40000020
40000020
40000020
40000020
40000020
40000020
C0000020
C0000020
C0000020
40000020
40000020
40000020
40000020
40000020
40000020
60000060
20000040
20000040
300000C0
10000080
08000100
0C000300
06000600
03801C00
00F9F000
00060000
ENDCHAR
STARTCHAR 014F
ENCODING 335
SWIDTH 540 0
DWIDTH 27 0
BBX 21 37 3 0
BITMAP
080080
040100
060100
020200
018C00
007000
000000
000000
000000
000000
01FC00
060300
080080
100040
200020
600030
400010
400010
C00018
800008
800008
800008
800008
800008
800008
800008
800008
800008
400010
400010
400010
200020
200020
100040
0C0180
038E00
007000
ENDCHAR
STARTCHAR 0150
ENCODING 336
SWIDTH 680 0
DWIDTH 34 0
BBX 27 47 3 0
BITMAP
00020200
00060600
00040400
00080800
00101000
00303000
00202000
00000000
00000000
00000000
00000000
007FE000
01801800
06000600
0C000300
08000100
10000080
300000C0
20000040
20000040
60000060
40000020
40000020
40000020
40000020
40000020
40000020
C0000020
C0000020
C0000020
40000020
40000020
40000020
40000020
40000020
40000020
60000060
20000040
20000040
300000C0
10000080
08000100
0C000300
06000600
03801C00
00F9F000
00060000
ENDCHAR
STARTCHAR 0151
ENCODING 337
SWIDTH 540 0
DWIDTH 27 0
BBX 21 38 3 0
BITMAP
001010
002020
004040
00C0C0
008080
010100
020200
020200
000000
000000
000000
01FC00
060300
080080
100040
200020
600030
400010
400010
C00018
800008
800008
800008
800008
800008
800008
800008
800008
800008
400010
400010
400010
200020
200020
100040
0C0180
038E00
007000
ENDCHAR
STARTCHAR 0152
ENCODING 338
SWIDTH 960 0
DWIDTH 48 0
BBX 42 37 3 -1
BITMAP
000100000000
007FFFFFFFC0
01C001000000
030001000000
040001000000
080001000000
180001000000
100001000000
200001000000
200001000000
600001000000
400001000000
400001000000
400001000000
400001000000
400001000000
400001000000
C00001000000
C00001FFFF80
C00001000000
400001000000
400001000000
400001000000
400001000000
400001000000
400001000000
600001000000
200001000000
200001000000
100001000000
180001000000
080001000000
040001000000
030001000000
01C001000000
007C7FFFFFC0
0003E0000000
ENDCHAR
STARTCHAR 0153
ENCODING 339
SWIDTH 920 0
DWIDTH 46 0
BBX 40 27 3 -1
BITMAP
01F8001F80
0603006060
0800818018
100041000C
2000220004
6000240002
4000140002
4000140001
C000180001
8000080001
8000080001
8000080001
80000FFFFF
8000080000
8000080000
8000080000
8000080000
8000080000
4000180000
4000140000
4000140001
2000260002
2000220006
1000410004
0C0180C018
038E0078E0
0070000600
ENDCHAR
STARTCHAR 0154
ENCODING 340
SWIDTH 620 0
DWIDTH 31 0
BBX 23 46 5 1
BITMAP
000600
000400
000800
001000
003000
002000
004000
000000
000000
000000
000000
FFFF80
C000E0
C00030
C00008
C00008
C00004
C00004
C00004
C00004
C00006
C00004
C00004
C00004
C00004
C00008
C00008
C00030
C000E0
FFFF80
C00400
C00600
C00200
C00100
C00100
C00080
C000C0
C00040
C00020
C00020
C00010
C00018
C00008
C00004
C00004
C00002
ENDCHAR
STARTCHAR 0155
ENCODING 341
SWIDTH 340 0
DWIDTH 17 0
BBX 11 37 5 1
BITMAP
0060
0040
0080
0100
0300
0200
0400
0000
0000
0000
0000
0000
87E0
9800
B000
A000
C000
C000
8000
8000
8000
8000
8000
8000
8000
8000
8000
8000
8000
8000
8000
8000
8000
8000
8000
8000
8000
ENDCHAR
STARTCHAR 0156
ENCODING 342
SWIDTH 620 0
DWIDTH 31 0
BBX 23 46 5 -11
BITMAP
FFFF80
C000E0
C00030
C00008
C00008
C00004
C00004
C00004
C00004
C00006
C00004
C00004
C00004
C00004
C00008
C00008
C00030
C000E0
FFFF80
C00400
C00600
C00200
C00100
C00100
C00080
C000C0
C00040
C00020
C00020
C00010
C00018
C00008
C00004
C00004
C00002
000000
000000
000000
002000
006000
006000
002000
002000
002000
004000
008000
ENDCHAR
STARTCHAR 0157
ENCODING 343
SWIDTH 340 0
DWIDTH 17 0
BBX 12 36 4 -11
BITMAP
43F0
4C00
5800
5000
6000
6000
4000
4000
4000
4000
4000
4000
4000
4000
4000
4000
4000
4000
4000
4000
4000
4000
4000
4000
4000
0000
0000
0000
4000
6000
6000
2000
4000
4000
4000
8000
ENDCHAR
STARTCHAR 0158
ENCODING 344
SWIDTH 620 0
DWIDTH 31 0
BBX 23 46 5 0
BITMAP
180080
0C0100
060200
030400
018800
00D000
006000
000000
000000
000000
000000
FFFF80
C000E0
C00030
C00008
C00008
C00004
C00004
C00004
C00004
C00006
C00004
C00004
C00004
C00004
C00008
C00008
C00030
C000E0
FFFF80
C00400
C00600
C00200
C00100
C00100
C00080
C000C0
C00040
C00020
C00020
C00010
C00018
C00008
C00004
C00004
C00002
ENDCHAR
STARTCHAR 0159
ENCODING 345
SWIDTH 340 0
DWIDTH 17 0
BBX 14 37 4 0
BITMAP
C004
6008
3010
1820
0C40
0680
0300
0000
0000
0000
0000
0000
43F0
4C00
5800
5000
6000
6000
4000
4000
4000
4000
4000
4000
4000
4000
4000
4000
4000
4000
4000
4000
4000
4000
4000
4000
4000
ENDCHAR
STARTCHAR 015A
ENCODING 346
SWIDTH 540 0
DWIDTH 27 0
BBX 21 47 3 0
BITMAP
000200
000400
000800
001800
001000
002000
004000
004000
000000
000000
000000
07FF00
1800C0
200020
400010
400008
800000
800000
800000
800000
800000
800000
C00000
400000
600000
300000
0C0000
03C000
003E00
000380
000060
000030
000010
000008
000008
000008
000008
000008
000008
000008
000008
800018
C00010
600020
1800C0
07CF00
003000
ENDCHAR
STARTCHAR 015B
ENCODING 347
SWIDTH 460 0
DWIDTH 23 0
BBX 17 38 3 0
BITMAP
001800
001000
002000
004000
00C000
008000
010000
000000
000000
000000
000000
07F000
180C00
200200
400100
400000
800000
800000
800000
C00000
400000
600000
300000
0F0000
00F800
000600
000300
000100
000080
000080
000080
000080
000080
800080
400100
300200
1E3C00
00E000
ENDCHAR
STARTCHAR 015C
ENCODING 348
SWIDTH 540 0
DWIDTH 27 0
BBX 21 47 3 -1
BITMAP
007000
00D800
018C00
030600
060300
0C0180
180080
000000
000000
000000
000000
07FF00
1800C0
200020
400010
400008
800000
800000
800000
800000
800000
800000
C00000
400000
600000
300000
0C0000
03C000
003E00
000380
000060
000030
000010
000008
000008
000008
000008
000008
000008
000008
000008
800018
C00010
600020
1800C0
07CF00
003000
ENDCHAR
STARTCHAR 015D
ENCODING 349
SWIDTH 460 0
DWIDTH 23 0
BBX 17 38 3 -1
BITMAP
018000
024000
042000
081000
100800
200400
400200
000000
000000
000000
000000
07F000
180C00
200200
400100
400000
800000
800000
800000
C00000
400000
600000
300000
0F0000
00F800
000600
000300
000100
000080
000080
000080
000080
000080
800080
400100
300200
1E3C00
00E000
ENDCHAR
STARTCHAR 015E
ENCODING 350
SWIDTH 540 0
DWIDTH 27 0
BBX 21 45 3 -9
BITMAP
07FF00
1800C0
200020
400010
400008
800000
800000
800000
800000
800000
800000
C00000
400000
600000
300000
0C0000
03C000
003E00
000380
000060
000030
000010
000008
000008
000008
000008
000008
000008
000008
000008
800018
C00010
200020
1800C0
07CF80
007000
002000
002000
004000
003C00
000200
000200
000200
010600
00FC00
ENDCHAR
STARTCHAR 015F
ENCODING 351
SWIDTH 460 0
DWIDTH 23 0
BBX 17 36 3 -10
BITMAP
07F000
180C00
200200
400100
400000
800000
800000
800000
C00000
400000
600000
300000
0F0000
00F800
000600
000300
000100
000080
000080
000080
000080
000080
800080
400100
300200
1E3C00
00C000
008000
008000
008000
007800
000800
000800
000800
060800
03F000
ENDCHAR
STARTCHAR 0160
ENCODING 352
SWIDTH 540 0
DWIDTH 27 0
BBX 21 47 3 -1
BITMAP
080080
040100
020200
010400
008800
005000
002000
000000
000000
000000
000000
07FF00
1800C0
200020
400010
400008
800000
800000
800000
800000
800000
800000
C00000
400000
600000
300000
0C0000
03C000
003E00
000380
000060
000030
000010
000008
000008
000008
000008
000008
000008
000008
000008
800018
C00010
600020
1800C0
07CF00
003000
ENDCHAR
STARTCHAR 0161
ENCODING 353
SWIDTH 460 0
DWIDTH 23 0
BBX 17 38 3 -1
BITMAP
600200
300400
180800
0C1000
062000
034000
018000
000000
000000
000000
000000
07F000
180C00
200200
400100
400000
800000
800000
800000
C00000
400000
600000
300000
0F0000
00F800
000600
000300
000100
000080
000080
000080
000080
000080
800080
400100
300200
1E3C00
00E000
ENDCHAR
STARTCHAR 0162
ENCODING 354
SWIDTH 560 0
DWIDTH 28 0
BBX 26 46 1 -11
BITMAP
FFFFFFC0
000C0000
000C0000
000C0000
000C0000
000C0000
000C0000
000C0000
000C0000
000C0000
000C0000
000C0000
000C0000
000C0000
000C0000
000C0000
000C0000
000C0000
000C0000
000C0000
000C0000
000C0000
000C0000
000C0000
000C0000
000C0000
000C0000
000C0000
000C0000
000C0000
000C0000
000C0000
000C0000
000C0000
000C0000
00000000
00000000
00000000
000C0000
000C0000
000C0000
00040000
00040000
00080000
00080000
00100000
ENDCHAR
STARTCHAR 0163
ENCODING 355
SWIDTH 300 0
DWIDTH 15 0
BBX 12 43 1 -11
BITMAP
0400
0400
0400
0400
0400
0400
0400
0400
FFF0
0400
0400
0400
0400
0400
0400
0400
0400
0400
0400
0400
0400
0400
0400
0400
0400
0400
0400
0400
0400
0400
0400
0400
03F0
0000
0000
0000
0080
01C0
00C0
0080
0080
0080
0100
ENDCHAR
STARTCHAR 0164
ENCODING 356
SWIDTH 560 0
DWIDTH 28 0
BBX 26 46 1 0
BITMAP
03003000
01802000
00C04000
00608000
00310000
001A0000
000C0000
00000000
00000000
00000000
00000000
FFFFFFC0
000C0000
000C0000
000C0000
000C0000
000C0000
000C0000
000C0000
000C0000
000C0000
000C0000
000C0000
000C0000
000C0000
000C0000
000C0000
000C0000
000C0000
000C0000
000C0000
000C0000
000C0000
000C0000
000C0000
000C0000
000C0000
000C0000
000C0000
000C0000
000C0000
000C0000
000C0000
000C0000
000C0000
000C0000
ENDCHAR
STARTCHAR 0165
ENCODING 357
SWIDTH 300 0
DWIDTH 15 0
BBX 13 37 1 0
BITMAP
0008
0008
0008
0008
0408
0408
0410
0410
0410
0400
0400
0400
FFF0
0400
0400
0400
0400
0400
0400
0400
0400
0400
0400
0400
0400
0400
0400
0400
0400
0400
0400
0400
0400
0400
0400
0400
03F0
ENDCHAR
STARTCHAR 0166
ENCODING 358
SWIDTH 560 0
DWIDTH 28 0
BBX 26 35 1 0
BITMAP
FFFFFFC0
000C0000
000C0000
000C0000
000C0000
000C0000
000C0000
000C0000
000C0000
000C0000
000C0000
000C0000
000C0000
000C0000
000C0000
000C0000
1FFFFE00
000C0000
000C0000
000C0000
000C0000
000C0000
000C0000
000C0000
000C0000
000C0000
000C0000
000C0000
000C0000
000C0000
000C0000
000C0000
000C0000
000C0000
000C0000
ENDCHAR
STARTCHAR 0167
ENCODING 359
SWIDTH 300 0
DWIDTH 15 0
BBX 12 33 2 0
BITMAP
0800
0800
0800
0800
0800
0800
0800
0800
FFF0
0800
0800
0800
0800
0800
0800
0800
0800
0800
7FE0
0800
0800
0800
0800
0800
0800
0800
0800
0800
0800
0800
0800
0800
07E0
ENDCHAR
STARTCHAR 0168
ENCODING 360
SWIDTH 640 0
DWIDTH 32 0
BBX 23 45 5 -1
BITMAP
07C000
083020
000CC0
000200
000000
000000
000000
000000
000000
800006
800006
800006
800006
800006
800006
800006
800006
800006
800006
800006
800006
800006
800006
800006
800006
800006
800006
800006
800006
800006
800006
800006
800006
800004
800004
800004
C00004
400004
40000C
600008
200018
100010
0C0060
07C780
003C00
ENDCHAR
STARTCHAR 0169
ENCODING 361
SWIDTH 540 0
DWIDTH 27 0
BBX 18 36 5 -1
BITMAP
1E0000
218100
006600
000800
000000
000000
000000
000000
000000
000000
8000C0
8000C0
8000C0
8000C0
8000C0
8000C0
8000C0
8000C0
8000C0
8000C0
8000C0
8000C0
8000C0
8000C0
8000C0
8000C0
8000C0
8000C0
8000C0
8000C0
C000C0
4001C0
6001C0
3006C0
0E38C0
018000
ENDCHAR
STARTCHAR 016A
ENCODING 362
SWIDTH 640 0
DWIDTH 32 0
BBX 23 44 5 -1
BITMAP
07FFC0
000000
000000
000000
000000
000000
000000
000000
800006
800006
800006
800006
800006
800006
800006
800006
800006
800006
800006
800006
800006
800006
800006
800006
800006
800006
800006
800006
800006
800006
800006
800006
800004
800004
800004
C00004
400004
40000C
600008
200018
100010
0C0060
07C780
003C00
ENDCHAR
STARTCHAR 016B
ENCODING 363
SWIDTH 540 0
DWIDTH 27 0
BBX 18 35 5 -1
BITMAP
3FFE00
000000
000000
000000
000000
000000
000000
000000
000000
8000C0
8000C0
8000C0
8000C0
8000C0
8000C0
8000C0
8000C0
8000C0
8000C0
8000C0
8000C0
8000C0
8000C0
8000C0
8000C0
8000C0
8000C0
8000C0
8000C0
C000C0
4001C0
6001C0
3006C0
0E38C0
018000
ENDCHAR
STARTCHAR 016C
ENCODING 364
SWIDTH 640 0
DWIDTH 32 0
BBX 23 46 5 0
BITMAP
0400C0
020080
020100
010300
00C600
007000
000000
000000
000000
000000
800006
800006
800006
800006
800006
800006
800006
800006
800006
800006
800006
800006
800006
800006
800006
800006
800006
800006
800006
800006
800006
800006
800006
800006
800004
800004
800004
C00004
400004
40000C
600008
200018
100010
0C0060
07C780
003C00
ENDCHAR
STARTCHAR 016D
ENCODING 365
SWIDTH 540 0
DWIDTH 27 0
BBX 18 38 5 -1
BITMAP
000200
200200
100400
080400
080800
063000
00C000
000000
000000
000000
000000
000000
8000C0
8000C0
8000C0
8000C0
8000C0
8000C0
8000C0
8000C0
8000C0
8000C0
8000C0
8000C0
8000C0
8000C0
8000C0
8000C0
8000C0
8000C0
8000C0
8000C0
C000C0
4001C0
6001C0
3006C0
0E38C0
018000
ENDCHAR
STARTCHAR 016E
ENCODING 366
SWIDTH 640 0
DWIDTH 32 0
BBX 23 49 5 -1
BITMAP
001000
00EC00
018200
010100
010100
010100
010100
010200
00CC00
003000
000000
000000
000000
800006
800006
800006
800006
800006
800006
800006
800006
800006
800006
800006
800006
800006
800006
800006
800006
800006
800006
800006
800006
800006
800006
800006
800006
800004
800004
800004
C00004
400004
40000C
600008
200018
100010
0C0060
07C780
003C00
ENDCHAR
STARTCHAR 016F
ENCODING 367
SWIDTH 540 0
DWIDTH 27 0
BBX 18 40 5 -1
BITMAP
008000
037000
041800
080800
080800
080800
080800
041800
033000
00C000
000000
000000
000000
000000
8000C0
8000C0
8000C0
8000C0
8000C0
8000C0
8000C0
8000C0
8000C0
8000C0
8000C0
8000C0
8000C0
8000C0
8000C0
8000C0
8000C0
8000C0
8000C0
8000C0
C000C0
4001C0
6001C0
3006C0
0E38C0
018000
ENDCHAR
STARTCHAR 0170
ENCODING 368
SWIDTH 640 0
DWIDTH 32 0
BBX 23 47 5 0
BITMAP
001818
001010
002020
004040
00C0C0
008080
010100
000000
000000
000000
000000
800006
800006
800006
800006
800006
800006
800006
800006
800006
800006
800006
800006
800006
800006
800006
800006
800006
800006
800006
800006
800006
800006
800006
800006
800004
800004
800004
C00004
400004
40000C
600008
200018
100010
0C0060
07C780
003C00
ENDCHAR
STARTCHAR 0171
ENCODING 369
SWIDTH 540 0
DWIDTH 27 0
BBX 18 39 5 -1
BITMAP
004040
004040
008080
018180
010100
020200
040400
0C0C00
080800
000000
000000
000000
000000
8000C0
8000C0
8000C0
8000C0
8000C0
8000C0
8000C0
8000C0
8000C0
8000C0
8000C0
8000C0
8000C0
8000C0
8000C0
8000C0
8000C0
8000C0
8000C0
8000C0
C000C0
4001C0
6001C0
3006C0
0E38C0
018000
ENDCHAR
STARTCHAR 0172
ENCODING 370
SWIDTH 640 0
DWIDTH 32 0
BBX 23 45 5 -10
BITMAP
800006
800006
800006
800006
800006
800006
800006
800006
800006
800006
800006
800006
800006
800006
800006
800006
800006
800006
800006
800006
800006
800006
800006
800006
800004
800004
800004
C00004
400004
40000C
600008
200018
100010
0C0060
07C7C0
003900
000600
000800
001000
002000
002000
002000
002000
0030C0
001F00
ENDCHAR
STARTCHAR 0173
ENCODING 371
SWIDTH 540 0
DWIDTH 27 0
BBX 19 35 5 -10
BITMAP
8000C0
8000C0
8000C0
8000C0
8000C0
8000C0
8000C0
8000C0
8000C0
8000C0
8000C0
8000C0
8000C0
8000C0
8000C0
8000C0
8000C0
8000C0
8000C0
8000C0
C000C0
4001C0
6001C0
3006C0
0E38C0
018080
000300
000600
000400
000800
000800
000800
000800
000820
0007C0
ENDCHAR
STARTCHAR 0174
ENCODING 372
SWIDTH 860 0
DWIDTH 43 0
BBX 40 46 2 0
BITMAP
0000380000
00006C0000
0000C60000
0000830000
0001018000
000200C000
0004006000
0000000000
0000000000
0000000000
0000000000
8000180001
8000180001
8000280002
C0002C0002
4000240002
4000640006
4000440004
6000420004
2000420004
200082000C
2000830008
1000810008
1000810008
1001010018
1801008010
0801008010
0802008010
0802008020
0C02004020
0402004020
0404004020
0404002040
0604002040
020C002040
02080020C0
0208001080
0108001080
0110001080
0110001980
0110000900
00B0000900
00A0000900
00A0000600
00E0000600
0040000600
ENDCHAR
STARTCHAR 0175
ENCODING 373
SWIDTH 720 0
DWIDTH 36 0
BBX 32 37 2 0
BITMAP
00018000
00024000
00042000
00081000
00100800
00200400
00400200
00000000
00000000
00000000
00000000
00000000
80018001
80018001
40014001
40024002
40024002
20024002
20042004
20042004
20042004
1004100C
10081008
10081008
08080808
08100810
08100810
04100410
04200420
04200420
04200620
02400240
02400240
02400240
01400140
01800180
01800180
ENDCHAR
STARTCHAR 0176
ENCODING 374
SWIDTH 540 0
DWIDTH 27 0
BBX 25 46 1 0
BITMAP
001C0000
00360000
00630000
00418000
0080C000
01006000
02003000
00000000
00000000
00000000
00000000
C0000080
40000100
60000100
20000200
10000600
18000400
08000800
0C000800
04001000
02003000
03002000
01004000
01804000
00808000
00418000
00610000
00220000
00320000
00140000
000C0000
00080000
00080000
00080000
00080000
00080000
00080000
00080000
00080000
00080000
00080000
00080000
00080000
00080000
00080000
00080000
ENDCHAR
STARTCHAR 0177
ENCODING 375
SWIDTH 440 0
DWIDTH 22 0
BBX 19 47 2 -10
BITMAP
00E000
01B000
031800
060C00
0C0600
180300
300100
000000
000000
000000
000000
000000
800020
800020
800040
400040
400040
400080
200080
200100
100100
100100
100200
080200
080200
080400
040400
040800
060800
020800
021000
011000
011000
012000
00A000
00A000
00C000
004000
008000
008000
008000
010000
010000
030000
020000
020000
7C0000
ENDCHAR
STARTCHAR 0178
ENCODING 376
SWIDTH 540 0
DWIDTH 27 0
BBX 25 43 1 0
BITMAP
0180C000
0180C000
00000000
00000000
00000000
00000000
00000000
00000000
C0000080
40000100
60000100
20000200
10000600
18000400
08000800
0C000800
04001000
02003000
03002000
01004000
01804000
00808000
00418000
00610000
00220000
00320000
00140000
000C0000
00080000
00080000
00080000
00080000
00080000
00080000
00080000
00080000
00080000
00080000
00080000
00080000
00080000
00080000
00080000
ENDCHAR
STARTCHAR 0179
ENCODING 377
SWIDTH 540 0
DWIDTH 27 0
BBX 24 46 2 1
BITMAP
000180
000100
000200
000400
000C00
000800
001000
000000
000000
000000
000000
7FFFFE
000002
000004
00000C
000008
000010
000030
000020
000040
0000C0
000080
000100
000300
000200
000400
000C00
000800
001000
003000
002000
004000
00C000
008000
010000
030000
020000
040000
0C0000
080000
100000
300000
200000
400000
C00000
FFFFFF
ENDCHAR
STARTCHAR 017A
ENCODING 378
SWIDTH 400 0
DWIDTH 20 0
BBX 19 37 1 1
BITMAP
000400
000800
001800
003000
002000
004000
008000
008000
000000
000000
000000
000000
7FFFC0
000040
000080
000100
000300
000200
000400
000800
000800
001000
002000
006000
004000
008000
010000
030000
020000
040000
080000
080000
100000
200000
600000
400000
FFFFE0
ENDCHAR
STARTCHAR 017B
ENCODING 379
SWIDTH 540 0
DWIDTH 27 0
BBX 24 43 2 1
BITMAP
001800
001800
000000
000000
000000
000000
000000
000000
7FFFFE
000002
000004
00000C
000008
000010
000030
000020
000040
0000C0
000080
000100
000300
000200
000400
000C00
000800
001000
003000
002000
004000
00C000
008000
010000
030000
020000
040000
0C0000
080000
100000
300000
200000
400000
C00000
FFFFFF
ENDCHAR
STARTCHAR 017C
ENCODING 380
SWIDTH 400 0
DWIDTH 20 0
BBX 19 35 1 0
BITMAP
004000
00E000
004000
000000
000000
000000
000000
000000
000000
000000
7FFFC0
000040
000080
000100
000300
000200
000400
000800
000800
001000
002000
006000
004000
008000
010000
030000
020000
040000
080000
080000
100000
200000
600000
400000
FFFFE0
ENDCHAR
STARTCHAR 017D
ENCODING 381
SWIDTH 540 0
DWIDTH 27 0
BBX 24 46 2 0
BITMAP
060020
030040
018080
00C100
006200
003400
001800
000000
000000
000000
000000
7FFFFE
000002
000004
00000C
000008
000010
000030
000020
000040
0000C0
000080
000100
000300
000200
000400
000C00
000800
001000
003000
002000
004000
00C000
008000
010000
030000
020000
040000
0C0000
080000
100000
300000
200000
400000
C00000
FFFFFF
ENDCHAR
STARTCHAR 017E
ENCODING 382
SWIDTH 400 0
DWIDTH 20 0
BBX 19 37 1 0
BITMAP
100100
080200
040400
020800
011000
00A000
004000
000000
000000
000000
000000
000000
7FFFC0
000040
000080
000100
000300
000200
000400
000800
000800
001000
002000
006000
004000
008000
010000
030000
020000
040000
080000
080000
100000
200000
600000
400000
FFFFE0
ENDCHAR
STARTCHAR 018F
ENCODING 399
SWIDTH 680 0
DWIDTH 34 0
BBX 27 36 3 0
BITMAP
00FFE000
01801800
06000600
0C000300
08000100
10000080
10000080
20000040
20000040
00000060
00000020
00000020
00000020
00000020
00000020
00000020
00000020
FFFFFFE0
C0000020
40000020
40000020
40000020
40000020
40000020
40000020
60000060
20000040
20000040
300000C0
10000080
08000100
0C000300
06000600
03801C00
00F9F000
00060000
ENDCHAR
STARTCHAR 0192
ENCODING 402
SWIDTH 480 0
DWIDTH 24 0
BBX 23 42 0 -7
BITMAP
0007FE
000400
000400
000400
000C00
000800
000800
000800
000800
000800
000800
000800
000800
000800
001800
001000
001000
001000
3FFFFE
001000
001000
001000
001000
001000
003000
002000
002000
002000
002000
002000
002000
002000
002000
002000
006000
004000
004000
004000
004000
004000
004000
FF8000
ENDCHAR
STARTCHAR 01A0
ENCODING 416
SWIDTH 680 0
DWIDTH 34 0
BBX 27 42 3 -1
BITMAP
00000020
00000020
00000020
00000020
00000020
00000020
007FFFE0
01801800
06000600
0C000300
08000100
10000080
30000080
20000040
20000040
60000060
40000020
40000020
40000020
40000020
40000020
40000020
C0000020
C0000020
C0000020
40000020
40000020
40000020
40000020
40000020
40000020
60000060
20000040
20000040
300000C0
10000080
08000100
0C000300
06000600
03801C00
00F9F000
00060000
ENDCHAR
STARTCHAR 01A1
ENCODING 417
SWIDTH 540 0
DWIDTH 27 0
BBX 21 31 3 -1
BITMAP
000008
000008
000008
000008
01FC08
0603E0
080080
100040
200020
600030
400010
400010
C00018
800008
800008
800008
800008
800008
800008
800008
800008
800008
400010
400010
400010
200020
200020
100040
0C0180
038E00
007000
ENDCHAR
STARTCHAR 01AF
ENCODING 431
SWIDTH 640 0
DWIDTH 32 0
BBX 27 41 5 -1
BITMAP
00000060
00000060
00000060
00000060
00000060
800007C0
80000600
80000600
80000600
80000600
80000600
80000600
80000600
80000600
80000600
80000600
80000600
80000600
80000600
80000600
80000600
80000600
80000600
80000600
80000600
80000600
80000600
80000600
80000600
80000400
80000400
80000400
C0000400
40000400
40000C00
60000800
20001800
10001000
0C006000
07C78000
003C0000
ENDCHAR
STARTCHAR 01B0
ENCODING 432
SWIDTH 540 0
DWIDTH 27 0
BBX 22 32 5 -1
BITMAP
00000C
00000C
00000C
00000C
00000C
000008
8000F0
8000C0
8000C0
8000C0
8000C0
8000C0
8000C0
8000C0
8000C0
8000C0
8000C0
8000C0
8000C0
8000C0
8000C0
8000C0
8000C0
8000C0
8000C0
8000C0
C000C0
4001C0
6001C0
3006C0
0E38C0
018000
ENDCHAR
STARTCHAR 01FA
ENCODING 506
SWIDTH 600 0
DWIDTH 30 0
BBX 26 54 2 1
BITMAP
00018000
00010000
00020000
00040000
00080000
00000000
00000000
00330000
00408000
00408000
00408000
00408000
00408000
00408000
00330000
00000000
00000000
00000000
00000000
000C0000
000C0000
00120000
00120000
00120000
00210000
00210000
00210000
00408000
00408000
00C0C000
00804000
00804000
01806000
01002000
01002000
02001000
02001000
02001000
04000800
04000800
0C000C00
0FFFFC00
08000400
18000600
10000200
10000200
20000100
20000100
20000100
40000080
40000080
C0000080
80000040
80000040
ENDCHAR
STARTCHAR 01FB
ENCODING 507
SWIDTH 500 0
DWIDTH 25 0
BBX 22 46 3 0
BITMAP
000800
001800
003000
002000
004000
000000
004000
03B800
020800
040400
040400
040400
040400
020800
039800
006000
000000
000000
000000
03F800
0C0600
100300
200180
400080
400080
0000C0
000040
000040
000040
000040
000040
03FFC0
1C0040
200040
400040
400040
800040
800040
800040
8000C0
8000C0
400140
400140
200640
1E787C
018000
ENDCHAR
STARTCHAR 01FC
ENCODING 508
SWIDTH 860 0
DWIDTH 43 0
BBX 39 46 0 1
BITMAP
0000000060
0000000040
0000000080
0000000100
0000000300
0000000200
0000000400
0000000000
0000000000
0000000000
0000000000
00001FFFFE
00003C0000
00002C0000
00006C0000
00004C0000
00008C0000
00008C0000
00010C0000
00010C0000
00020C0000
00020C0000
00040C0000
000C0C0000
00080C0000
00180C0000
00100C0000
00200C0000
00200FFFFE
00400C0000
00400C0000
00800C0000
01800C0000
01FFFC0000
03000C0000
02000C0000
06000C0000
04000C0000
08000C0000
08000C0000
10000C0000
10000C0000
20000C0000
60000C0000
40000C0000
C0000FFFFE
ENDCHAR
STARTCHAR 01FD
ENCODING 509
SWIDTH 860 0
DWIDTH 43 0
BBX 37 38 3 0
BITMAP
0000020000
0000040000
0000080000
0000180000
0000100000
0000200000
0000400000
0000400000
0000000000
0000000000
0000000000
03F000FC00
0C0C070300
30030C0080
2001100040
4000900020
4000A00020
0000A00010
0000C00010
0000C00008
0000C00008
0000C00008
0000C00008
03FFFFFFF8
1C00C00000
2000C00000
4000C00000
8000C00000
8000C00000
8000C00000
8000C00000
8000A00010
8000A00010
8001100020
4003180060
20060C0080
1E78038F00
0180003000
ENDCHAR
STARTCHAR 01FE
ENCODING 510
SWIDTH 680 0
DWIDTH 34 0
BBX 27 47 3 -1
BITMAP
00006000
0000C000
00008000
00010000
00020000
00020000
00040000
00000000
00000000
00000000
00000020
007FE040
01801840
06000680
0C000300
08000300
10000280
30000480
20000C40
20000840
60001060
40003020
40002020
40004020
40008020
40018020
40010020
C0020020
C0060020
C0040020
40080020
40180020
40100020
40200020
40400020
40C00020
60800060
21000040
23000040
320000C0
14000080
0C000100
0C000300
16000600
31801C00
20F9F000
40060000
ENDCHAR
STARTCHAR 01FF
ENCODING 511
SWIDTH 540 0
DWIDTH 27 0
BBX 23 38 2 0
BITMAP
000100
000300
000600
000400
000800
001000
001000
000000
000000
000000
000002
007E04
03818C
040068
080030
100030
100048
2000C8
200088
200104
400204
400404
400C04
400804
401004
402004
404004
408004
618004
210004
220008
240008
180018
180010
1C0020
2600C0
41C380
801C00
ENDCHAR
STARTCHAR 0218
ENCODING 536
SWIDTH 540 0
DWIDTH 27 0
BBX 21 46 3 -10
BITMAP
07FF00
1800C0
200020
400010
400008
800000
800000
800000
800000
800000
800000
C00000
400000
600000
300000
0C0000
03C000
003E00
000380
000060
000030
000010
000008
000008
000008
000008
000008
000008
000008
000008
800018
C00010
600020
1800C0
07CF00
003000
000000
000000
002000
003000
003000
001000
002000
002000
004000
004000
ENDCHAR
STARTCHAR 0219
ENCODING 537
SWIDTH 460 0
DWIDTH 23 0
BBX 17 37 3 -11
BITMAP
07F000
180C00
200200
400100
400000
800000
800000
800000
C00000
400000
600000
300000
0F0000
00F800
000600
000300
000100
000080
000080
000080
000080
000080
800080
400100
300200
1E3C00
00E000
000000
000000
00C000
00C000
00C000
004000
004000
008000
008000
010000
ENDCHAR
STARTCHAR 021A
ENCODING 538
SWIDTH 560 0
DWIDTH 28 0
BBX 26 46 1 -11
BITMAP
FFFFFFC0
000C0000
000C0000
000C0000
000C0000
000C0000
000C0000
000C0000
000C0000
000C0000
000C0000
000C0000
000C0000
000C0000
000C0000
000C0000
000C0000
000C0000
000C0000
000C0000
000C0000
000C0000
000C0000
000C0000
000C0000
000C0000
000C0000
000C0000
000C0000
000C0000
000C0000
000C0000
000C0000
000C0000
000C0000
00000000
00000000
00000000
000C0000
000C0000
000C0000
00040000
00040000
00080000
00080000
00100000
ENDCHAR
STARTCHAR 021B
ENCODING 539
SWIDTH 300 0
DWIDTH 15 0
BBX 12 43 1 -11
BITMAP
0400
0400
0400
0400
0400
0400
0400
0400
FFF0
0400
0400
0400
0400
0400
0400
0400
0400
0400
0400
0400
0400
0400
0400
0400
0400
0400
0400
0400
0400
0400
0400
0400
03F0
0000
0000
0000
0080
01C0
00C0
0080
0080
0080
0100
ENDCHAR
STARTCHAR 0237
ENCODING 567
SWIDTH 220 0
DWIDTH 11 0
BBX 5 35 1 -10
BITMAP
08
08
08
08
08
08
08
08
08
08
08
08
08
08
08
08
08
08
08
08
08
08
08
08
08
08
08
08
08
08
08
08
08
08
F8
ENDCHAR
STARTCHAR 0259
ENCODING 601
SWIDTH 520 0
DWIDTH 26 0
BBX 21 27 3 -1
BITMAP
01F800
060700
180180
300040
200060
400020
400030
000010
000010
000010
000010
000018
000018
FFFFF8
800018
800018
800010
800010
400010
400010
400030
200020
300040
1000C0
0C0180
038E00
006000
ENDCHAR
STARTCHAR 02BB
ENCODING 699
SWIDTH 600 0
DWIDTH 30 0
BBX 3 7 14 30
BITMAP
60
40
80
80
80
C0
C0
ENDCHAR
STARTCHAR 02BC
ENCODING 700
SWIDTH 600 0
DWIDTH 30 0
BBX 2 9 12 28
BITMAP
40
40
C0
80
80
80
80
80
80
ENDCHAR
STARTCHAR 02C6
ENCODING 710
SWIDTH 600 0
DWIDTH 30 0
BBX 14 7 8 30
BITMAP
0300
0480
0840
1020
2010
4008
8004
ENDCHAR
STARTCHAR 02C7
ENCODING 711
SWIDTH 600 0
DWIDTH 30 0
BBX 14 7 8 30
BITMAP
C00C
6018
3030
1860
0CC0
0780
0300
ENDCHAR
STARTCHAR 02D8
ENCODING 728
SWIDTH 600 0
DWIDTH 30 0
BBX 12 6 9 31
BITMAP
8010
8010
4020
2040
30C0
0600
ENDCHAR
STARTCHAR 02D9
ENCODING 729
SWIDTH 600 0
DWIDTH 30 0
BBX 2 2 14 33
BITMAP
C0
C0
ENDCHAR
STARTCHAR 02DA
ENCODING 730
SWIDTH 600 0
DWIDTH 30 0
BBX 8 8 11 30
BITMAP
66
81
81
81
81
81
81
66
ENDCHAR
STARTCHAR 02DB
ENCODING 731
SWIDTH 600 0
DWIDTH 30 0
BBX 8 11 8 -10
BITMAP
02
04
18
30
40
40
80
80
80
C3
7E
ENDCHAR
STARTCHAR 02DC
ENCODING 732
SWIDTH 600 0
DWIDTH 30 0
BBX 14 4 8 31
BITMAP
7C00
8204
01DC
0030
ENDCHAR
STARTCHAR 02DD
ENCODING 733
SWIDTH 600 0
DWIDTH 30 0
BBX 13 7 11 30
BITMAP
0808
1818
1010
2020
4040
C0C0
8080
ENDCHAR
STARTCHAR 0300
ENCODING 768
SWIDTH 0 0
DWIDTH 0 0
BBX 6 7 -5 30
BITMAP
C0
60
20
10
18
08
04
ENDCHAR
STARTCHAR 0301
ENCODING 769
SWIDTH 0 0
DWIDTH 0 0
BBX 6 7 -1 30
BITMAP
0C
18
10
20
60
40
80
ENDCHAR
STARTCHAR 0302
ENCODING 770
SWIDTH 0 0
DWIDTH 0 0
BBX 14 7 -7 30
BITMAP
0300
0480
0840
1020
2010
4008
8004
ENDCHAR
STARTCHAR 0303
ENCODING 771
SWIDTH 0 0
DWIDTH 0 0
BBX 14 4 -7 31
BITMAP
7C00
8304
01DC
0020
ENDCHAR
STARTCHAR 0304
ENCODING 772
SWIDTH 0 0
DWIDTH 0 0
BBX 13 1 -6 33
BITMAP
FFF8
ENDCHAR
STARTCHAR 0306
ENCODING 774
SWIDTH 0 0
DWIDTH 0 0
BBX 12 6 -6 31
BITMAP
8010
8010
4020
2060
30C0
0600
ENDCHAR
STARTCHAR 0307
ENCODING 775
SWIDTH 0 0
DWIDTH 0 0
BBX 2 2 -1 33
BITMAP
C0
C0
ENDCHAR
STARTCHAR 0308
ENCODING 776
SWIDTH 0 0
DWIDTH 0 0
BBX 12 3 -6 32
BITMAP
4020
E070
4030
ENDCHAR
STARTCHAR 0309
ENCODING 777
SWIDTH 0 0
DWIDTH 0 0
BBX 8 7 -4 29
BITMAP
FF
01
03
02
04
04
08
ENDCHAR
STARTCHAR 030A
ENCODING 778
SWIDTH 0 0
DWIDTH 0 0
BBX 9 9 -4 29
BITMAP
1000
6600
8100
8100
8080
8080
8100
8100
6600
ENDCHAR
STARTCHAR 030B
ENCODING 779
SWIDTH 0 0
DWIDTH 0 0
BBX 13 7 -4 30
BITMAP
0808
1818
1010
2020
4040
C0C0
8080
ENDCHAR
STARTCHAR 030C
ENCODING 780
SWIDTH 0 0
DWIDTH 0 0
BBX 14 7 -7 30
BITMAP
C00C
6008
3010
1820
0C40
0680
0300
ENDCHAR
STARTCHAR 0312
ENCODING 786
SWIDTH 0 0
DWIDTH 0 0
BBX 3 7 -1 30
BITMAP
60
40
80
80
80
C0
C0
ENDCHAR
STARTCHAR 0315
ENCODING 789
SWIDTH 0 0
DWIDTH 0 0
BBX 2 9 0 28
BITMAP
40
40
40
40
C0
80
80
80
80
ENDCHAR
STARTCHAR 031B
ENCODING 795
SWIDTH 0 0
DWIDTH 0 0
BBX 5 7 -4 24
BITMAP
08
08
08
08
08
08
F8
ENDCHAR
STARTCHAR 0323
ENCODING 803
SWIDTH 0 0
DWIDTH 0 0
BBX 2 3 -1 -7
BITMAP
C0
C0
C0
ENDCHAR
STARTCHAR 0326
ENCODING 806
SWIDTH 0 0
DWIDTH 0 0
BBX 3 8 -2 -11
BITMAP
60
60
60
20
20
40
40
80
ENDCHAR
STARTCHAR 0327
ENCODING 807
SWIDTH 0 0
DWIDTH 0 0
BBX 9 10 -4 -10
BITMAP
1000
1000
1000
1000
0F00
0100
0080
0100
C100
3E00
ENDCHAR
STARTCHAR 0328
ENCODING 808
SWIDTH 0 0
DWIDTH 0 0
BBX 8 11 -7 -10
BITMAP
02
04
08
30
40
40
80
80
80
C3
3E
ENDCHAR
STARTCHAR 037E
ENCODING 894
SWIDTH 240 0
DWIDTH 12 0
BBX 5 32 3 -7
BITMAP
10
38
38
00
00
00
00
00
00
00
00
00
00
00
00
00
00
00
00
00
00
00
10
38
38
08
10
10
10
20
20
C0
ENDCHAR
STARTCHAR 0384
ENCODING 900
SWIDTH 600 0
DWIDTH 30 0
BBX 4 7 15 30
BITMAP
30
20
60
40
40
80
80
ENDCHAR
STARTCHAR 0385
ENCODING 901
SWIDTH 600 0
DWIDTH 30 0
BBX 12 8 9 30
BITMAP
0100
0300
4220
E670
4430
0400
0800
0800
ENDCHAR
STARTCHAR 0386
ENCODING 902
SWIDTH 600 0
DWIDTH 30 0
BBX 26 37 2 1
BITMAP
06000000
04000000
040C0000
080C0000
08120000
10120000
10120000
00210000
00210000
00210000
00408000
00408000
00C0C000
00804000
00804000
01806000
01002000
01002000
02001000
02001000
02001000
04000800
04000800
0C000C00
0FFFFC00
08000400
18000600
10000200
10000200
20000100
20000100
20000100
40000080
40000080
C0000080
80000040
80000040
ENDCHAR
STARTCHAR 0387
ENCODING 903
SWIDTH 240 0
DWIDTH 12 0
BBX 3 3 5 22
BITMAP
40
E0
E0
ENDCHAR
STARTCHAR 0388
ENCODING 904
SWIDTH 580 0
DWIDTH 29 0
BBX 27 37 -1 1
BITMAP
10000000
30000000
21FFFFE0
21800000
41800000
41800000
81800000
81800000
01800000
01800000
01800000
01800000
01800000
01800000
01800000
01800000
01800000
01800000
01800000
01FFFFC0
01800000
01800000
01800000
01800000
01800000
01800000
01800000
01800000
01800000
01800000
01800000
01800000
01800000
01800000
01800000
01800000
01FFFFE0
ENDCHAR
STARTCHAR 0389
ENCODING 905
SWIDTH 700 0
DWIDTH 35 0
BBX 31 37 -1 1
BITMAP
10000000
30000000
21800002
21800002
41800002
41800002
81800002
81800002
01800002
01800002
01800002
01800002
01800002
01800002
01800002
01800002
01800002
01800002
01800002
01FFFFFE
01800002
01800002
01800002
01800002
01800002
01800002
01800002
01800002
01800002
01800002
01800002
01800002
01800002
01800002
01800002
01800002
01800002
ENDCHAR
STARTCHAR 038A
ENCODING 906
SWIDTH 420 0
DWIDTH 21 0
BBX 19 37 -1 1
BITMAP
100000
300000
21FFE0
200800
400800
400800
800800
800800
000800
000800
000800
000800
000800
000800
000800
000800
000800
000800
000800
000800
000800
000800
000800
000800
000800
000800
000800
000800
000800
000800
000800
000800
000800
000800
000800
000800
01FFE0
ENDCHAR
STARTCHAR 038C
ENCODING 908
SWIDTH 680 0
DWIDTH 34 0
BBX 31 38 -1 0
BITMAP
10000000
30000000
2007FE00
20180180
40600060
40C00030
80800010
81000008
0300000C
02000004
02000004
06000006
04000002
04000002
04000002
04000002
04000002
04000002
0C000002
0C000002
0C000002
04000002
04000002
04000002
04000002
04000002
04000002
06000006
02000004
02000004
0300000C
01000008
00800010
00C00030
00600060
003801C0
000F9F00
00006000
ENDCHAR
STARTCHAR 038E
ENCODING 910
SWIDTH 620 0
DWIDTH 31 0
BBX 31 37 -1 1
BITMAP
10000000
30000000
23000002
21000004
41800004
40800008
80400018
80600010
00200020
00300020
00100040
000800C0
000C0080
00040100
00060100
00020200
00010600
00018400
00008800
0000C800
00005000
00003000
00002000
00002000
00002000
00002000
00002000
00002000
00002000
00002000
00002000
00002000
00002000
00002000
00002000
00002000
00002000
ENDCHAR
STARTCHAR 038F
ENCODING 911
SWIDTH 680 0
DWIDTH 34 0
BBX 32 37 -1 1
BITMAP
10000000
30002000
2007FF00
201800C0
40600060
40C00010
80800008
8100000C
01000004
02000002
02000002
06000002
04000001
04000001
04000001
04000001
04000001
04000001
04000001
04000001
04000001
04000001
04000001
04000001
06000003
02000002
02000002
03000004
01000004
00800008
00C00018
00600030
00300060
00180080
00060300
00020200
07FE03FF
ENDCHAR
STARTCHAR 0390
ENCODING 912
SWIDTH 260 0
DWIDTH 13 0
BBX 11 37 1 1
BITMAP
0300
0200
0620
C460
C460
0800
0800
0000
0000
0000
0000
0000
0800
0800
0800
0800
0800
0800
0800
0800
0800
0800
0800
0800
0800
0800
0800
0800
0800
0800
0800
0800
0800
0800
0800
0800
07E0
ENDCHAR
STARTCHAR 0391
ENCODING 913
SWIDTH 600 0
DWIDTH 30 0
BBX 26 35 2 0
BITMAP
000C0000
000C0000
00120000
00120000
00120000
00210000
00210000
00210000
00408000
00408000
00C0C000
00804000
00804000
01806000
01002000
01002000
02001000
02001000
02001000
04000800
04000800
0C000C00
0FFFFC00
08000400
18000600
10000200
10000200
20000100
20000100
20000100
40000080
40000080
C0000080
80000040
80000040
ENDCHAR
STARTCHAR 0392
ENCODING 914
SWIDTH 600 0
DWIDTH 30 0
BBX 22 35 5 0
BITMAP
FFFF00
C000C0
C00060
C00030
C00010
C00018
C00008
C00008
C00008
C00008
C00008
C00018
C00010
C00010
C00020
C000C0
FFFF00
C000E0
C00030
C00008
C00008
C00004
C00004
C00004
C00004
C00004
C00004
C00004
C00004
C00004
C0000C
C00008
C00010
C00060
FFFF80
ENDCHAR
STARTCHAR 0393
ENCODING 915
SWIDTH 500 0
DWIDTH 25 0
BBX 18 35 5 0
BITMAP
FFFFC0
C00000
C00000
C00000
C00000
C00000
C00000
C00000
C00000
C00000
C00000
C00000
C00000
C00000
C00000
C00000
C00000
C00000
C00000
C00000
C00000
C00000
C00000
C00000
C00000
C00000
C00000
C00000
C00000
C00000
C00000
C00000
C00000
C00000
C00000
ENDCHAR
STARTCHAR 0394
ENCODING 916
SWIDTH 600 0
DWIDTH 30 0
BBX 26 35 2 0
BITMAP
000C0000
000C0000
00160000
00120000
00120000
00210000
00210000
00210000
00408000
00408000
00C0C000
00804000
00804000
01806000
01002000
01002000
02001000
02001000
02001000
04000800
04000800
0C000800
08000400
08000400
18000600
10000200
10000200
20000100
20000100
20000100
40000080
40000080
40000080
80000040
FFFFFFC0
ENDCHAR
STARTCHAR 0395
ENCODING 917
SWIDTH 560 0
DWIDTH 28 0
BBX 19 35 5 0
BITMAP
FFFFE0
C00000
C00000
C00000
C00000
C00000
C00000
C00000
C00000
C00000
C00000
C00000
C00000
C00000
C00000
C00000
C00000
FFFFE0
C00000
C00000
C00000
C00000
C00000
C00000
C00000
C00000
C00000
C00000
C00000
C00000
C00000
C00000
C00000
C00000
FFFFE0
ENDCHAR
STARTCHAR 0396
ENCODING 918
SWIDTH 540 0
DWIDTH 27 0
BBX 24 35 2 0
BITMAP
7FFFFE
000002
000004
00000C
000008
000010
000030
000020
000040
0000C0
000080
000100
000300
000200
000400
000C00
000800
001000
003000
002000
004000
00C000
008000
010000
030000
020000
040000
0C0000
080000
100000
300000
200000
400000
C00000
FFFFFF
ENDCHAR
STARTCHAR 0397
ENCODING 919
SWIDTH 680 0
DWIDTH 34 0
BBX 24 35 5 0
BITMAP
C00001
C00001
C00001
C00001
C00001
C00001
C00001
C00001
C00001
C00001
C00001
C00001
C00001
C00001
C00001
C00001
C00001
FFFFFF
C00001
C00001
C00001
C00001
C00001
C00001
C00001
C00001
C00001
C00001
C00001
C00001
C00001
C00001
C00001
C00001
C00001
ENDCHAR
STARTCHAR 0398
ENCODING 920
SWIDTH 680 0
DWIDTH 34 0
BBX 27 36 3 0
BITMAP
007FE000
01801800
06000600
0C000300
08000100
10000080
300000C0
20000040
20000040
60000060
40000020
40000020
40000020
40000020
40000020
40000020
C0000020
C3FFFC20
C0000020
40000020
40000020
40000020
40000020
40000020
40000020
60000060
20000040
20000040
300000C0
10000080
08000100
0C000300
06000600
03801C00
00F9F000
00060000
ENDCHAR
STARTCHAR 0399
ENCODING 921
SWIDTH 360 0
DWIDTH 18 0
BBX 12 35 3 0
BITMAP
FFF0
0200
0200
0200
0200
0200
0200
0200
0200
0200
0200
0200
0200
0200
0200
0200
0200
0200
0200
0200
0200
0200
0200
0200
0200
0200
0200
0200
0200
0200
0200
0200
0200
0200
FFF0
ENDCHAR
STARTCHAR 039A
ENCODING 922
SWIDTH 560 0
DWIDTH 28 0
BBX 22 35 5 0
BITMAP
C00004
C00008
C00010
C00020
C00040
C000C0
C00180
C00300
C00600
C00C00
C00800
C01000
C02000
C04000
C08000
C18000
C24000
C66000
CC2000
D81000
F00800
E00C00
C00400
C00200
C00300
C00100
C00080
C000C0
C00040
C00020
C00030
C00010
C00008
C0000C
C00004
ENDCHAR
STARTCHAR 039B
ENCODING 923
SWIDTH 580 0
DWIDTH 29 0
BBX 26 35 2 0
BITMAP
000C0000
001C0000
00140000
00120000
00320000
00220000
00210000
00410000
00410000
00408000
00808000
0080C000
00804000
01004000
01006000
01002000
02002000
02001000
06001000
04001000
04000800
0C000800
08000800
08000400
10000400
10000600
10000200
20000200
20000300
20000100
40000100
40000080
C0000080
80000080
80000040
ENDCHAR
STARTCHAR 039C
ENCODING 924
SWIDTH 780 0
DWIDTH 39 0
BBX 29 35 5 0
BITMAP
C0000018
A0000018
B0000038
90000028
88000048
880000C8
84000088
86000108
82000108
81000208
81000608
80800408
80C00808
80400808
80201008
80203008
80102008
80184008
80084008
80048008
80058008
80030008
80020008
80000008
80000008
80000008
80000008
80000008
80000008
80000008
80000008
80000008
80000008
80000008
80000008
ENDCHAR
STARTCHAR 039D
ENCODING 925
SWIDTH 680 0
DWIDTH 34 0
BBX 24 35 5 0
BITMAP
C00001
A00001
B00001
900001
980001
880001
840001
860001
820001
810001
818001
808001
804001
804001
802001
803001
801001
800801
800C01
800401
800201
800201
800101
800181
800081
800041
800061
800021
800011
800011
800009
80000D
800005
800003
800003
ENDCHAR
STARTCHAR 039E
ENCODING 926
SWIDTH 540 0
DWIDTH 27 0
BBX 20 35 4 0
BITMAP
FFFFF0
000000
000000
000000
000000
000000
000000
000000
000000
000000
000000
000000
000000
000000
000000
000000
000000
7FFFE0
000000
000000
000000
000000
000000
000000
000000
000000
000000
000000
000000
000000
000000
000000
000000
000000
FFFFF0
ENDCHAR
STARTCHAR 039F
ENCODING 927
SWIDTH 680 0
DWIDTH 34 0
BBX 27 36 3 0
BITMAP
007FE000
01801800
06000600
0C000300
08000100
10000080
300000C0
20000040
20000040
60000060
40000020
40000020
40000020
40000020
40000020
40000020
C0000020
C0000020
C0000020
40000020
40000020
40000020
40000020
40000020
40000020
60000060
20000040
20000040
300000C0
10000080
08000100
0C000300
06000600
03801C00
00F9F000
00060000
ENDCHAR
STARTCHAR 03A0
ENCODING 928
SWIDTH 660 0
DWIDTH 33 0
BBX 24 35 5 0
BITMAP
FFFFFF
C00003
C00003
C00003
C00003
C00003
C00003
C00003
C00003
C00003
C00003
C00003
C00003
C00003
C00003
C00003
C00003
C00003
C00003
C00003
C00003
C00003
C00003
C00003
C00003
C00003
C00003
C00003
C00003
C00003
C00003
C00003
C00003
C00003
C00003
ENDCHAR
STARTCHAR 03A1
ENCODING 929
SWIDTH 580 0
DWIDTH 29 0
BBX 23 35 5 0
BITMAP
FFFF80
C000E0
C00030
C00008
C00008
C00004
C00004
C00004
C00004
C00006
C00004
C00004
C00004
C00004
C00008
C00008
C00030
C000E0
FFFF80
C00000
C00000
C00000
C00000
C00000
C00000
C00000
C00000
C00000
C00000
C00000
C00000
C00000
C00000
C00000
C00000
ENDCHAR
STARTCHAR 03A3
ENCODING 931
SWIDTH 560 0
DWIDTH 28 0
BBX 23 35 2 0
BITMAP
7FFFFE
400000
200000
100000
080000
0C0000
060000
020000
010000
008000
004000
006000
003000
001000
000800
000400
000200
000200
000600
000C00
000800
001000
002000
004000
00C000
018000
010000
020000
040000
080000
180000
300000
200000
400000
FFFFFE
ENDCHAR
STARTCHAR 03A4
ENCODING 932
SWIDTH 560 0
DWIDTH 28 0
BBX 26 35 1 0
BITMAP
FFFFFFC0
000C0000
000C0000
000C0000
000C0000
000C0000
000C0000
000C0000
000C0000
000C0000
000C0000
000C0000
000C0000
000C0000
000C0000
000C0000
000C0000
000C0000
000C0000
000C0000
000C0000
000C0000
000C0000
000C0000
000C0000
000C0000
000C0000
000C0000
000C0000
000C0000
000C0000
000C0000
000C0000
000C0000
000C0000
ENDCHAR
STARTCHAR 03A5
ENCODING 933
SWIDTH 540 0
DWIDTH 27 0
BBX 25 35 1 0
BITMAP
C0000080
40000100
60000100
20000200
10000600
18000400
08000800
0C000800
04001000
02003000
03002000
01004000
01804000
00808000
00418000
00610000
00220000
00320000
00140000
000C0000
00080000
00080000
00080000
00080000
00080000
00080000
00080000
00080000
00080000
00080000
00080000
00080000
00080000
00080000
00080000
ENDCHAR
STARTCHAR 03A6
ENCODING 934
SWIDTH 820 0
DWIDTH 41 0
BBX 35 37 3 -1
BITMAP
0000400000
0000400000
0001F80000
007E47C000
0180403000
0600400C00
0C00400600
1800400300
1000400180
2000400080
20004000C0
4000400040
4000400040
4000400040
4000400020
C000400020
C000400020
C000400020
C000400020
C000400020
C000400020
C000400020
4000400020
4000400040
4000400040
6000400040
2000400080
3000400080
1000400100
0800400200
0400400600
0300401800
00E0407000
003FFF8000
0000400000
0000400000
0000400000
ENDCHAR
STARTCHAR 03A7
ENCODING 935
SWIDTH 540 0
DWIDTH 27 0
BBX 24 35 2 0
BITMAP
800003
400002
600004
20000C
100008
180010
080030
040020
060040
0200C0
010080
018100
008300
004200
006400
002C00
001800
001800
003C00
002400
004200
00C300
008100
010080
0300C0
020040
040020
0C0030
080010
100008
30000C
200004
400002
C00003
800001
ENDCHAR
STARTCHAR 03A8
ENCODING 936
SWIDTH 740 0
DWIDTH 37 0
BBX 30 35 4 0
BITMAP
8002000C
8002000C
8002000C
8002000C
8002000C
8002000C
8002000C
8002000C
8002000C
8002000C
8002000C
80020008
80020008
80020008
80020008
C0020008
40020008
40020018
60020010
20020030
10020060
080200C0
06020380
01FA7E00
000F8000
00020000
00020000
00020000
00020000
00020000
00020000
00020000
00020000
00020000
00020000
ENDCHAR
STARTCHAR 03A9
ENCODING 937
SWIDTH 680 0
DWIDTH 34 0
BBX 27 36 4 0
BITMAP
00040000
00FFE000
03001800
0C000C00
18000200
10000100
20000180
20000080
40000040
40000040
C0000040
80000020
80000020
80000020
80000020
80000020
80000020
80000020
80000020
80000020
80000020
80000020
80000020
C0000060
40000040
40000040
60000080
20000080
10000100
18000300
0C000600
06000C00
03001000
00C06000
00404000
FFC07FE0
ENDCHAR
STARTCHAR 03AA
ENCODING 938
SWIDTH 360 0
DWIDTH 18 0
BBX 12 43 3 0
BITMAP
6030
6030
0000
0000
0000
0000
0000
0000
FFF0
0200
0200
0200
0200
0200
0200
0200
0200
0200
0200
0200
0200
0200
0200
0200
0200
0200
0200
0200
0200
0200
0200
0200
0200
0200
0200
0200
0200
0200
0200
0200
0200
0200
FFF0
ENDCHAR
STARTCHAR 03AB
ENCODING 939
SWIDTH 540 0
DWIDTH 27 0
BBX 25 43 1 0
BITMAP
0180C000
0180C000
00000000
00000000
00000000
00000000
00000000
00000000
C0000080
40000100
60000100
20000200
10000600
18000400
08000800
0C000800
04001000
02003000
03002000
01004000
01804000
00808000
00418000
00610000
00220000
00320000
00140000
000C0000
00080000
00080000
00080000
00080000
00080000
00080000
00080000
00080000
00080000
00080000
00080000
00080000
00080000
00080000
00080000
ENDCHAR
STARTCHAR 03AC
ENCODING 940
SWIDTH 620 0
DWIDTH 31 0
BBX 27 38 3 0
BITMAP
00040000
00080000
00080000
00100000
00100000
00100000
00200000
00200000
00000000
00000000
00000000
01F00000
060E0180
18030100
10018100
20008300
60004200
40004200
40002400
C0002400
80002400
80002800
80001800
80001800
80001800
80001800
80001800
80002800
80002400
40002400
40004400
40004400
20008600
20008200
10010200
08020200
071C03E0
00E00000
ENDCHAR
STARTCHAR 03AD
ENCODING 941
SWIDTH 520 0
DWIDTH 26 0
BBX 19 38 4 0
BITMAP
000800
001800
001000
001000
002000
002000
004000
004000
000000
000000
000000
03FC00
0C0300
1000C0
200060
600000
400000
400000
400000
400000
200000
300000
180000
07FE00
0F0000
300000
600000
400000
800000
800000
800000
800000
800000
400020
600040
300180
0F1F00
007000
ENDCHAR
STARTCHAR 03AE
ENCODING 942
SWIDTH 560 0
DWIDTH 28 0
BBX 23 47 1 -9
BITMAP
000080
000180
000100
000100
000200
000200
000400
000400
000000
000000
000000
001F80
FCE060
058010
060008
06000C
040004
040004
040004
040004
040006
040006
040006
040006
040006
040006
040006
040006
040006
040006
040006
040006
040006
040006
040006
040006
040006
000006
000006
000006
000006
000006
000006
000006
000006
000006
000006
ENDCHAR
STARTCHAR 03AF
ENCODING 943
SWIDTH 260 0
DWIDTH 13 0
BBX 7 37 5 1
BITMAP
18
10
10
20
20
40
40
00
00
00
00
00
80
80
80
80
80
80
80
80
80
80
80
80
80
80
80
80
80
80
80
80
80
80
80
80
7E
ENDCHAR
STARTCHAR 03B0
ENCODING 944
SWIDTH 540 0
DWIDTH 27 0
BBX 18 38 5 0
BITMAP
002000
006000
084400
1CCE00
088600
008000
010000
010000
000000
000000
000000
000000
8000C0
8000C0
8000C0
8000C0
8000C0
8000C0
8000C0
8000C0
8000C0
8000C0
8000C0
8000C0
8000C0
8000C0
8000C0
800080
800080
800080
800080
800080
400080
400100
200300
300600
0E1C00
01E000
ENDCHAR
STARTCHAR 03B1
ENCODING 945
SWIDTH 620 0
DWIDTH 31 0
BBX 27 27 3 -1
BITMAP
01F00000
060E0180
18030100
10018100
20008300
60004200
40004200
40002400
C0002400
80002400
80002800
80001800
80001800
80001800
80001800
80001800
80002800
80002400
40002400
40004400
40004400
20008600
20008200
10010200
08020200
071C03E0
00E00000
ENDCHAR
STARTCHAR 03B2
ENCODING 946
SWIDTH 560 0
DWIDTH 28 0
BBX 20 48 5 -10
BITMAP
00E000
071C00
180200
300100
200080
4000C0
400040
400040
400040
800040
800040
800040
800040
800080
800080
800100
800600
87F800
800600
800180
800040
800060
800020
800030
800010
800010
800010
800010
800010
800010
800010
800010
C00020
C00020
A00040
B000C0
980100
870E00
807000
800000
800000
800000
800000
800000
800000
800000
800000
800000
ENDCHAR
STARTCHAR 03B3
ENCODING 947
SWIDTH 460 0
DWIDTH 23 0
BBX 22 35 0 -10
BITMAP
F00004
10000C
080008
080008
080010
040010
040010
040020
020020
020060
030040
010040
010080
008080
008080
008100
004100
004300
004200
002200
002400
002400
001400
001800
001800
000800
000800
000800
000800
000800
000800
000800
000800
000800
000800
ENDCHAR
STARTCHAR 03B4
ENCODING 948
SWIDTH 540 0
DWIDTH 27 0
BBX 21 38 3 -1
BITMAP
3FFFE0
100000
080000
040000
020000
010000
00C000
006000
003000
001800
000C00
000600
00FB00
030100
0C0080
180040
300060
200020
400010
400010
400010
800008
800008
800008
800008
800008
800008
800008
800008
C00008
400010
400010
200030
200020
100040
0C0180
078F00
007000
ENDCHAR
STARTCHAR 03B5
ENCODING 949
SWIDTH 520 0
DWIDTH 26 0
BBX 19 27 4 -1
BITMAP
03FC00
0C0300
1000C0
200060
600000
400000
400000
400000
400000
200000
300000
180000
07FE00
0F0000
300000
600000
400000
800000
800000
800000
800000
800000
400020
600040
300180
0F1F00
007000
ENDCHAR
STARTCHAR 03B6
ENCODING 950
SWIDTH 420 0
DWIDTH 21 0
BBX 17 45 3 -8
BITMAP
7FFF80
000080
000100
000200
000400
000C00
000800
001000
002000
004000
008000
018000
010000
020000
040000
080000
180000
100000
200000
600000
400000
400000
800000
800000
800000
800000
800000
800000
800000
C00000
400000
200000
300000
080000
070000
00E000
003E00
000300
000100
000300
000200
000200
000200
000600
000400
ENDCHAR
STARTCHAR 03B7
ENCODING 951
SWIDTH 560 0
DWIDTH 28 0
BBX 23 36 1 -10
BITMAP
001F80
FCE060
058010
060008
06000C
040004
040004
040004
040004
040006
040006
040006
040006
040006
040006
040006
040006
040006
040006
040006
040006
040006
040006
040006
040006
040006
000006
000006
000006
000006
000006
000006
000006
000006
000006
000006
ENDCHAR
STARTCHAR 03B8
ENCODING 952
SWIDTH 540 0
DWIDTH 27 0
BBX 21 39 3 -1
BITMAP
003000
038E00
040180
080080
100040
100020
200020
200020
200010
400010
400010
400010
400018
400008
400008
400008
400008
400008
C00008
FFFFF8
C00008
400008
400008
400008
400008
400008
400018
400010
400010
400010
200010
200020
200020
100020
100040
0800C0
040180
038E00
003000
ENDCHAR
STARTCHAR 03B9
ENCODING 953
SWIDTH 260 0
DWIDTH 13 0
BBX 7 25 5 0
BITMAP
80
80
80
80
80
80
80
80
80
80
80
80
80
80
80
80
80
80
80
80
80
80
80
80
7E
ENDCHAR
STARTCHAR 03BA
ENCODING 954
SWIDTH 480 0
DWIDTH 24 0
BBX 19 25 5 0
BITMAP
8001E0
800200
800400
800800
801000
802000
806000
80C000
818000
830000
860000
8E0000
9B0000
B18000
E0C000
C06000
802000
801000
800800
800400
800200
800300
800180
8000C0
800040
ENDCHAR
STARTCHAR 03BB
ENCODING 955
SWIDTH 460 0
DWIDTH 23 0
BBX 22 37 1 0
BITMAP
3E0000
020000
020000
010000
010000
010000
008000
008000
008000
004000
004000
004000
006000
006000
00A000
009000
009000
011800
010800
020800
020C00
020400
040400
040200
040200
080200
080100
100100
100100
100080
200080
200080
200040
400040
400040
800020
80003C
ENDCHAR
STARTCHAR 03BC
ENCODING 956
SWIDTH 560 0
DWIDTH 28 0
BBX 22 35 5 -10
BITMAP
800040
800040
800040
800040
800040
800040
800040
800040
800040
800040
800040
800040
800040
800040
800040
800040
800040
800040
C00040
C00040
C000C0
E000C0
A00140
900240
8E3C7C
80C000
800000
800000
800000
800000
800000
800000
800000
800000
800000
ENDCHAR
STARTCHAR 03BD
ENCODING 957
SWIDTH 460 0
DWIDTH 23 0
BBX 22 25 0 0
BITMAP
F00004
10000C
080008
080008
080010
040010
040010
040020
020020
020020
020040
010040
010080
018080
008080
008100
004100
004100
004200
002200
002400
002400
001400
001800
001800
ENDCHAR
STARTCHAR 03BE
ENCODING 958
SWIDTH 460 0
DWIDTH 23 0
BBX 18 45 3 -8
BITMAP
7FFFC0
010000
060000
080000
100000
100000
200000
200000
200000
200000
200000
300000
100000
180000
080000
060000
01FE00
070000
080000
100000
200000
400000
400000
C00000
800000
800000
800000
800000
400000
400000
400000
200000
100000
0C0000
030000
00E000
001E00
000180
000080
000100
000100
000100
000100
000200
000200
ENDCHAR
STARTCHAR 03BF
ENCODING 959
SWIDTH 540 0
DWIDTH 27 0
BBX 21 27 3 -1
BITMAP
01FC00
060300
080080
100040
200020
600030
400010
400010
C00018
800008
800008
800008
800008
800008
800008
800008
800008
800008
400010
400010
400010
200020
200020
100040
0C0180
038E00
007000
ENDCHAR
STARTCHAR 03C0
ENCODING 960
SWIDTH 580 0
DWIDTH 29 0
BBX 27 25 1 0
BITMAP
FFFFFFE0
04000800
04000800
04000800
04000800
04000800
04000800
04000800
04000800
04000800
04000800
04000800
04000800
04000800
04000800
04000800
04000800
04000800
04000800
04000800
04000800
04000800
04000800
04000800
04000F80
ENDCHAR
STARTCHAR 03C1
ENCODING 961
SWIDTH 520 0
DWIDTH 26 0
BBX 20 36 4 -10
BITMAP
01F800
060600
180100
300080
200040
400040
400020
800020
800020
800020
800010
800010
800010
800010
800010
800010
800030
800020
800020
800020
800060
800040
C000C0
A00180
900300
8E1C00
81C000
800000
800000
800000
800000
800000
800000
800000
800000
800000
ENDCHAR
STARTCHAR 03C2
ENCODING 962
SWIDTH 480 0
DWIDTH 24 0
BBX 18 34 3 -8
BITMAP
01F800
060700
080180
1000C0
200040
600000
400000
400000
800000
800000
800000
800000
800000
800000
800000
800000
C00000
400000
400000
200000
100000
080000
060000
038000
007000
000F00
000080
000080
000080
000080
000100
000100
000100
000300
ENDCHAR
STARTCHAR 03C3
ENCODING 963
SWIDTH 540 0
DWIDTH 27 0
BBX 23 26 3 -1
BITMAP
03FFFE
060100
1800C0
100040
200020
400010
400010
400010
800008
800008
800008
800008
800008
800008
800008
800008
800008
C00018
400010
400010
200020
200020
100040
0C0180
078E00
007000
ENDCHAR
STARTCHAR 03C4
ENCODING 964
SWIDTH 480 0
DWIDTH 24 0
BBX 20 25 2 0
BITMAP
FFFFF0
004000
004000
004000
004000
004000
004000
004000
004000
004000
004000
004000
004000
004000
004000
004000
004000
004000
004000
004000
004000
004000
004000
004000
007F00
ENDCHAR
STARTCHAR 03C5
ENCODING 965
SWIDTH 540 0
DWIDTH 27 0
BBX 18 26 5 -1
BITMAP
8000C0
8000C0
8000C0
8000C0
8000C0
8000C0
8000C0
8000C0
8000C0
8000C0
8000C0
8000C0
8000C0
8000C0
8000C0
800080
800080
800080
800080
800080
400080
400100
200300
300600
0E1C00
01E000
ENDCHAR
STARTCHAR 03C6
ENCODING 966
SWIDTH 660 0
DWIDTH 33 0
BBX 28 36 3 -10
BITMAP
00003E00
0C00C300
18010080
30020040
20020040
40020020
40040020
40040020
C0040020
80040020
80040020
80040030
80040030
80040030
80040020
80040020
80040020
80040020
40040020
40040040
40040040
200400C0
10040180
18040300
06040C00
03C4F800
003E0000
00040000
00040000
00040000
00040000
00040000
00040000
00040000
00040000
00040000
ENDCHAR
STARTCHAR 03C7
ENCODING 967
SWIDTH 440 0
DWIDTH 22 0
BBX 22 35 0 -10
BITMAP
F00008
080010
080010
040020
040020
060040
0200C0
020080
010100
010100
008200
008200
004400
004400
002800
002800
003000
003000
002800
004800
004C00
008400
008400
010200
010200
020100
020100
040080
040080
080080
180040
100040
300020
200020
40001C
ENDCHAR
STARTCHAR 03C8
ENCODING 968
SWIDTH 680 0
DWIDTH 34 0
BBX 25 46 5 -10
BITMAP
00080000
00080000
00080000
00080000
00080000
00080000
00080000
00080000
00080000
00080000
00080000
80080080
80080080
80080080
80080080
80080080
80080080
80080080
80080080
80080080
80080080
80080080
80080080
80080080
80080080
80080080
80080080
80080080
80080080
80080100
40080100
40080100
20080200
30080400
18081800
0788F000
003D0000
00080000
00080000
00080000
00080000
00080000
00080000
00080000
00080000
00080000
ENDCHAR
STARTCHAR 03C9
ENCODING 969
SWIDTH 680 0
DWIDTH 34 0
BBX 29 27 3 -1
BITMAP
02000200
0C000100
18000080
10000040
20000020
20000020
40000010
40000010
40000010
40020010
C0020010
80020018
80020018
80020018
80020018
80020018
80020018
C0020010
40020010
40060010
40050010
40050010
20050020
20088020
1018C040
0C607180
01000400
ENDCHAR
STARTCHAR 03CA
ENCODING 970
SWIDTH 260 0
DWIDTH 13 0
BBX 11 34 1 1
BITMAP
C060
C060
0000
0000
0000
0000
0000
0000
0000
0800
0800
0800
0800
0800
0800
0800
0800
0800
0800
0800
0800
0800
0800
0800
0800
0800
0800
0800
0800
0800
0800
0800
0800
07E0
ENDCHAR
STARTCHAR 03CB
ENCODING 971
SWIDTH 540 0
DWIDTH 27 0
BBX 18 36 5 -1
BITMAP
080000
180C00
180C00
000000
000000
000000
000000
000000
000000
000000
8000C0
8000C0
8000C0
8000C0
8000C0
8000C0
8000C0
8000C0
8000C0
8000C0
8000C0
8000C0
8000C0
8000C0
8000C0
800080
800080
800080
800080
800080
400080
400100
200300
300600
0E1C00
01E000
ENDCHAR
STARTCHAR 03CC
ENCODING 972
SWIDTH 540 0
DWIDTH 27 0
BBX 21 38 3 0
BITMAP
000400
000800
000800
001000
001000
001000
002000
002000
000000
000000
000000
01FC00
060300
080080
100040
200020
600030
400010
400010
C00018
800008
800008
800008
800008
800008
800008
800008
800008
800008
400010
400010
400010
200020
200020
100040
0C0180
038E00
007000
ENDCHAR
STARTCHAR 03CD
ENCODING 973
SWIDTH 540 0
DWIDTH 27 0
BBX 18 38 5 0
BITMAP
001000
003000
002000
002000
004000
004000
008000
008000
000000
000000
000000
000000
8000C0
8000C0
8000C0
8000C0
8000C0
8000C0
8000C0
8000C0
8000C0
8000C0
8000C0
8000C0
8000C0
8000C0
8000C0
800080
800080
800080
800080
800080
400080
400100
200300
300600
0E1C00
01E000
ENDCHAR
STARTCHAR 03CE
ENCODING 974
SWIDTH 680 0
DWIDTH 34 0
BBX 29 38 3 0
BITMAP
00004000
00008000
00008000
00010000
00010000
00020000
00020000
00020000
00000000
00000000
00000000
02000200
0C000100
18000080
10000040
20000020
20000020
40000010
40000010
40000010
40020010
C0020010
80020018
80020018
80020018
80020018
80020018
80020018
C0020010
40020010
40060010
40050010
40050010
20050020
20088020
1018C040
0C607180
01000400
ENDCHAR
STARTCHAR 0400
ENCODING 1024
SWIDTH 560 0
DWIDTH 28 0
BBX 19 46 5 1
BITMAP
060000
030000
010000
008000
00C000
004000
002000
000000
000000
000000
000000
FFFFE0
C00000
C00000
C00000
C00000
C00000
C00000
C00000
C00000
C00000
C00000
C00000
C00000
C00000
C00000
C00000
C00000
FFFFE0
C00000
C00000
C00000
C00000
C00000
C00000
C00000
C00000
C00000
C00000
C00000
C00000
C00000
C00000
C00000
C00000
FFFFE0
ENDCHAR
STARTCHAR 0401
ENCODING 1025
SWIDTH 560 0
DWIDTH 28 0
BBX 19 43 5 0
BITMAP
0E0700
0C0300
000000
000000
000000
000000
000000
000000
FFFFE0
C00000
C00000
C00000
C00000
C00000
C00000
C00000
C00000
C00000
C00000
C00000
C00000
C00000
C00000
C00000
C00000
FFFFE0
C00000
C00000
C00000
C00000
C00000
C00000
C00000
C00000
C00000
C00000
C00000
C00000
C00000
C00000
C00000
C00000
FFFFE0
ENDCHAR
STARTCHAR 0402
ENCODING 1026
SWIDTH 760 0
DWIDTH 38 0
BBX 34 43 1 -8
BITMAP
FFFFFFC000
000C000000
000C000000
000C000000
000C000000
000C000000
000C000000
000C000000
000C000000
000C000000
000C000000
000C000000
000C000000
000C000000
000C7FE000
000F801C00
000C000600
000C000100
000C000180
000C000080
000C0000C0
000C000040
000C000040
000C000040
000C000040
000C000040
000C000040
000C000040
000C000040
000C000040
000C000040
000C000040
000C000040
000C000040
000C000040
0000000040
0000000040
0000000040
00000000C0
0000000080
0000000180
0000000300
0000007E00
ENDCHAR
STARTCHAR 0403
ENCODING 1027
SWIDTH 500 0
DWIDTH 25 0
BBX 18 46 5 1
BITMAP
000C00
000800
001000
003000
002000
004000
008000
008000
000000
000000
000000
FFFFC0
C00000
C00000
C00000
C00000
C00000
C00000
C00000
C00000
C00000
C00000
C00000
C00000
C00000
C00000
C00000
C00000
C00000
C00000
C00000
C00000
C00000
C00000
C00000
C00000
C00000
C00000
C00000
C00000
C00000
C00000
C00000
C00000
C00000
C00000
ENDCHAR
STARTCHAR 0404
ENCODING 1028
SWIDTH 600 0
DWIDTH 30 0
BBX 24 37 3 -1
BITMAP
000400
00FFC0
038030
060008
0C0004
180002
100003
300001
200000
200000
400000
400000
400000
400000
400000
400000
400000
C00000
FFFFE0
C00000
400000
400000
400000
400000
400000
400000
400000
200000
200000
200001
100001
180002
0C0004
06000C
030030
00F3E0
001E00
ENDCHAR
STARTCHAR 0405
ENCODING 1029
SWIDTH 540 0
DWIDTH 27 0
BBX 21 36 3 0
BITMAP
07FF00
1800C0
200020
400010
400008
800000
800000
800000
800000
800000
800000
C00000
400000
600000
300000
0C0000
03C000
003E00
000380
000060
000030
000010
000008
000008
000008
000008
000008
000008
000008
000008
800018
C00010
600020
1800C0
07CF00
003000
ENDCHAR
STARTCHAR 0406
ENCODING 1030
SWIDTH 360 0
DWIDTH 18 0
BBX 12 35 3 0
BITMAP
FFF0
0200
0200
0200
0200
0200
0200
0200
0200
0200
0200
0200
0200
0200
0200
0200
0200
0200
0200
0200
0200
0200
0200
0200
0200
0200
0200
0200
0200
0200
0200
0200
0200
0200
FFF0
ENDCHAR
STARTCHAR 0407
ENCODING 1031
SWIDTH 360 0
DWIDTH 18 0
BBX 12 43 3 0
BITMAP
6030
6030
0000
0000
0000
0000
0000
0000
FFF0
0200
0200
0200
0200
0200
0200
0200
0200
0200
0200
0200
0200
0200
0200
0200
0200
0200
0200
0200
0200
0200
0200
0200
0200
0200
0200
0200
0200
0200
0200
0200
0200
0200
FFF0
ENDCHAR
STARTCHAR 0408
ENCODING 1032
SWIDTH 460 0
DWIDTH 23 0
BBX 17 36 1 -1
BITMAP
0FFF80
000080
000080
000080
000080
000080
000080
000080
000080
000080
000080
000080
000080
000080
000080
000080
000080
000080
000080
000080
000080
000080
000080
000080
000080
000080
000080
000080
000080
800080
C00180
400100
200200
100600
0F3800
00C000
ENDCHAR
STARTCHAR 0409
ENCODING 1033
SWIDTH 960 0
DWIDTH 48 0
BBX 46 35 0 0
BITMAP
007FFF800000
004000800000
004000800000
004000800000
004000800000
004000800000
004000800000
004000800000
004000800000
004000800000
004000800000
004000800000
004000800000
004000800000
004000800000
004000FFFF00
0040008000C0
004000800020
004000800010
004000800008
00C000800008
008000800008
008000800004
008000800004
008000800004
008000800004
010000800004
010000800004
010000800008
030000800008
020000800008
060000800010
040000800020
0800008000C0
F00000FFFF80
ENDCHAR
STARTCHAR 040A
ENCODING 1034
SWIDTH 1020 0
DWIDTH 51 0
BBX 44 35 5 0
BITMAP
C00002000000
C00002000000
C00002000000
C00002000000
C00002000000
C00002000000
C00002000000
C00002000000
C00002000000
C00002000000
C00002000000
C00002000000
C00002000000
C00002000000
C00002000000
C00002000000
FFFFFFFFFC00
C00002000300
C00002000080
C00002000040
C00002000060
C00002000020
C00002000020
C00002000030
C00002000030
C00002000030
C00002000030
C00002000030
C00002000020
C00002000020
C00002000060
C00002000040
C00002000080
C00002000300
C00003FFFC00
ENDCHAR
STARTCHAR 040B
ENCODING 1035
SWIDTH 780 0
DWIDTH 39 0
BBX 35 35 1 0
BITMAP
FFFFFFC000
000C000000
000C000000
000C000000
000C000000
000C000000
000C000000
000C000000
000C000000
000C000000
000C000000
000C000000
000C000000
000C000000
000C7FF000
000F801C00
000C000300
000C000180
000C000080
000C0000C0
000C000040
000C000040
000C000040
000C000060
000C000020
000C000020
000C000020
000C000020
000C000020
000C000020
000C000020
000C000020
000C000020
000C000020
000C000020
ENDCHAR
STARTCHAR 040C
ENCODING 1036
SWIDTH 600 0
DWIDTH 30 0
BBX 24 46 5 1
BITMAP
000600
000400
000800
001800
001000
002000
004000
004000
000000
000000
000000
C0001E
C00010
C00020
C00060
C00040
C00080
C00080
C00100
C00300
C00200
C00600
C00400
C00800
C01800
C01000
C03000
C02000
FFC000
C02000
C01000
C01000
C00800
C00C00
C00400
C00200
C00300
C00100
C00180
C00080
C00040
C00060
C00020
C00030
C00010
C0000F
ENDCHAR
STARTCHAR 040D
ENCODING 1037
SWIDTH 680 0
DWIDTH 34 0
BBX 24 46 5 1
BITMAP
008000
00C000
004000
002000
001000
001800
000800
000000
000000
000000
000000
800001
800003
800003
800005
80000D
800009
800011
800031
800021
800041
8000C1
800081
800101
800301
800201
800401
800C01
800801
801001
803001
802001
804001
80C001
808001
810001
830001
820001
840001
8C0001
880001
900001
900001
A00001
C00001
C00001
ENDCHAR
STARTCHAR 040E
ENCODING 1038
SWIDTH 560 0
DWIDTH 28 0
BBX 25 45 2 1
BITMAP
01002000
01002000
00804000
00C0C000
00618000
000C0000
00000000
00000000
00000000
00000000
80000080
80000180
40000100
40000100
20000200
20000200
10000600
10000400
08000400
08000800
04000800
04001800
02001000
02001000
01002000
01002000
00806000
00804000
00404000
00408000
00608000
00218000
00310000
00110000
001A0000
000A0000
000E0000
00040000
00040000
00080000
00080000
00180000
00100000
00100000
03E00000
ENDCHAR
STARTCHAR 040F
ENCODING 1039
SWIDTH 660 0
DWIDTH 33 0
BBX 24 43 5 -8
BITMAP
C00003
C00003
C00003
C00003
C00003
C00003
C00003
C00003
C00003
C00003
C00003
C00003
C00003
C00003
C00003
C00003
C00003
C00003
C00003
C00003
C00003
C00003
C00003
C00003
C00003
C00003
C00003
C00003
C00003
C00003
C00003
C00003
C00003
C00003
FFFFFF
001800
001800
001800
001800
001800
001800
001800
001800
ENDCHAR
STARTCHAR 0410
ENCODING 1040
SWIDTH 600 0
DWIDTH 30 0
BBX 26 35 2 0
BITMAP
000C0000
000C0000
00120000
00120000
00120000
00210000
00210000
00210000
00408000
00408000
00C0C000
00804000
00804000
01806000
01002000
01002000
02001000
02001000
02001000
04000800
04000800
0C000C00
0FFFFC00
08000400
18000600
10000200
10000200
20000100
20000100
20000100
40000080
40000080
C0000080
80000040
80000040
ENDCHAR
STARTCHAR 0411
ENCODING 1041
SWIDTH 600 0
DWIDTH 30 0
BBX 22 35 5 0
BITMAP
FFFFE0
C00000
C00000
C00000
C00000
C00000
C00000
C00000
C00000
C00000
C00000
C00000
C00000
C00000
C00000
FFFF00
C000C0
C00030
C00010
C00008
C00008
C0000C
C00004
C00004
C00004
C00004
C00004
C00004
C0000C
C00008
C00008
C00010
C00030
C000E0
FFFF80
ENDCHAR
STARTCHAR 0412
ENCODING 1042
SWIDTH 600 0
DWIDTH 30 0
BBX 22 35 5 0
BITMAP
FFFF00
C000C0
C00060
C00030
C00010
C00018
C00008
C00008
C00008
C00008
C00008
C00018
C00010
C00010
C00020
C000C0
FFFF00
C000E0
C00030
C00008
C00008
C00004
C00004
C00004
C00004
C00004
C00004
C00004
C00004
C00004
C0000C
C00008
C00010
C00060
FFFF80
ENDCHAR
STARTCHAR 0413
ENCODING 1043
SWIDTH 500 0
DWIDTH 25 0
BBX 18 35 5 0
BITMAP
FFFFC0
C00000
C00000
C00000
C00000
C00000
C00000
C00000
C00000
C00000
C00000
C00000
C00000
C00000
C00000
C00000
C00000
C00000
C00000
C00000
C00000
C00000
C00000
C00000
C00000
C00000
C00000
C00000
C00000
C00000
C00000
C00000
C00000
C00000
C00000
ENDCHAR
STARTCHAR 0414
ENCODING 1044
SWIDTH 660 0
DWIDTH 33 0
BBX 31 43 0 -8
BITMAP
007FFFC0
00400040
00400040
00400040
00400040
00400040
00400040
00400040
00400040
00400040
00400040
00400040
00400040
00400040
00400040
00400040
00400040
00400040
00400040
00C00040
00800040
00800040
00800040
00800040
00800040
01800040
01000040
01000040
01000040
02000040
02000040
06000040
04000040
0C000040
FFFFFFFE
C0000002
C0000002
C0000002
C0000002
C0000002
C0000002
C0000002
C0000002
ENDCHAR
STARTCHAR 0415
ENCODING 1045
SWIDTH 560 0
DWIDTH 28 0
BBX 19 35 5 0
BITMAP
FFFFE0
C00000
C00000
C00000
C00000
C00000
C00000
C00000
C00000
C00000
C00000
C00000
C00000
C00000
C00000
C00000
C00000
FFFFE0
C00000
C00000
C00000
C00000
C00000
C00000
C00000
C00000
C00000
C00000
C00000
C00000
C00000
C00000
C00000
C00000
FFFFE0
ENDCHAR
STARTCHAR 0416
ENCODING 1046
SWIDTH 900 0
DWIDTH 45 0
BBX 41 35 2 0
BITMAP
700008000700
080008000800
0C0008001800
040008001000
020008003000
020008002000
010008006000
010008004000
00800800C000
008008008000
004008018000
004008010000
002008020000
003008020000
001008040000
001808040000
000808080000
0007FFF00000
0008080C0000
001008040000
001008060000
002008020000
006008010000
004008010000
00C008008000
008008008000
010008004000
010008004000
020008002000
020008003000
040008001000
0C0008001800
080008000800
180008000400
F00008000780
ENDCHAR
STARTCHAR 0417
ENCODING 1047
SWIDTH 560 0
DWIDTH 28 0
BBX 22 37 3 -1
BITMAP
001000
03FF80
0C00C0
180030
200010
600008
000008
00000C
000004
000004
000004
00000C
000008
000008
000010
000030
000060
000380
03FF00
0000E0
000030
000018
00000C
000004
000004
000004
000004
000004
000004
000004
000004
800008
400018
200030
180060
07C780
003800
ENDCHAR
STARTCHAR 0418
ENCODING 1048
SWIDTH 680 0
DWIDTH 34 0
BBX 24 35 5 0
BITMAP
800001
800003
800003
800005
80000D
800009
800011
800031
800021
800041
8000C1
800081
800101
800301
800201
800401
800C01
800801
801001
803001
802001
804001
80C001
808001
810001
830001
820001
840001
8C0001
880001
900001
900001
A00001
C00001
C00001
ENDCHAR
STARTCHAR 0419
ENCODING 1049
SWIDTH 680 0
DWIDTH 34 0
BBX 24 45 5 1
BITMAP
020040
030040
010080
008180
006300
001800
000000
000000
000000
000000
800001
800003
800003
800005
80000D
800009
800011
800031
800021
800041
8000C1
800081
800101
800301
800201
800401
800C01
800801
801001
803001
802001
804001
80C001
808001
810001
830001
820001
840001
8C0001
880001
900001
900001
A00001
C00001
C00001
ENDCHAR
STARTCHAR 041A
ENCODING 1050
SWIDTH 600 0
DWIDTH 30 0
BBX 24 35 5 0
BITMAP
C0001E
C00010
C00020
C00060
C00040
C00080
C00080
C00100
C00300
C00200
C00600
C00400
C00800
C01800
C01000
C03000
C02000
FFC000
C02000
C01000
C01000
C00800
C00C00
C00400
C00200
C00300
C00100
C00180
C00080
C00040
C00060
C00020
C00030
C00010
C0000F
ENDCHAR
STARTCHAR 041B
ENCODING 1051
SWIDTH 620 0
DWIDTH 31 0
BBX 27 35 0 0
BITMAP
007FFFE0
00400060
00400060
00400060
00400060
00400060
00400060
00400060
00400060
00400060
00400060
00400060
00400060
00400060
00400060
00400060
00400060
00400060
00400060
00400060
00C00060
00800060
00800060
00800060
00800060
00800060
01000060
01000060
01000060
03000060
02000060
06000060
04000060
08000060
F0000060
ENDCHAR
STARTCHAR 041C
ENCODING 1052
SWIDTH 780 0
DWIDTH 39 0
BBX 29 35 5 0
BITMAP
C0000018
A0000018
B0000038
90000028
88000048
880000C8
84000088
86000108
82000108
81000208
81000608
80800408
80C00808
80400808
80201008
80203008
80102008
80184008
80084008
80048008
80058008
80030008
80020008
80000008
80000008
80000008
80000008
80000008
80000008
80000008
80000008
80000008
80000008
80000008
80000008
ENDCHAR
STARTCHAR 041D
ENCODING 1053
SWIDTH 680 0
DWIDTH 34 0
BBX 24 35 5 0
BITMAP
C00001
C00001
C00001
C00001
C00001
C00001
C00001
C00001
C00001
C00001
C00001
C00001
C00001
C00001
C00001
C00001
C00001
FFFFFF
C00001
C00001
C00001
C00001
C00001
C00001
C00001
C00001
C00001
C00001
C00001
C00001
C00001
C00001
C00001
C00001
C00001
ENDCHAR
STARTCHAR 041E
ENCODING 1054
SWIDTH 680 0
DWIDTH 34 0
BBX 27 36 3 0
BITMAP
007FE000
01801800
06000600
0C000300
08000100
10000080
300000C0
20000040
20000040
60000060
40000020
40000020
40000020
40000020
40000020
40000020
C0000020
C0000020
C0000020
40000020
40000020
40000020
40000020
40000020
40000020
60000060
20000040
20000040
300000C0
10000080
08000100
0C000300
06000600
03801C00
00F9F000
00060000
ENDCHAR
STARTCHAR 041F
ENCODING 1055
SWIDTH 660 0
DWIDTH 33 0
BBX 24 35 5 0
BITMAP
FFFFFF
C00003
C00003
C00003
C00003
C00003
C00003
C00003
C00003
C00003
C00003
C00003
C00003
C00003
C00003
C00003
C00003
C00003
C00003
C00003
C00003
C00003
C00003
C00003
C00003
C00003
C00003
C00003
C00003
C00003
C00003
C00003
C00003
C00003
C00003
ENDCHAR
STARTCHAR 0420
ENCODING 1056
SWIDTH 580 0
DWIDTH 29 0
BBX 23 35 5 0
BITMAP
FFFF80
C000E0
C00030
C00008
C00008
C00004
C00004
C00004
C00004
C00006
C00004
C00004
C00004
C00004
C00008
C00008
C00030
C000E0
FFFF80
C00000
C00000
C00000
C00000
C00000
C00000
C00000
C00000
C00000
C00000
C00000
C00000
C00000
C00000
C00000
C00000
ENDCHAR
STARTCHAR 0421
ENCODING 1057
SWIDTH 600 0
DWIDTH 30 0
BBX 24 37 3 -1
BITMAP
000400
00FFC0
038030
060008
0C0004
180002
100003
300001
200000
200000
400000
400000
400000
400000
400000
400000
400000
C00000
C00000
C00000
400000
400000
400000
400000
400000
400000
400000
200000
200000
200001
100001
180002
0C0004
06000C
030030
00F3E0
001E00
ENDCHAR
STARTCHAR 0422
ENCODING 1058
SWIDTH 560 0
DWIDTH 28 0
BBX 26 35 1 0
BITMAP
FFFFFFC0
000C0000
000C0000
000C0000
000C0000
000C0000
000C0000
000C0000
000C0000
000C0000
000C0000
000C0000
000C0000
000C0000
000C0000
000C0000
000C0000
000C0000
000C0000
000C0000
000C0000
000C0000
000C0000
000C0000
000C0000
000C0000
000C0000
000C0000
000C0000
000C0000
000C0000
000C0000
000C0000
000C0000
000C0000
ENDCHAR
STARTCHAR 0423
ENCODING 1059
SWIDTH 560 0
DWIDTH 28 0
BBX 25 35 2 0
BITMAP
80000080
80000180
40000100
40000100
20000200
20000200
10000600
10000400
08000400
08000800
04000800
04001800
02001000
02001000
01002000
01002000
00806000
00804000
00404000
00408000
00608000
00218000
00310000
00110000
001A0000
000A0000
000E0000
00040000
00040000
00080000
00080000
00180000
00100000
00100000
03E00000
ENDCHAR
STARTCHAR 0424
ENCODING 1060
SWIDTH 800 0
DWIDTH 40 0
BBX 35 37 3 -1
BITMAP
0000400000
0000400000
0000400000
0000400000
001FFF0000
00E041E000
0300403800
0400400C00
0800400200
1000400100
2000400180
2000400080
40004000C0
4000400040
C000400040
8000400040
8000400060
8000400060
8000400060
8000400060
8000400060
8000400040
8000400040
4000400040
4000400040
6000400080
2000400180
1000400100
1800400200
0C00400400
0300401800
01C040E000
003FFF8000
0000400000
0000400000
0000400000
0000400000
ENDCHAR
STARTCHAR 0425
ENCODING 1061
SWIDTH 540 0
DWIDTH 27 0
BBX 24 35 2 0
BITMAP
800003
400002
600004
20000C
100008
180010
080030
040020
060040
0200C0
010080
018100
008300
004200
006400
002C00
001800
001800
003C00
002400
004200
00C300
008100
010080
0300C0
020040
040020
0C0030
080010
100008
30000C
200004
400002
C00003
800001
ENDCHAR
STARTCHAR 0426
ENCODING 1062
SWIDTH 700 0
DWIDTH 35 0
BBX 28 43 5 -8
BITMAP
C0000300
C0000300
C0000300
C0000300
C0000300
C0000300
C0000300
C0000300
C0000300
C0000300
C0000300
C0000300
C0000300
C0000300
C0000300
C0000300
C0000300
C0000300
C0000300
C0000300
C0000300
C0000300
C0000300
C0000300
C0000300
C0000300
C0000300
C0000300
C0000300
C0000300
C0000300
C0000300
C0000300
C0000300
FFFFFFF0
00000010
00000010
00000010
00000010
00000010
00000010
00000010
00000010
ENDCHAR
STARTCHAR 0427
ENCODING 1063
SWIDTH 620 0
DWIDTH 31 0
BBX 23 35 3 0
BITMAP
C00002
C00002
C00002
C00002
C00002
C00002
C00002
C00002
C00002
C00002
C00002
C00002
400002
400002
400002
600002
200002
300002
180002
07001E
01FFE2
000002
000002
000002
000002
000002
000002
000002
000002
000002
000002
000002
000002
000002
000002
ENDCHAR
STARTCHAR 0428
ENCODING 1064
SWIDTH 900 0
DWIDTH 45 0
BBX 35 35 5 0
BITMAP
C000400020
C000400020
C000400020
C000400020
C000400020
C000400020
C000400020
C000400020
C000400020
C000400020
C000400020
C000400020
C000400020
C000400020
C000400020
C000400020
C000400020
C000400020
C000400020
C000400020
C000400020
C000400020
C000400020
C000400020
C000400020
C000400020
C000400020
C000400020
C000400020
C000400020
C000400020
C000400020
C000400020
C000400020
FFFFFFFFE0
ENDCHAR
STARTCHAR 0429
ENCODING 1065
SWIDTH 920 0
DWIDTH 46 0
BBX 39 43 5 -8
BITMAP
C000400020
C000400020
C000400020
C000400020
C000400020
C000400020
C000400020
C000400020
C000400020
C000400020
C000400020
C000400020
C000400020
C000400020
C000400020
C000400020
C000400020
C000400020
C000400020
C000400020
C000400020
C000400020
C000400020
C000400020
C000400020
C000400020
C000400020
C000400020
C000400020
C000400020
C000400020
C000400020
C000400020
C000400020
FFFFFFFFFE
0000000002
0000000002
0000000002
0000000002
0000000002
0000000002
0000000002
0000000002
ENDCHAR
STARTCHAR 042A
ENCODING 1066
SWIDTH 720 0
DWIDTH 36 0
BBX 32 35 1 0
BITMAP
FFE00000
00200000
00200000
00200000
00200000
00200000
00200000
00200000
00200000
00200000
00200000
00200000
00200000
00200000
00200000
003FFFE0
00200038
0020000C
00200006
00200002
00200003
00200001
00200001
00200001
00200001
00200001
00200001
00200001
00200001
00200003
00200002
00200006
0020000C
00200038
003FFFE0
ENDCHAR
STARTCHAR 042B
ENCODING 1067
SWIDTH 820 0
DWIDTH 41 0
BBX 31 35 5 0
BITMAP
C0000002
C0000002
C0000002
C0000002
C0000002
C0000002
C0000002
C0000002
C0000002
C0000002
C0000002
C0000002
C0000002
C0000002
C0000002
FFFF0002
C000C002
C0003002
C0001002
C0000802
C0000802
C0000C02
C0000402
C0000402
C0000402
C0000402
C0000402
C0000402
C0000C02
C0000802
C0000802
C0001002
C0003002
C000E002
FFFF8002
ENDCHAR
STARTCHAR 042C
ENCODING 1068
SWIDTH 600 0
DWIDTH 30 0
BBX 22 35 5 0
BITMAP
C00000
C00000
C00000
C00000
C00000
C00000
C00000
C00000
C00000
C00000
C00000
C00000
C00000
C00000
C00000
FFFF80
C000E0
C00030
C00018
C00008
C00004
C00004
C00004
C00004
C00004
C00004
C00004
C00004
C00004
C00004
C00008
C00008
C00010
C00060
FFFF80
ENDCHAR
STARTCHAR 042D
ENCODING 1069
SWIDTH 600 0
DWIDTH 30 0
BBX 24 36 3 0
BITMAP
03FF00
0C00C0
180020
300010
600008
40000C
800004
000004
000002
000002
000002
000003
000001
000001
000001
000001
000001
07FFFF
000001
000001
000001
000001
000001
000003
000002
000002
000002
000006
800004
40000C
600008
200010
100020
0C00C0
03CF80
003000
ENDCHAR
STARTCHAR 042E
ENCODING 1070
SWIDTH 900 0
DWIDTH 45 0
BBX 37 37 5 -1
BITMAP
0000010000
C0003FF800
C000C00E00
C001800300
C002000180
C0060000C0
C004000040
C008000020
C008000020
C010000030
C010000010
C010000010
C010000010
C030000010
C020000018
C020000018
C020000008
C020000008
FFE0000008
C020000008
C020000008
C020000018
C020000018
C030000010
C010000010
C010000010
C010000010
C010000030
C008000020
C008000020
C004000040
C0060000C0
C002000180
C001800300
C000C00600
C0003EF800
0000070000
ENDCHAR
STARTCHAR 042F
ENCODING 1071
SWIDTH 620 0
DWIDTH 31 0
BBX 24 35 2 0
BITMAP
00FFFF
070001
0C0001
080001
100001
100001
200001
200001
200001
200001
200001
200001
200001
100001
100001
080001
0C0001
070001
00FFFF
003001
002001
004001
004001
008001
008001
010001
010001
020001
020001
040001
040001
080001
180001
100001
F00001
ENDCHAR
STARTCHAR 0430
ENCODING 1072
SWIDTH 500 0
DWIDTH 25 0
BBX 22 27 3 -1
BITMAP
03F800
0C0600
100300
200180
400080
400080
0000C0
000040
000040
000040
000040
000040
03FFC0
1C0040
200040
400040
400040
800040
800040
800040
8000C0
8000C0
400140
400140
200640
1E787C
018000
ENDCHAR
STARTCHAR 0431
ENCODING 1073
SWIDTH 540 0
DWIDTH 27 0
BBX 21 38 3 -1
BITMAP
001FE0
01E000
070000
0C0000
180000
100000
300000
200000
200000
400000
400000
400000
43FE00
460180
4800C0
D00020
E00020
A00010
C00010
C00008
C00008
800008
800008
800008
800008
800008
800008
800008
400008
400008
400010
400010
200030
300020
180040
0C0180
038700
003800
ENDCHAR
STARTCHAR 0432
ENCODING 1074
SWIDTH 540 0
DWIDTH 27 0
BBX 18 25 5 0
BITMAP
FFFE00
800300
800180
800080
800080
800080
800080
800080
800080
800100
800300
801C00
FFFE00
800180
800080
800040
800040
800040
800040
800040
800040
800040
800080
800180
FFFE00
ENDCHAR
STARTCHAR 0433
ENCODING 1075
SWIDTH 440 0
DWIDTH 22 0
BBX 15 25 5 0
BITMAP
FFFE
8000
8000
8000
8000
8000
8000
8000
8000
8000
8000
8000
8000
8000
8000
8000
8000
8000
8000
8000
8000
8000
8000
8000
8000
ENDCHAR
STARTCHAR 0434
ENCODING 1076
SWIDTH 540 0
DWIDTH 27 0
BBX 25 32 0 -7
BITMAP
01FFF800
01000800
01000800
01000800
01000800
01000800
01000800
01000800
01000800
01000800
01000800
01000800
01000800
01000800
02000800
02000800
02000800
02000800
04000800
04000800
04000800
08000800
08000800
10000800
FFFFFF80
80000080
80000080
80000080
80000080
80000080
80000080
80000080
ENDCHAR
STARTCHAR 0435
ENCODING 1077
SWIDTH 520 0
DWIDTH 26 0
BBX 21 27 3 -1
BITMAP
01F800
060700
080180
1000C0
200060
600020
400030
400010
C00010
800010
800018
800018
FFFFF8
800000
800000
800000
800000
800000
400000
400000
400010
200020
200020
100040
0C0180
038F00
006000
ENDCHAR
STARTCHAR 0436
ENCODING 1078
SWIDTH 720 0
DWIDTH 36 0
BBX 33 25 2 0
BITMAP
F000800700
0800800800
0800801800
0400801000
0600802000
0200802000
0100804000
0100804000
0080808000
0080808000
0040810000
003FFE0000
0040810000
00C0810000
0080808000
0180808000
0100804000
0300804000
0200802000
0600803000
0400801000
0800801800
0800800800
1000800C00
F000800780
ENDCHAR
STARTCHAR 0437
ENCODING 1079
SWIDTH 480 0
DWIDTH 24 0
BBX 18 27 3 -1
BITMAP
03F000
1C0C00
300300
400100
C00080
000080
000080
000080
000080
000100
000100
000600
0FF800
003C00
000300
000180
000080
000080
000040
000040
0000C0
800080
800080
400100
300200
1E3C00
00A000
ENDCHAR
STARTCHAR 0438
ENCODING 1080
SWIDTH 560 0
DWIDTH 28 0
BBX 19 25 5 0
BITMAP
800060
8000A0
8000A0
800120
800220
800260
800460
800860
801860
801060
802060
806060
804060
808060
818060
810060
820060
840060
840060
880060
900060
900060
A00060
C00060
C00060
ENDCHAR
STARTCHAR 0439
ENCODING 1081
SWIDTH 560 0
DWIDTH 28 0
BBX 19 36 5 1
BITMAP
100300
080200
080600
040400
031800
00E000
000000
000000
000000
000000
000000
800060
8000A0
8000A0
800120
800220
800260
800460
800860
801860
801060
802060
806060
804060
808060
818060
810060
820060
840060
840060
880060
900060
900060
A00060
C00060
C00060
ENDCHAR
STARTCHAR 043A
ENCODING 1082
SWIDTH 520 0
DWIDTH 26 0
BBX 19 25 5 0
BITMAP
8001E0
800200
800400
800400
800800
801000
801000
802000
804000
804000
808000
FF0000
808000
808000
804000
806000
802000
801000
801800
800800
800400
800400
800200
800300
8001E0
ENDCHAR
STARTCHAR 043B
ENCODING 1083
SWIDTH 520 0
DWIDTH 26 0
BBX 22 25 0 0
BITMAP
01FFFC
010004
010004
010004
010004
010004
010004
010004
010004
010004
010004
010004
010004
010004
010004
010004
030004
020004
020004
020004
040004
040004
080004
080004
F00004
ENDCHAR
STARTCHAR 043C
ENCODING 1084
SWIDTH 680 0
DWIDTH 34 0
BBX 24 25 5 0
BITMAP
C00003
A00005
B0000D
900009
880011
8C0011
840021
820061
820041
810081
818081
808101
804201
804201
802401
803401
801801
801001
800001
800001
800001
800001
800001
800001
800001
ENDCHAR
STARTCHAR 043D
ENCODING 1085
SWIDTH 560 0
DWIDTH 28 0
BBX 19 25 5 0
BITMAP
800060
800060
800060
800060
800060
800060
800060
800060
800060
800060
800060
FFFFE0
800060
800060
800060
800060
800060
800060
800060
800060
800060
800060
800060
800060
800060
ENDCHAR
STARTCHAR 043E
ENCODING 1086
SWIDTH 540 0
DWIDTH 27 0
BBX 21 27 3 -1
BITMAP
01FC00
060300
080080
100040
200020
600030
400010
400010
C00018
800008
800008
800008
800008
800008
800008
800008
800008
800008
400010
400010
400010
200020
200020
100040
0C0180
038E00
007000
ENDCHAR
STARTCHAR 043F
ENCODING 1087
SWIDTH 560 0
DWIDTH 28 0
BBX 18 25 5 0
BITMAP
FFFFC0
800040
800040
800040
800040
800040
800040
800040
800040
800040
800040
800040
800040
800040
800040
800040
800040
800040
800040
800040
800040
800040
800040
800040
800040
ENDCHAR
STARTCHAR 0440
ENCODING 1088
SWIDTH 560 0
DWIDTH 28 0
BBX 20 36 5 -10
BITMAP
01F800
8E0600
980180
A000C0
C00040
C00020
800020
800030
800010
800010
800010
800010
800010
800010
800010
800010
800010
800010
800010
800020
C00020
C00060
A00040
B00080
980100
870E00
807000
800000
800000
800000
800000
800000
800000
800000
800000
800000
ENDCHAR
STARTCHAR 0441
ENCODING 1089
SWIDTH 480 0
DWIDTH 24 0
BBX 19 27 3 -1
BITMAP
01F800
060700
080180
1000C0
200040
600000
400000
400000
C00000
800000
800000
800000
800000
800000
800000
800000
800000
800000
400000
400000
400000
200020
200020
100040
0C0180
038E00
006000
ENDCHAR
STARTCHAR 0442
ENCODING 1090
SWIDTH 460 0
DWIDTH 23 0
BBX 20 25 2 0
BITMAP
FFFFF0
006000
006000
006000
006000
006000
006000
006000
006000
006000
006000
006000
006000
006000
006000
006000
006000
006000
006000
006000
006000
006000
006000
006000
006000
ENDCHAR
STARTCHAR 0443
ENCODING 1091
SWIDTH 440 0
DWIDTH 22 0
BBX 19 35 2 -10
BITMAP
800020
800020
800040
400040
400040
400080
200080
200100
100100
100100
100200
080200
080200
080400
040400
040800
060800
020800
021000
011000
011000
012000
00A000
00A000
00C000
004000
008000
008000
008000
010000
010000
030000
020000
020000
7C0000
ENDCHAR
STARTCHAR 0444
ENCODING 1092
SWIDTH 720 0
DWIDTH 36 0
BBX 30 46 3 -10
BITMAP
00010000
00010000
00010000
00010000
00010000
00010000
00010000
00010000
00010000
00010000
03E10F80
0C113060
10094030
20058010
20030008
40030008
40010008
40010004
40010004
80010004
80010004
80010004
80010004
80010004
80010004
80010004
80010004
80010004
40010004
40010004
40010008
40030008
20038018
30058010
18094020
0E3138C0
01810700
00010000
00010000
00010000
00010000
00010000
00010000
00010000
00010000
00010000
ENDCHAR
STARTCHAR 0445
ENCODING 1093
SWIDTH 460 0
DWIDTH 23 0
BBX 19 25 2 0
BITMAP
C00020
400040
2000C0
100080
180100
080200
040600
020400
030800
011000
00B000
006000
006000
00A000
019000
010800
020C00
040400
0C0200
080100
100100
300080
200040
400060
800020
ENDCHAR
STARTCHAR 0446
ENCODING 1094
SWIDTH 580 0
DWIDTH 29 0
BBX 22 32 5 -7
BITMAP
800040
800040
800040
800040
800040
800040
800040
800040
800040
800040
800040
800040
800040
800040
800040
800040
800040
800040
800040
800040
800040
800040
800040
800040
FFFFFC
000004
000004
000004
000004
000004
000004
000004
ENDCHAR
STARTCHAR 0447
ENCODING 1095
SWIDTH 520 0
DWIDTH 26 0
BBX 18 25 3 0
BITMAP
800040
800040
800040
800040
800040
800040
800040
800040
800040
800040
C000C0
400140
600140
300640
0FF840
000040
000040
000040
000040
000040
000040
000040
000040
000040
000040
ENDCHAR
STARTCHAR 0448
ENCODING 1096
SWIDTH 760 0
DWIDTH 38 0
BBX 29 25 5 0
BITMAP
80020008
80020008
80020008
80020008
80020008
80020008
80020008
80020008
80020008
80020008
80020008
80020008
80020008
80020008
80020008
80020008
80020008
80020008
80020008
80020008
80020008
80020008
80020008
80020008
FFFFFFF8
ENDCHAR
STARTCHAR 0449
ENCODING 1097
SWIDTH 780 0
DWIDTH 39 0
BBX 32 32 5 -7
BITMAP
80020008
80020008
80020008
80020008
80020008
80020008
80020008
80020008
80020008
80020008
80020008
80020008
80020008
80020008
80020008
80020008
80020008
80020008
80020008
80020008
80020008
80020008
80020008
80020008
FFFFFFFF
00000001
00000001
00000001
00000001
00000001
00000001
00000001
ENDCHAR
STARTCHAR 044A
ENCODING 1098
SWIDTH 580 0
DWIDTH 29 0
BBX 24 25 2 0
BITMAP
FF0000
010000
010000
010000
010000
010000
010000
010000
010000
010000
01FFE0
010038
010006
010002
010001
010001
010001
010001
010001
010001
010001
010003
010002
01000C
01FFF0
ENDCHAR
STARTCHAR 044B
ENCODING 1099
SWIDTH 660 0
DWIDTH 33 0
BBX 23 25 5 0
BITMAP
800002
800002
800002
800002
800002
800002
800002
800002
800002
800002
FFE002
803C02
800602
800302
800102
800102
800182
800182
800182
800102
800102
800102
800202
800C02
FFF002
ENDCHAR
STARTCHAR 044C
ENCODING 1100
SWIDTH 500 0
DWIDTH 25 0
BBX 18 25 5 0
BITMAP
800000
800000
800000
800000
800000
800000
800000
800000
800000
800000
FFF000
801E00
800300
800100
800080
800080
800080
8000C0
8000C0
800080
800080
800180
800100
800600
FFF800
ENDCHAR
STARTCHAR 044D
ENCODING 1101
SWIDTH 480 0
DWIDTH 24 0
BBX 19 27 3 -1
BITMAP
07F000
180C00
200200
400100
C00080
000080
000040
000040
000040
000020
000020
000020
000020
0FFFE0
000020
000020
000020
000060
000040
000040
000040
800080
800180
400100
300600
1E3800
038000
ENDCHAR
STARTCHAR 044E
ENCODING 1102
SWIDTH 720 0
DWIDTH 36 0
BBX 29 27 5 -1
BITMAP
0001FC00
80060700
80080180
80100040
80200060
80200020
80400010
80400010
80400010
80400010
80C00018
80800008
FF800008
80800008
80800008
80800018
80C00018
80400010
80400010
80400010
80600030
80200020
80300060
801800C0
800C0180
80038E00
00006000
ENDCHAR
STARTCHAR 044F
ENCODING 1103
SWIDTH 500 0
DWIDTH 25 0
BBX 19 25 2 0
BITMAP
07FFE0
080020
100020
200020
200020
600020
600020
600020
600020
200020
200020
100020
080020
07FFE0
008020
010020
010020
020020
020020
040020
040020
080020
080020
100020
F00020
ENDCHAR
STARTCHAR 0450
ENCODING 1104
SWIDTH 520 0
DWIDTH 26 0
BBX 21 39 3 -1
BITMAP
020000
020000
010000
018000
008000
004000
002000
003000
001000
000000
000000
000000
01F800
060700
080180
1000C0
200060
600020
400030
400010
C00010
800010
800018
800018
FFFFF8
800000
800000
800000
800000
800000
400000
400000
400010
200020
200020
100040
0C0180
038F00
006000
ENDCHAR
STARTCHAR 0451
ENCODING 1105
SWIDTH 520 0
DWIDTH 26 0
BBX 21 35 3 0
BITMAP
060300
060300
000000
000000
000000
000000
000000
000000
01F800
060700
080180
1000C0
200060
600020
400030
400010
C00010
800010
800018
800018
FFFFF8
800000
800000
800000
800000
800000
400000
400000
400010
200020
200020
100040
0C0180
038F00
006000
ENDCHAR
STARTCHAR 0452
ENCODING 1106
SWIDTH 540 0
DWIDTH 27 0
BBX 21 47 2 -10
BITMAP
100000
100000
100000
100000
100000
FFF800
100000
100000
100000
100000
100000
107E00
1181C0
120060
140030
180010
180018
180008
100008
100008
100008
100008
100008
100008
100008
100008
100008
100008
100008
100008
100008
100008
100008
100008
100008
100008
100008
000008
000008
000008
000008
000008
000008
000008
000008
000008
0000F8
ENDCHAR
STARTCHAR 0453
ENCODING 1107
SWIDTH 440 0
DWIDTH 22 0
BBX 15 37 5 1
BITMAP
0010
0030
0060
0040
0080
0100
0100
0000
0000
0000
0000
0000
FFFE
8000
8000
8000
8000
8000
8000
8000
8000
8000
8000
8000
8000
8000
8000
8000
8000
8000
8000
8000
8000
8000
8000
8000
8000
ENDCHAR
STARTCHAR 0454
ENCODING 1108
SWIDTH 480 0
DWIDTH 24 0
BBX 19 27 3 -1
BITMAP
01F800
060700
080180
1000C0
200040
600000
400000
400000
C00000
800000
800000
800000
800000
FFFC00
800000
800000
800000
800000
400000
400000
400000
200020
200020
100040
0C0180
038E00
006000
ENDCHAR
STARTCHAR 0455
ENCODING 1109
SWIDTH 460 0
DWIDTH 23 0
BBX 17 27 3 -1
BITMAP
07F000
180C00
200200
400100
400000
800000
800000
800000
C00000
400000
600000
300000
0F0000
00F800
000600
000300
000100
000080
000080
000080
000080
000080
800080
400100
300200
1E3C00
00E000
ENDCHAR
STARTCHAR 0456
ENCODING 1110
SWIDTH 220 0
DWIDTH 11 0
BBX 2 36 5 0
BITMAP
C0
C0
00
00
00
00
00
00
00
00
00
80
80
80
80
80
80
80
80
80
80
80
80
80
80
80
80
80
80
80
80
80
80
80
80
80
ENDCHAR
STARTCHAR 0457
ENCODING 1111
SWIDTH 220 0
DWIDTH 11 0
BBX 12 34 0 1
BITMAP
C070
C060
0000
0000
0000
0000
0000
0000
0000
0400
0400
0400
0400
0400
0400
0400
0400
0400
0400
0400
0400
0400
0400
0400
0400
0400
0400
0400
0400
0400
0400
0400
0400
0400
ENDCHAR
STARTCHAR 0458
ENCODING 1112
SWIDTH 220 0
DWIDTH 11 0
BBX 6 46 1 -10
BITMAP
0C
0C
00
00
00
00
00
00
00
00
00
08
08
08
08
08
08
08
08
08
08
08
08
08
08
08
08
08
08
08
08
08
08
08
08
08
08
08
08
08
08
08
08
08
08
F8
ENDCHAR
STARTCHAR 0459
ENCODING 1113
SWIDTH 760 0
DWIDTH 38 0
BBX 35 25 0 0
BITMAP
01FFF00000
0100100000
0100100000
0100100000
0100100000
0100100000
0100100000
0100100000
0100100000
0100100000
01001FFC00
0100100700
01001000C0
0100100040
0100100020
0100100020
0300100020
0200100020
0200100020
0200100020
0400100020
0400100060
08001000C0
0800100180
F0001FFE00
ENDCHAR
STARTCHAR 045A
ENCODING 1114
SWIDTH 800 0
DWIDTH 40 0
BBX 32 25 5 0
BITMAP
80008000
80008000
80008000
80008000
80008000
80008000
80008000
80008000
80008000
80008000
80008000
FFFFFFF8
8000800C
80008002
80008001
80008001
80008001
80008001
80008001
80008001
80008001
80008003
80008002
8000800C
8000FFF0
ENDCHAR
STARTCHAR 045B
ENCODING 1115
SWIDTH 540 0
DWIDTH 27 0
BBX 21 37 2 0
BITMAP
100000
100000
100000
100000
100000
FFF800
100000
100000
100000
100000
100000
107E00
1181C0
120060
140030
180010
180018
180008
100008
100008
100008
100008
100008
100008
100008
100008
100008
100008
100008
100008
100008
100008
100008
100008
100008
100008
100008
ENDCHAR
STARTCHAR 045C
ENCODING 1116
SWIDTH 520 0
DWIDTH 26 0
BBX 19 37 5 1
BITMAP
000800
001000
003000
006000
004000
008000
010000
010000
000000
000000
000000
000000
8001E0
800200
800400
800400
800800
801000
801000
802000
804000
804000
808000
FF0000
808000
808000
804000
806000
802000
801000
801800
800800
800400
800400
800200
800300
8001E0
ENDCHAR
STARTCHAR 045D
ENCODING 1117
SWIDTH 560 0
DWIDTH 28 0
BBX 19 37 5 1
BITMAP
040000
020000
030000
010000
008000
004000
004000
000000
000000
000000
000000
000000
800060
8000A0
8000A0
800120
800220
800260
800460
800860
801860
801060
802060
806060
804060
808060
818060
810060
820060
840060
840060
880060
900060
900060
A00060
C00060
C00060
ENDCHAR
STARTCHAR 045E
ENCODING 1118
SWIDTH 440 0
DWIDTH 22 0
BBX 19 46 2 -9
BITMAP
100100
080200
080200
040400
031800
00E000
000000
000000
000000
000000
000000
800020
800020
800040
400040
400040
400080
200080
200100
100100
100100
100200
080200
080200
080400
040400
040800
060800
020800
021000
011000
011000
012000
00A000
00A000
00C000
004000
008000
008000
008000
010000
010000
030000
020000
020000
7C0000
ENDCHAR
STARTCHAR 045F
ENCODING 1119
SWIDTH 560 0
DWIDTH 28 0
BBX 18 32 5 -7
BITMAP
800040
800040
800040
800040
800040
800040
800040
800040
800040
800040
800040
800040
800040
800040
800040
800040
800040
800040
800040
800040
800040
800040
800040
800040
FFFFC0
004000
004000
004000
004000
004000
004000
004000
ENDCHAR
STARTCHAR 0472
ENCODING 1138
SWIDTH 680 0
DWIDTH 34 0
BBX 27 36 3 0
BITMAP
007FE000
01801800
06000600
0C000300
08000100
10000080
300000C0
20000040
20000040
60000060
40000020
40000020
40000020
40000020
40000020
40000020
C0000020
FFFFFFE0
C0000020
40000020
40000020
40000020
40000020
40000020
40000020
60000060
20000040
20000040
300000C0
10000080
08000100
0C000300
06000600
03801C00
00F9F000
00060000
ENDCHAR
STARTCHAR 0473
ENCODING 1139
SWIDTH 540 0
DWIDTH 27 0
BBX 21 27 3 -1
BITMAP
01FC00
060300
080080
100040
200020
600030
400010
400010
C00018
800008
800008
800008
800008
FFFFF8
800008
800008
800008
800008
400010
400010
400010
200020
200020
100040
0C0180
038E00
007000
ENDCHAR
STARTCHAR 0490
ENCODING 1168
SWIDTH 500 0
DWIDTH 25 0
BBX 18 42 5 0
BITMAP
000040
000040
000040
000040
000040
000040
000040
FFFFC0
C00000
C00000
C00000
C00000
C00000
C00000
C00000
C00000
C00000
C00000
C00000
C00000
C00000
C00000
C00000
C00000
C00000
C00000
C00000
C00000
C00000
C00000
C00000
C00000
C00000
C00000
C00000
C00000
C00000
C00000
C00000
C00000
C00000
C00000
ENDCHAR
STARTCHAR 0491
ENCODING 1169
SWIDTH 440 0
DWIDTH 22 0
BBX 15 32 5 0
BITMAP
0002
0002
0002
0002
0002
0002
0002
FFFE
8000
8000
8000
8000
8000
8000
8000
8000
8000
8000
8000
8000
8000
8000
8000
8000
8000
8000
8000
8000
8000
8000
8000
8000
ENDCHAR
STARTCHAR 0492
ENCODING 1170
SWIDTH 520 0
DWIDTH 26 0
BBX 23 35 1 0
BITMAP
07FFFE
060000
060000
060000
060000
060000
060000
060000
060000
060000
060000
060000
060000
060000
060000
060000
FFFFC0
060000
060000
060000
060000
060000
060000
060000
060000
060000
060000
060000
060000
060000
060000
060000
060000
060000
060000
ENDCHAR
STARTCHAR 0493
ENCODING 1171
SWIDTH 440 0
DWIDTH 22 0
BBX 20 25 1 0
BITMAP
07FFF0
040000
040000
040000
040000
040000
040000
040000
040000
040000
040000
FFFE00
040000
040000
040000
040000
040000
040000
040000
040000
040000
040000
040000
040000
040000
ENDCHAR
STARTCHAR 0494
ENCODING 1172
SWIDTH 600 0
DWIDTH 30 0
BBX 22 43 5 -8
BITMAP
FFFF80
C00000
C00000
C00000
C00000
C00000
C00000
C00000
C00000
C00000
C00000
C00000
C00000
C00000
C00000
C00000
DFFF00
E001C0
C00060
C00030
C00018
C00008
C0000C
C00004
C00004
C00004
C00004
C00004
C00004
C00004
C00004
C00004
C00004
C00004
C00004
000004
000004
000004
00000C
000008
000018
000030
0007E0
ENDCHAR
STARTCHAR 0495
ENCODING 1173
SWIDTH 520 0
DWIDTH 26 0
BBX 18 35 5 -10
BITMAP
FFFE00
800000
800000
800000
800000
800000
800000
800000
800000
800000
800000
83F000
8E0E00
900100
A00080
C00080
C00040
800040
800040
800040
800040
800040
800040
800040
800040
000040
000040
000040
000040
000040
000040
000080
000080
000180
001F00
ENDCHAR
STARTCHAR 0496
ENCODING 1174
SWIDTH 900 0
DWIDTH 45 0
BBX 42 43 2 -8
BITMAP
700008000700
080008000800
0C0008001800
040008001000
020008003000
020008002000
010008006000
010008004000
00800800C000
008008008000
004008018000
004008010000
002008020000
003008020000
001008040000
001808040000
000808080000
0007FFF00000
0008080C0000
001008040000
001008060000
002008020000
006008010000
004008010000
00C008008000
008008008000
010008004000
010008004000
020008002000
020008003000
040008001000
0C0008001800
080008000800
180008000400
F000080007C0
0000000000C0
0000000000C0
0000000000C0
0000000000C0
0000000000C0
0000000000C0
0000000000C0
0000000000C0
ENDCHAR
STARTCHAR 0497
ENCODING 1175
SWIDTH 740 0
DWIDTH 37 0
BBX 33 32 2 -7
BITMAP
F000800700
0800800800
0800801800
0400801000
0600802000
0200802000
0100804000
0100804000
0080808000
0080808000
0040810000
003FFE0000
0040810000
00C0810000
0080808000
0180808000
0100804000
0300804000
0200802000
0600803000
0400801000
0800801800
0800800800
1000800C00
F000800780
0000000080
0000000080
0000000080
0000000080
0000000080
0000000080
0000000080
ENDCHAR
STARTCHAR 0498
ENCODING 1176
SWIDTH 560 0
DWIDTH 28 0
BBX 22 44 3 -8
BITMAP
001000
03FF80
0C00C0
180030
200010
600008
000008
00000C
000004
000004
000004
00000C
000008
000008
000010
000030
000060
000380
03FF00
0000E0
000030
000018
00000C
000004
000004
000004
000004
000004
000004
000004
000004
800008
400018
200030
180060
07C780
003800
001000
001000
001000
001000
001000
001000
001000
ENDCHAR
STARTCHAR 0499
ENCODING 1177
SWIDTH 480 0
DWIDTH 24 0
BBX 18 33 3 -7
BITMAP
03F000
1C0C00
300300
400100
C00080
000080
000080
000080
000080
000100
000100
000600
0FF800
003C00
000300
000180
000080
000080
000040
000040
0000C0
800080
800080
400100
300200
1E3C00
01E000
008000
008000
008000
008000
008000
008000
ENDCHAR
STARTCHAR 049A
ENCODING 1178
SWIDTH 620 0
DWIDTH 31 0
BBX 24 43 5 -8
BITMAP
C0001E
C00010
C00020
C00060
C00040
C00080
C00080
C00100
C00300
C00200
C00600
C00400
C00800
C01800
C01000
C03000
C02000
FFC000
C02000
C01000
C01000
C00800
C00C00
C00400
C00200
C00300
C00100
C00180
C00080
C00040
C00060
C00020
C00030
C00010
C0000F
000001
000001
000001
000001
000001
000001
000001
000001
ENDCHAR
STARTCHAR 049B
ENCODING 1179
SWIDTH 520 0
DWIDTH 26 0
BBX 19 32 5 -7
BITMAP
8001E0
800200
800400
800400
800800
801000
801000
802000
804000
804000
808000
FF0000
808000
808000
804000
806000
802000
801000
801800
800800
800400
800400
800200
800300
8001E0
000020
000020
000020
000020
000020
000020
000020
ENDCHAR
STARTCHAR 049C
ENCODING 1180
SWIDTH 620 0
DWIDTH 31 0
BBX 24 35 5 0
BITMAP
C0000F
C00010
C00030
C00020
C00060
C00040
C00080
C00080
C20100
C20300
C20200
C20400
C20400
C20800
C21800
C21000
C22000
FFE000
C23000
C21000
C20800
C20C00
C20400
C20600
C20200
C20100
C00180
C00080
C00040
C00040
C00020
C00030
C00010
C00008
C0000F
ENDCHAR
STARTCHAR 049D
ENCODING 1181
SWIDTH 540 0
DWIDTH 27 0
BBX 20 25 5 0
BITMAP
8000F0
800100
800200
800200
800400
840800
840800
841000
842000
842000
844000
FF8000
844000
844000
842000
843000
841000
840800
840C00
800400
800200
800200
800100
800180
8000F0
ENDCHAR
STARTCHAR 04A0
ENCODING 1184
SWIDTH 720 0
DWIDTH 36 0
BBX 33 35 1 0
BITMAP
FFE0000780
0020000C00
0020000800
0020001000
0020001000
0020002000
0020006000
0020004000
0020008000
0020008000
0020010000
0020030000
0020020000
0020060000
0020040000
0020080000
0020080000
003FF00000
0020080000
00200C0000
0020040000
0020020000
0020020000
0020010000
0020018000
0020008000
0020004000
0020006000
0020002000
0020003000
0020001000
0020000800
0020000C00
0020000400
0020000380
ENDCHAR
STARTCHAR 04A1
ENCODING 1185
SWIDTH 580 0
DWIDTH 29 0
BBX 26 25 2 0
BITMAP
FF0003C0
01000400
01000800
01000800
01001000
01002000
01002000
01004000
01008000
01018000
01010000
01FE0000
01010000
01010000
01008000
0100C000
01004000
01002000
01003000
01001000
01000800
01000800
01000400
01000600
010003C0
ENDCHAR
STARTCHAR 04A2
ENCODING 1186
SWIDTH 720 0
DWIDTH 36 0
BBX 29 43 5 -8
BITMAP
C0000100
C0000100
C0000100
C0000100
C0000100
C0000100
C0000100
C0000100
C0000100
C0000100
C0000100
C0000100
C0000100
C0000100
C0000100
C0000100
C0000100
FFFFFF00
C0000100
C0000100
C0000100
C0000100
C0000100
C0000100
C0000100
C0000100
C0000100
C0000100
C0000100
C0000100
C0000100
C0000100
C0000100
C0000100
C00001F8
00000018
00000018
00000018
00000018
00000018
00000018
00000018
00000018
ENDCHAR
STARTCHAR 04A3
ENCODING 1187
SWIDTH 580 0
DWIDTH 29 0
BBX 22 32 5 -7
BITMAP
800060
800060
800060
800060
800060
800060
800060
800060
800060
800060
800060
FFFFE0
800060
800060
800060
800060
800060
800060
800060
800060
800060
800060
800060
800060
80007C
000004
000004
000004
000004
000004
000004
000004
ENDCHAR
STARTCHAR 04A4
ENCODING 1188
SWIDTH 920 0
DWIDTH 46 0
BBX 40 35 5 0
BITMAP
C00003FFFF
C000020000
C000020000
C000020000
C000020000
C000020000
C000020000
C000020000
C000020000
C000020000
C000020000
C000020000
C000020000
C000020000
C000020000
C000020000
C000020000
FFFFFE0000
C000020000
C000020000
C000020000
C000020000
C000020000
C000020000
C000020000
C000020000
C000020000
C000020000
C000020000
C000020000
C000020000
C000020000
C000020000
C000020000
C000020000
ENDCHAR
STARTCHAR 04A5
ENCODING 1189
SWIDTH 760 0
DWIDTH 38 0
BBX 31 25 5 0
BITMAP
8000FFFE
80008000
80008000
80008000
80008000
80008000
80008000
80008000
80008000
80008000
80008000
FFFF8000
80008000
80008000
80008000
80008000
80008000
80008000
80008000
80008000
80008000
80008000
80008000
80008000
80008000
ENDCHAR
STARTCHAR 04AA
ENCODING 1194
SWIDTH 600 0
DWIDTH 30 0
BBX 24 44 3 -8
BITMAP
000400
00FFC0
038030
060008
0C0004
180002
100003
300001
200000
200000
400000
400000
400000
400000
400000
400000
400000
C00000
C00000
C00000
400000
400000
400000
400000
400000
400000
400000
200000
200000
200001
100001
180002
0C0004
060008
030030
00F3E0
001E00
000400
000400
000400
000400
000400
000400
000400
ENDCHAR
STARTCHAR 04AB
ENCODING 1195
SWIDTH 480 0
DWIDTH 24 0
BBX 19 33 3 -7
BITMAP
01F800
060700
080180
1000C0
200040
600000
400000
400000
C00000
800000
800000
800000
800000
800000
800000
800000
800000
800000
400000
400000
400000
200020
200020
100040
0C0180
078F00
007000
002000
002000
002000
002000
002000
002000
ENDCHAR
STARTCHAR 04AE
ENCODING 1198
SWIDTH 540 0
DWIDTH 27 0
BBX 25 35 1 0
BITMAP
C0000080
40000100
60000100
20000200
10000600
18000400
08000800
0C000800
04001000
02003000
03002000
01004000
01804000
00808000
00418000
00610000
00220000
00320000
00140000
000C0000
00080000
00080000
00080000
00080000
00080000
00080000
00080000
00080000
00080000
00080000
00080000
00080000
00080000
00080000
00080000
ENDCHAR
STARTCHAR 04AF
ENCODING 1199
SWIDTH 440 0
DWIDTH 22 0
BBX 19 35 2 -10
BITMAP
800020
800020
800040
400040
4000C0
600080
200080
200100
100100
100100
100200
080200
080600
0C0400
040400
040800
020800
020800
021000
011000
011000
012000
00A000
00C000
004000
004000
004000
004000
004000
004000
004000
004000
004000
004000
004000
ENDCHAR
STARTCHAR 04B0
ENCODING 1200
SWIDTH 540 0
DWIDTH 27 0
BBX 25 35 1 0
BITMAP
C0000080
40000100
60000100
20000200
10000600
18000400
08000800
0C000800
04001000
02003000
03002000
01004000
01804000
00808000
00418000
00610000
00220000
00320000
00140000
000C0000
1FFFFC00
00080000
00080000
00080000
00080000
00080000
00080000
00080000
00080000
00080000
00080000
00080000
00080000
00080000
00080000
ENDCHAR
STARTCHAR 04B1
ENCODING 1201
SWIDTH 440 0
DWIDTH 22 0
BBX 19 35 2 -10
BITMAP
800020
800020
800040
400040
4000C0
600080
200080
200100
100100
100100
100200
080200
080600
0C0400
040400
040800
020800
020800
021000
011000
011000
012000
00A000
00C000
004000
3FFF00
004000
004000
004000
004000
004000
004000
004000
004000
004000
ENDCHAR
STARTCHAR 04B2
ENCODING 1202
SWIDTH 580 0
DWIDTH 29 0
BBX 27 43 2 -8
BITMAP
80000300
40000200
60000400
20000C00
10000800
18001000
08003000
04002000
06004000
0200C000
01008000
01810000
00830000
00420000
00640000
002C0000
00180000
00180000
003C0000
00240000
00420000
00C30000
00810000
01008000
0300C000
02004000
04002000
0C003000
08001000
10000800
30000C00
20000400
40000200
C0000300
800001E0
00000020
00000020
00000020
00000020
00000020
00000020
00000020
00000020
ENDCHAR
STARTCHAR 04B3
ENCODING 1203
SWIDTH 480 0
DWIDTH 24 0
BBX 22 32 2 -7
BITMAP
C00020
400040
2000C0
100080
180100
080200
040600
020400
030800
011000
00B000
006000
006000
00A000
019000
010800
020C00
040400
0C0200
080100
100100
300080
200040
400060
80003C
000004
000004
000004
000004
000004
000004
000004
ENDCHAR
STARTCHAR 04B6
ENCODING 1206
SWIDTH 640 0
DWIDTH 32 0
BBX 27 43 3 -8
BITMAP
C0000200
C0000200
C0000200
C0000200
C0000200
C0000200
C0000200
C0000200
C0000200
C0000200
C0000200
C0000200
40000200
40000200
40000200
60000200
20000200
30000200
18000200
07001E00
01FFE200
00000200
00000200
00000200
00000200
00000200
00000200
00000200
00000200
00000200
00000200
00000200
00000200
00000200
000003E0
00000020
00000020
00000020
00000020
00000020
00000020
00000020
00000020
ENDCHAR
STARTCHAR 04B7
ENCODING 1207
SWIDTH 520 0
DWIDTH 26 0
BBX 22 32 3 -7
BITMAP
800040
800040
800040
800040
800040
800040
800040
800040
800040
800040
C000C0
400140
600140
300640
0FF840
000040
000040
000040
000040
000040
000040
000040
000040
000040
00007C
00000C
00000C
00000C
00000C
00000C
00000C
00000C
ENDCHAR
STARTCHAR 04B8
ENCODING 1208
SWIDTH 620 0
DWIDTH 31 0
BBX 23 35 3 0
BITMAP
C00002
C00002
C00002
C00002
C00002
C00002
C00002
C00002
C00002
C00002
C00002
C01002
401002
401002
401002
601002
201002
301002
181002
07101E
01FFE2
001002
001002
001002
001002
001002
001002
001002
001002
000002
000002
000002
000002
000002
000002
ENDCHAR
STARTCHAR 04B9
ENCODING 1209
SWIDTH 520 0
DWIDTH 26 0
BBX 18 25 3 0
BITMAP
800040
800040
800040
800040
800040
800040
808040
808040
808040
8080C0
C080C0
408140
608140
308640
0FF840
008040
008040
008040
008040
008040
000040
000040
000040
000040
000040
ENDCHAR
STARTCHAR 04BA
ENCODING 1210
SWIDTH 620 0
DWIDTH 31 0
BBX 23 35 5 0
BITMAP
C00000
C00000
C00000
C00000
C00000
C00000
C00000
C00000
C00000
C00000
C00000
C00000
C00000
C00000
C7FF00
F801C0
C00070
C00010
C00008
C0000C
C00004
C00004
C00004
C00006
C00002
C00002
C00002
C00002
C00002
C00002
C00002
C00002
C00002
C00002
C00002
ENDCHAR
STARTCHAR 04BB
ENCODING 1211
SWIDTH 540 0
DWIDTH 27 0
BBX 18 37 5 0
BITMAP
800000
800000
800000
800000
800000
800000
800000
800000
800000
800000
800000
83F000
8C0E00
900300
A00180
C00080
C00080
800040
800040
800040
800040
800040
800040
800040
800040
800040
800040
800040
800040
800040
800040
800040
800040
800040
800040
800040
800040
ENDCHAR
STARTCHAR 04C0
ENCODING 1216
SWIDTH 360 0
DWIDTH 18 0
BBX 12 35 3 0
BITMAP
FFF0
0200
0200
0200
0200
0200
0200
0200
0200
0200
0200
0200
0200
0200
0200
0200
0200
0200
0200
0200
0200
0200
0200
0200
0200
0200
0200
0200
0200
0200
0200
0200
0200
0200
FFF0
ENDCHAR
STARTCHAR 04C1
ENCODING 1217
SWIDTH 900 0
DWIDTH 45 0
BBX 41 45 2 1
BITMAP
000200200000
000100400000
000180400000
000080800000
000063000000
00001C000000
000000000000
000000000000
000000000000
000000000000
700008000700
080008000800
0C0008001800
040008001000
020008003000
020008002000
010008006000
010008004000
00800800C000
008008008000
004008018000
004008010000
002008020000
003008020000
001008040000
001808040000
000808080000
0007FFF00000
0008080C0000
001008040000
001008060000
002008020000
006008010000
004008010000
00C008008000
008008008000
010008004000
010008004000
020008002000
020008003000
040008001000
0C0008001800
080008000800
180008000400
F00008000780
ENDCHAR
STARTCHAR 04C2
ENCODING 1218
SWIDTH 720 0
DWIDTH 36 0
BBX 33 36 2 1
BITMAP
0020020000
0010040000
00100C0000
0008080000
0006300000
0001C00000
0000000000
0000000000
0000000000
0000000000
0000000000
F000800700
0800800800
0800801800
0400801000
0600802000
0200802000
0100804000
0100804000
0080808000
0080808000
0040810000
003FFE0000
0040810000
00C0810000
0080808000
0180808000
0100804000
0300804000
0200802000
0600803000
0400801000
0800801800
0800800800
1000800C00
F000800780
ENDCHAR
STARTCHAR 04CF
ENCODING 1231
SWIDTH 220 0
DWIDTH 11 0
BBX 1 37 5 0
BITMAP
80
80
80
80
80
80
80
80
80
80
80
80
80
80
80
80
80
80
80
80
80
80
80
80
80
80
80
80
80
80
80
80
80
80
80
80
80
ENDCHAR
STARTCHAR 04D0
ENCODING 1232
SWIDTH 600 0
DWIDTH 30 0
BBX 26 45 2 1
BITMAP
01002000
01002000
00804000
00C0C000
00618000
000C0000
00000000
00000000
00000000
00000000
000C0000
000C0000
00120000
00120000
00120000
00210000
00210000
00210000
00408000
00408000
00C0C000
00804000
00804000
01806000
01002000
01002000
02001000
02001000
02001000
04000800
04000800
0C000C00
0FFFFC00
08000400
18000600
10000200
10000200
20000100
20000100
20000100
40000080
40000080
C0000080
80000040
80000040
ENDCHAR
STARTCHAR 04D1
ENCODING 1233
SWIDTH 500 0
DWIDTH 25 0
BBX 22 37 3 0
BITMAP
100100
080200
080200
040400
031800
00E000
000000
000000
000000
000000
03F800
0C0600
100300
200180
400080
400080
0000C0
000040
000040
000040
000040
000040
03FFC0
1C0040
200040
400040
400040
800040
800040
800040
8000C0
8000C0
400140
400140
200640
1E787C
018000
ENDCHAR
STARTCHAR 04D2
ENCODING 1234
SWIDTH 600 0
DWIDTH 30 0
BBX 26 43 2 0
BITMAP
01C0E000
01806000
00000000
00000000
00000000
00000000
00000000
00000000
000C0000
000C0000
00120000
00120000
00120000
00210000
00210000
00210000
00408000
00408000
00C0C000
00804000
00804000
01806000
01002000
01002000
02001000
02001000
02001000
04000800
04000800
0C000C00
0FFFFC00
08000400
18000600
10000200
10000200
20000100
20000100
20000100
40000080
40000080
C0000080
80000040
80000040
ENDCHAR
STARTCHAR 04D3
ENCODING 1235
SWIDTH 500 0
DWIDTH 25 0
BBX 22 35 3 0
BITMAP
0C0600
0C0600
000000
000000
000000
000000
000000
000000
03F800
0C0600
100300
200180
400080
400080
0000C0
000040
000040
000040
000040
000040
03FFC0
1C0040
200040
400040
400040
800040
800040
800040
8000C0
8000C0
400140
400140
200640
1E787C
018000
ENDCHAR
STARTCHAR 04D4
ENCODING 1236
SWIDTH 860 0
DWIDTH 43 0
BBX 39 35 0 0
BITMAP
00001FFFFE
00003C0000
00002C0000
00006C0000
00004C0000
00008C0000
00008C0000
00010C0000
00010C0000
00020C0000
00020C0000
00040C0000
000C0C0000
00080C0000
00180C0000
00100C0000
00200C0000
00200FFFFE
00400C0000
00400C0000
00800C0000
01800C0000
01FFFC0000
03000C0000
02000C0000
06000C0000
04000C0000
08000C0000
08000C0000
10000C0000
10000C0000
20000C0000
60000C0000
40000C0000
C0000FFFFE
ENDCHAR
STARTCHAR 04D5
ENCODING 1237
SWIDTH 860 0
DWIDTH 43 0
BBX 37 27 3 -1
BITMAP
03F000FC00
0C0C070300
30030C0080
2001100040
4000900020
4000A00020
0000A00010
0000C00010
0000C00008
0000C00008
0000C00008
0000C00008
03FFFFFFF8
1C00C00000
2000C00000
4000C00000
8000C00000
8000C00000
8000C00000
8000C00000
8000A00010
8000A00010
8001100020
4003180060
20060C0080
1E78038F00
0180003000
ENDCHAR
STARTCHAR 04D6
ENCODING 1238
SWIDTH 560 0
DWIDTH 28 0
BBX 19 45 5 1
BITMAP
080100
080100
040200
060600
030C00
006000
000000
000000
000000
000000
FFFFE0
C00000
C00000
C00000
C00000
C00000
C00000
C00000
C00000
C00000
C00000
C00000
C00000
C00000
C00000
C00000
C00000
FFFFE0
C00000
C00000
C00000
C00000
C00000
C00000
C00000
C00000
C00000
C00000
C00000
C00000
C00000
C00000
C00000
C00000
FFFFE0
ENDCHAR
STARTCHAR 04D7
ENCODING 1239
SWIDTH 520 0
DWIDTH 26 0
BBX 21 37 3 0
BITMAP
080080
040100
040100
020200
018C00
007000
000000
000000
000000
000000
01F800
060700
080180
1000C0
200060
600020
400030
400010
C00010
800010
800018
800018
FFFFF8
800000
800000
800000
800000
800000
400000
400000
400010
200020
200020
100040
0C0180
038F00
006000
ENDCHAR
STARTCHAR 04D8
ENCODING 1240
SWIDTH 680 0
DWIDTH 34 0
BBX 27 36 3 0
BITMAP
00FFE000
01801800
06000600
0C000300
08000100
10000080
10000080
20000040
20000040
00000060
00000020
00000020
00000020
00000020
00000020
00000020
00000020
FFFFFFE0
C0000020
40000020
40000020
40000020
40000020
40000020
40000020
60000060
20000040
20000040
300000C0
10000080
08000100
0C000300
06000600
03801C00
00F9F000
00060000
ENDCHAR
STARTCHAR 04D9
ENCODING 1241
SWIDTH 520 0
DWIDTH 26 0
BBX 21 27 3 -1
BITMAP
01F800
060700
180180
300040
200060
400020
400030
000010
000010
000010
000010
000018
000018
FFFFF8
800018
800018
800010
800010
400010
400010
400030
200020
300040
1000C0
0C0180
038E00
006000
ENDCHAR
STARTCHAR 04DC
ENCODING 1244
SWIDTH 900 0
DWIDTH 45 0
BBX 41 43 2 0
BITMAP
000180C00000
000180C00000
000000000000
000000000000
000000000000
000000000000
000000000000
000000000000
700008000700
080008000800
0C0008001800
040008001000
020008003000
020008002000
010008006000
010008004000
00800800C000
008008008000
004008018000
004008010000
002008020000
003008020000
001008040000
001808040000
000808080000
0007FFF00000
0008080C0000
001008040000
001008060000
002008020000
006008010000
004008010000
00C008008000
008008008000
010008004000
010008004000
020008002000
020008003000
040008001000
0C0008001800
080008000800
180008000400
F00008000780
ENDCHAR
STARTCHAR 04DD
ENCODING 1245
SWIDTH 720 0
DWIDTH 36 0
BBX 33 35 2 0
BITMAP
0010000000
00180C0000
00180C0000
0000000000
0000000000
0000000000
0000000000
0000000000
0000000000
0000000000
F000800700
0800800800
0800801800
0400801000
0600802000
0200802000
0100804000
0100804000
0080808000
0080808000
0040810000
003FFE0000
0040810000
00C0810000
0080808000
0180808000
0100804000
0300804000
0200802000
0600803000
0400801000
0800801800
0800800800
1000800C00
F000800780
ENDCHAR
STARTCHAR 04DE
ENCODING 1246
SWIDTH 560 0
DWIDTH 28 0
BBX 22 44 3 -1
BITMAP
030180
030180
000000
000000
000000
000000
000000
001000
03FF80
0C00C0
180030
200010
600008
000008
00000C
000004
000004
000004
00000C
000008
000008
000010
000030
000060
000380
03FF00
0000E0
000030
000018
00000C
000004
000004
000004
000004
000004
000004
000004
000004
800008
400018
200030
180060
07C780
003800
ENDCHAR
STARTCHAR 04DF
ENCODING 1247
SWIDTH 480 0
DWIDTH 24 0
BBX 18 35 3 0
BITMAP
1C0600
0C0600
000000
000000
000000
000000
000000
000000
03F000
1C0C00
300300
400100
C00080
000080
000080
000080
000080
000100
000100
000600
0FF800
003C00
000300
000180
000080
000080
000040
000040
0000C0
800080
800080
400100
300200
1E3C00
00A000
ENDCHAR
STARTCHAR 04E2
ENCODING 1250
SWIDTH 680 0
DWIDTH 34 0
BBX 24 43 5 0
BITMAP
03FFE0
000000
000000
000000
000000
000000
000000
000000
800001
800003
800003
800005
80000D
800009
800011
800031
800021
800041
8000C1
800081
800101
800301
800201
800401
800C01
800801
801001
803001
802001
804001
80C001
808001
810001
830001
820001
840001
8C0001
880001
900001
900001
A00001
C00001
C00001
ENDCHAR
STARTCHAR 04E3
ENCODING 1251
SWIDTH 560 0
DWIDTH 28 0
BBX 19 34 5 0
BITMAP
1FFF00
000000
000000
000000
000000
000000
000000
000000
000000
800060
8000A0
8000A0
800120
800220
800260
800460
800860
801860
801060
802060
806060
804060
808060
818060
810060
820060
840060
840060
880060
900060
900060
A00060
C00060
C00060
ENDCHAR
STARTCHAR 04E4
ENCODING 1252
SWIDTH 680 0
DWIDTH 34 0
BBX 24 43 5 0
BITMAP
0180C0
0180C0
000000
000000
000000
000000
000000
000000
800001
800003
800003
800005
80000D
800009
800011
800031
800021
800041
8000C1
800081
800101
800301
800201
800401
800C01
800801
801001
803001
802001
804001
80C001
808001
810001
830001
820001
840001
8C0001
880001
900001
900001
A00001
C00001
C00001
ENDCHAR
STARTCHAR 04E5
ENCODING 1253
SWIDTH 560 0
DWIDTH 28 0
BBX 19 34 5 1
BITMAP
0C0600
0C0600
000000
000000
000000
000000
000000
000000
000000
800060
8000A0
8000A0
800120
800220
800260
800460
800860
801860
801060
802060
806060
804060
808060
818060
810060
820060
840060
840060
880060
900060
900060
A00060
C00060
C00060
ENDCHAR
STARTCHAR 04E6
ENCODING 1254
SWIDTH 680 0
DWIDTH 34 0
BBX 27 44 3 -1
BITMAP
00E07000
00C03000
00000000
00000000
00000000
00000000
00000000
00000000
007FE000
01801800
06000600
0C000300
08000100
10000080
300000C0
20000040
20000040
60000060
40000020
40000020
40000020
40000020
40000020
40000020
C0000020
C0000020
C0000020
40000020
40000020
40000020
40000020
40000020
40000020
60000060
20000040
20000040
300000C0
10000080
08000100
0C000300
06000600
03801C00
00F9F000
00060000
ENDCHAR
STARTCHAR 04E7
ENCODING 1255
SWIDTH 540 0
DWIDTH 27 0
BBX 21 36 3 -1
BITMAP
000100
060300
060300
000000
000000
000000
000000
000000
000000
01FC00
060300
080080
100040
200020
600030
400010
400010
C00018
800008
800008
800008
800008
800008
800008
800008
800008
800008
400010
400010
400010
200020
200020
100040
0C0180
038E00
007000
ENDCHAR
STARTCHAR 04E8
ENCODING 1256
SWIDTH 680 0
DWIDTH 34 0
BBX 27 36 3 0
BITMAP
007FE000
01801800
06000600
0C000300
08000100
10000080
300000C0
20000040
20000040
60000060
40000020
40000020
40000020
40000020
40000020
40000020
C0000020
FFFFFFE0
C0000020
40000020
40000020
40000020
40000020
40000020
40000020
60000060
20000040
20000040
300000C0
10000080
08000100
0C000300
06000600
03801C00
00F9F000
00060000
ENDCHAR
STARTCHAR 04E9
ENCODING 1257
SWIDTH 540 0
DWIDTH 27 0
BBX 21 27 3 -1
BITMAP
01FC00
060300
080080
100040
200020
600030
400010
400010
C00018
800008
800008
800008
800008
FFFFF8
800008
800008
800008
800008
400010
400010
400010
200020
200020
100040
0C0180
038E00
007000
ENDCHAR
STARTCHAR 04EE
ENCODING 1262
SWIDTH 560 0
DWIDTH 28 0
BBX 25 43 2 0
BITMAP
01FFE000
00000000
00000000
00000000
00000000
00000000
00000000
00000000
80000080
80000180
40000100
40000100
20000200
20000200
10000600
10000400
08000400
08000800
04000800
04001800
02001000
02001000
01002000
01002000
00806000
00804000
00404000
00408000
00608000
00218000
00310000
00110000
001A0000
000A0000
000E0000
00040000
00040000
00080000
00080000
00180000
00100000
00100000
03E00000
ENDCHAR
STARTCHAR 04EF
ENCODING 1263
SWIDTH 440 0
DWIDTH 22 0
BBX 19 44 2 -10
BITMAP
1FFF00
000000
000000
000000
000000
000000
000000
000000
000000
800020
800020
800040
400040
400040
400080
200080
200100
100100
100100
100200
080200
080200
080400
040400
040800
060800
020800
021000
011000
011000
012000
00A000
00A000
00C000
004000
008000
008000
008000
010000
010000
030000
020000
020000
7C0000
ENDCHAR
ENDFONT
